G75*
G70*
%OFA0B0*%
%FSLAX24Y24*%
%IPPOS*%
%LPD*%
%AMOC8*
5,1,8,0,0,1.08239X$1,22.5*
%
%ADD10C,0.1500*%
%ADD11C,0.1241*%
%ADD12C,0.1270*%
%ADD13C,0.0710*%
%ADD14C,0.1360*%
%ADD15C,0.0820*%
%ADD16C,0.0457*%
D10*
X002726Y013726D02*
X004476Y015476D01*
X004476Y017101D01*
X004476Y017226D02*
X004476Y019726D01*
X006726Y021976D01*
X008726Y021976D02*
X008726Y020226D01*
X007726Y019226D01*
X007726Y016601D01*
X009601Y014726D01*
X014101Y014976D02*
X014101Y013726D01*
X014101Y014976D02*
X014101Y018476D01*
X014101Y014976D01*
X018226Y017601D02*
X021101Y014726D01*
X018226Y017601D02*
X018226Y021976D01*
X016226Y021976D02*
X014101Y019851D01*
X014101Y018476D01*
X025601Y018476D02*
X025601Y014976D01*
X025601Y018476D01*
X025601Y019851D01*
X027726Y021976D01*
X029726Y021976D02*
X029726Y017601D01*
X032601Y014726D01*
X025601Y014976D02*
X025601Y013726D01*
D11*
X002726Y002726D03*
X009682Y014682D03*
X009682Y017686D03*
X002726Y022226D03*
X021119Y017686D03*
X021119Y014682D03*
X032619Y014682D03*
X032619Y017686D03*
X033726Y022226D03*
X033726Y002726D03*
D12*
X025627Y013682D03*
X014127Y013682D03*
X002690Y013682D03*
D13*
X004186Y008682D03*
X008186Y008682D03*
X015623Y008682D03*
X019623Y008682D03*
X027123Y008682D03*
X031123Y008682D03*
D14*
X029726Y021976D03*
X027726Y021976D03*
X018226Y021976D03*
X016226Y021976D03*
X008726Y021976D03*
X006726Y021976D03*
D15*
X013226Y001726D03*
X014226Y001726D03*
X015226Y001726D03*
X016226Y001726D03*
X017226Y001726D03*
X018226Y001726D03*
X020226Y001726D03*
X021226Y001726D03*
X022226Y001726D03*
X023226Y001726D03*
X024226Y001726D03*
D16*
X021476Y003726D03*
X017226Y005226D03*
X020226Y006726D03*
X028476Y005476D03*
X032226Y005226D03*
X009226Y005226D03*
X006226Y004726D03*
M02*
