G75*
G70*
%OFA0B0*%
%FSLAX24Y24*%
%IPPOS*%
%LPD*%
%AMOC8*
5,1,8,0,0,1.08239X$1,22.5*
%
%ADD10C,0.0000*%
%ADD11C,0.1181*%
%ADD12C,0.1210*%
%ADD13C,0.0650*%
%ADD14C,0.1300*%
%ADD15C,0.0760*%
%ADD16R,0.0315X0.0354*%
%ADD17R,0.0512X0.0630*%
%ADD18R,0.0630X0.0512*%
%ADD19R,0.0472X0.0472*%
%ADD20R,0.0248X0.0327*%
%ADD21C,0.0160*%
%ADD22C,0.0397*%
%ADD23C,0.0240*%
%ADD24C,0.1500*%
D10*
X002726Y000726D02*
X033726Y000726D01*
X033135Y002726D02*
X033137Y002774D01*
X033143Y002822D01*
X033153Y002869D01*
X033166Y002915D01*
X033184Y002960D01*
X033204Y003004D01*
X033229Y003046D01*
X033257Y003085D01*
X033287Y003122D01*
X033321Y003156D01*
X033358Y003188D01*
X033396Y003217D01*
X033437Y003242D01*
X033480Y003264D01*
X033525Y003282D01*
X033571Y003296D01*
X033618Y003307D01*
X033666Y003314D01*
X033714Y003317D01*
X033762Y003316D01*
X033810Y003311D01*
X033858Y003302D01*
X033904Y003290D01*
X033949Y003273D01*
X033993Y003253D01*
X034035Y003230D01*
X034075Y003203D01*
X034113Y003173D01*
X034148Y003140D01*
X034180Y003104D01*
X034210Y003066D01*
X034236Y003025D01*
X034258Y002982D01*
X034278Y002938D01*
X034293Y002893D01*
X034305Y002846D01*
X034313Y002798D01*
X034317Y002750D01*
X034317Y002702D01*
X034313Y002654D01*
X034305Y002606D01*
X034293Y002559D01*
X034278Y002514D01*
X034258Y002470D01*
X034236Y002427D01*
X034210Y002386D01*
X034180Y002348D01*
X034148Y002312D01*
X034113Y002279D01*
X034075Y002249D01*
X034035Y002222D01*
X033993Y002199D01*
X033949Y002179D01*
X033904Y002162D01*
X033858Y002150D01*
X033810Y002141D01*
X033762Y002136D01*
X033714Y002135D01*
X033666Y002138D01*
X033618Y002145D01*
X033571Y002156D01*
X033525Y002170D01*
X033480Y002188D01*
X033437Y002210D01*
X033396Y002235D01*
X033358Y002264D01*
X033321Y002296D01*
X033287Y002330D01*
X033257Y002367D01*
X033229Y002406D01*
X033204Y002448D01*
X033184Y002492D01*
X033166Y002537D01*
X033153Y002583D01*
X033143Y002630D01*
X033137Y002678D01*
X033135Y002726D01*
X033726Y000726D02*
X033821Y000728D01*
X033916Y000735D01*
X034011Y000746D01*
X034105Y000762D01*
X034198Y000782D01*
X034289Y000807D01*
X034380Y000836D01*
X034469Y000869D01*
X034557Y000907D01*
X034642Y000948D01*
X034726Y000994D01*
X034807Y001043D01*
X034886Y001097D01*
X034962Y001154D01*
X035036Y001215D01*
X035106Y001279D01*
X035173Y001346D01*
X035237Y001416D01*
X035298Y001490D01*
X035355Y001566D01*
X035409Y001645D01*
X035458Y001726D01*
X035504Y001810D01*
X035545Y001895D01*
X035583Y001983D01*
X035616Y002072D01*
X035645Y002163D01*
X035670Y002254D01*
X035690Y002347D01*
X035706Y002441D01*
X035717Y002536D01*
X035724Y002631D01*
X035726Y002726D01*
X035726Y022226D01*
X033135Y022226D02*
X033137Y022274D01*
X033143Y022322D01*
X033153Y022369D01*
X033166Y022415D01*
X033184Y022460D01*
X033204Y022504D01*
X033229Y022546D01*
X033257Y022585D01*
X033287Y022622D01*
X033321Y022656D01*
X033358Y022688D01*
X033396Y022717D01*
X033437Y022742D01*
X033480Y022764D01*
X033525Y022782D01*
X033571Y022796D01*
X033618Y022807D01*
X033666Y022814D01*
X033714Y022817D01*
X033762Y022816D01*
X033810Y022811D01*
X033858Y022802D01*
X033904Y022790D01*
X033949Y022773D01*
X033993Y022753D01*
X034035Y022730D01*
X034075Y022703D01*
X034113Y022673D01*
X034148Y022640D01*
X034180Y022604D01*
X034210Y022566D01*
X034236Y022525D01*
X034258Y022482D01*
X034278Y022438D01*
X034293Y022393D01*
X034305Y022346D01*
X034313Y022298D01*
X034317Y022250D01*
X034317Y022202D01*
X034313Y022154D01*
X034305Y022106D01*
X034293Y022059D01*
X034278Y022014D01*
X034258Y021970D01*
X034236Y021927D01*
X034210Y021886D01*
X034180Y021848D01*
X034148Y021812D01*
X034113Y021779D01*
X034075Y021749D01*
X034035Y021722D01*
X033993Y021699D01*
X033949Y021679D01*
X033904Y021662D01*
X033858Y021650D01*
X033810Y021641D01*
X033762Y021636D01*
X033714Y021635D01*
X033666Y021638D01*
X033618Y021645D01*
X033571Y021656D01*
X033525Y021670D01*
X033480Y021688D01*
X033437Y021710D01*
X033396Y021735D01*
X033358Y021764D01*
X033321Y021796D01*
X033287Y021830D01*
X033257Y021867D01*
X033229Y021906D01*
X033204Y021948D01*
X033184Y021992D01*
X033166Y022037D01*
X033153Y022083D01*
X033143Y022130D01*
X033137Y022178D01*
X033135Y022226D01*
X033726Y024226D02*
X033821Y024224D01*
X033916Y024217D01*
X034011Y024206D01*
X034105Y024190D01*
X034198Y024170D01*
X034289Y024145D01*
X034380Y024116D01*
X034469Y024083D01*
X034557Y024045D01*
X034642Y024004D01*
X034726Y023958D01*
X034807Y023909D01*
X034886Y023855D01*
X034962Y023798D01*
X035036Y023737D01*
X035106Y023673D01*
X035173Y023606D01*
X035237Y023536D01*
X035298Y023462D01*
X035355Y023386D01*
X035409Y023307D01*
X035458Y023226D01*
X035504Y023142D01*
X035545Y023057D01*
X035583Y022969D01*
X035616Y022880D01*
X035645Y022789D01*
X035670Y022698D01*
X035690Y022605D01*
X035706Y022511D01*
X035717Y022416D01*
X035724Y022321D01*
X035726Y022226D01*
X033726Y024226D02*
X002726Y024226D01*
X002135Y022226D02*
X002137Y022274D01*
X002143Y022322D01*
X002153Y022369D01*
X002166Y022415D01*
X002184Y022460D01*
X002204Y022504D01*
X002229Y022546D01*
X002257Y022585D01*
X002287Y022622D01*
X002321Y022656D01*
X002358Y022688D01*
X002396Y022717D01*
X002437Y022742D01*
X002480Y022764D01*
X002525Y022782D01*
X002571Y022796D01*
X002618Y022807D01*
X002666Y022814D01*
X002714Y022817D01*
X002762Y022816D01*
X002810Y022811D01*
X002858Y022802D01*
X002904Y022790D01*
X002949Y022773D01*
X002993Y022753D01*
X003035Y022730D01*
X003075Y022703D01*
X003113Y022673D01*
X003148Y022640D01*
X003180Y022604D01*
X003210Y022566D01*
X003236Y022525D01*
X003258Y022482D01*
X003278Y022438D01*
X003293Y022393D01*
X003305Y022346D01*
X003313Y022298D01*
X003317Y022250D01*
X003317Y022202D01*
X003313Y022154D01*
X003305Y022106D01*
X003293Y022059D01*
X003278Y022014D01*
X003258Y021970D01*
X003236Y021927D01*
X003210Y021886D01*
X003180Y021848D01*
X003148Y021812D01*
X003113Y021779D01*
X003075Y021749D01*
X003035Y021722D01*
X002993Y021699D01*
X002949Y021679D01*
X002904Y021662D01*
X002858Y021650D01*
X002810Y021641D01*
X002762Y021636D01*
X002714Y021635D01*
X002666Y021638D01*
X002618Y021645D01*
X002571Y021656D01*
X002525Y021670D01*
X002480Y021688D01*
X002437Y021710D01*
X002396Y021735D01*
X002358Y021764D01*
X002321Y021796D01*
X002287Y021830D01*
X002257Y021867D01*
X002229Y021906D01*
X002204Y021948D01*
X002184Y021992D01*
X002166Y022037D01*
X002153Y022083D01*
X002143Y022130D01*
X002137Y022178D01*
X002135Y022226D01*
X000726Y022226D02*
X000728Y022321D01*
X000735Y022416D01*
X000746Y022511D01*
X000762Y022605D01*
X000782Y022698D01*
X000807Y022789D01*
X000836Y022880D01*
X000869Y022969D01*
X000907Y023057D01*
X000948Y023142D01*
X000994Y023226D01*
X001043Y023307D01*
X001097Y023386D01*
X001154Y023462D01*
X001215Y023536D01*
X001279Y023606D01*
X001346Y023673D01*
X001416Y023737D01*
X001490Y023798D01*
X001566Y023855D01*
X001645Y023909D01*
X001726Y023958D01*
X001810Y024004D01*
X001895Y024045D01*
X001983Y024083D01*
X002072Y024116D01*
X002163Y024145D01*
X002254Y024170D01*
X002347Y024190D01*
X002441Y024206D01*
X002536Y024217D01*
X002631Y024224D01*
X002726Y024226D01*
X000726Y022226D02*
X000726Y002726D01*
X002135Y002726D02*
X002137Y002774D01*
X002143Y002822D01*
X002153Y002869D01*
X002166Y002915D01*
X002184Y002960D01*
X002204Y003004D01*
X002229Y003046D01*
X002257Y003085D01*
X002287Y003122D01*
X002321Y003156D01*
X002358Y003188D01*
X002396Y003217D01*
X002437Y003242D01*
X002480Y003264D01*
X002525Y003282D01*
X002571Y003296D01*
X002618Y003307D01*
X002666Y003314D01*
X002714Y003317D01*
X002762Y003316D01*
X002810Y003311D01*
X002858Y003302D01*
X002904Y003290D01*
X002949Y003273D01*
X002993Y003253D01*
X003035Y003230D01*
X003075Y003203D01*
X003113Y003173D01*
X003148Y003140D01*
X003180Y003104D01*
X003210Y003066D01*
X003236Y003025D01*
X003258Y002982D01*
X003278Y002938D01*
X003293Y002893D01*
X003305Y002846D01*
X003313Y002798D01*
X003317Y002750D01*
X003317Y002702D01*
X003313Y002654D01*
X003305Y002606D01*
X003293Y002559D01*
X003278Y002514D01*
X003258Y002470D01*
X003236Y002427D01*
X003210Y002386D01*
X003180Y002348D01*
X003148Y002312D01*
X003113Y002279D01*
X003075Y002249D01*
X003035Y002222D01*
X002993Y002199D01*
X002949Y002179D01*
X002904Y002162D01*
X002858Y002150D01*
X002810Y002141D01*
X002762Y002136D01*
X002714Y002135D01*
X002666Y002138D01*
X002618Y002145D01*
X002571Y002156D01*
X002525Y002170D01*
X002480Y002188D01*
X002437Y002210D01*
X002396Y002235D01*
X002358Y002264D01*
X002321Y002296D01*
X002287Y002330D01*
X002257Y002367D01*
X002229Y002406D01*
X002204Y002448D01*
X002184Y002492D01*
X002166Y002537D01*
X002153Y002583D01*
X002143Y002630D01*
X002137Y002678D01*
X002135Y002726D01*
X000726Y002726D02*
X000728Y002631D01*
X000735Y002536D01*
X000746Y002441D01*
X000762Y002347D01*
X000782Y002254D01*
X000807Y002163D01*
X000836Y002072D01*
X000869Y001983D01*
X000907Y001895D01*
X000948Y001810D01*
X000994Y001726D01*
X001043Y001645D01*
X001097Y001566D01*
X001154Y001490D01*
X001215Y001416D01*
X001279Y001346D01*
X001346Y001279D01*
X001416Y001215D01*
X001490Y001154D01*
X001566Y001097D01*
X001645Y001043D01*
X001726Y000994D01*
X001810Y000948D01*
X001895Y000907D01*
X001983Y000869D01*
X002072Y000836D01*
X002163Y000807D01*
X002254Y000782D01*
X002347Y000762D01*
X002441Y000746D01*
X002536Y000735D01*
X002631Y000728D01*
X002726Y000726D01*
D11*
X009682Y014682D03*
X009682Y017686D03*
X021119Y017686D03*
X021119Y014682D03*
X032619Y014682D03*
X032619Y017686D03*
D12*
X025627Y013682D03*
X014127Y013682D03*
X002690Y013682D03*
D13*
X004186Y008682D03*
X008186Y008682D03*
X015623Y008682D03*
X019623Y008682D03*
X027123Y008682D03*
X031123Y008682D03*
D14*
X029726Y021976D03*
X027726Y021976D03*
X018226Y021976D03*
X016226Y021976D03*
X008726Y021976D03*
X006726Y021976D03*
D15*
X013226Y001726D03*
X014226Y001726D03*
X015226Y001726D03*
X016226Y001726D03*
X017226Y001726D03*
X018226Y001726D03*
X020226Y001726D03*
X021226Y001726D03*
X022226Y001726D03*
X023226Y001726D03*
X024226Y001726D03*
D16*
X020100Y004832D03*
X019352Y004832D03*
X019726Y005659D03*
X030852Y004832D03*
X031600Y004832D03*
X031226Y005659D03*
X008600Y004832D03*
X007852Y004832D03*
X008226Y005659D03*
D17*
X008600Y003726D03*
X007852Y003726D03*
X006975Y003726D03*
X006227Y003726D03*
X019352Y003976D03*
X020100Y003976D03*
X029352Y003726D03*
X030100Y003726D03*
X030100Y004726D03*
X029352Y004726D03*
D18*
X024226Y005352D03*
X024226Y006100D03*
X023226Y006100D03*
X022226Y006100D03*
X022226Y005352D03*
X023226Y005352D03*
X018226Y004725D03*
X018226Y003977D03*
D19*
X022226Y004389D03*
X023226Y004389D03*
X024226Y004389D03*
X024226Y003562D03*
X023226Y003562D03*
X022226Y003562D03*
D20*
X018678Y005476D03*
X017773Y005476D03*
X007178Y005476D03*
X006273Y005476D03*
X029273Y005726D03*
X030178Y005726D03*
D21*
X030726Y005726D01*
X030793Y005659D01*
X031226Y005659D01*
X031793Y005659D01*
X032226Y005226D01*
X030852Y004832D02*
X030206Y004832D01*
X029226Y005726D02*
X028976Y005476D01*
X028476Y005476D01*
X029226Y005726D02*
X029273Y005726D01*
X020226Y006726D02*
X019726Y006226D01*
X019726Y005659D01*
X019284Y005659D01*
X019101Y005476D01*
X018678Y005476D01*
X017773Y005476D02*
X017476Y005476D01*
X017226Y005226D01*
X019352Y004832D02*
X019352Y003976D01*
X009226Y005226D02*
X008793Y005659D01*
X008226Y005659D01*
X007784Y005659D01*
X007601Y005476D01*
X007178Y005476D01*
X006273Y005476D02*
X006273Y005148D01*
X006226Y005101D01*
X006226Y004726D01*
X006975Y003726D02*
X007852Y003726D01*
X007852Y004832D01*
D22*
X009226Y005226D03*
X006226Y004726D03*
X017226Y005226D03*
X020226Y006726D03*
X021476Y003726D03*
X028476Y005476D03*
X032226Y005226D03*
D23*
X032226Y006226D01*
X031123Y007328D01*
X031123Y008682D01*
X031523Y008227D02*
X031636Y008340D01*
X031728Y008562D01*
X031728Y008803D01*
X031636Y009025D01*
X031466Y009195D01*
X031244Y009287D01*
X031003Y009287D01*
X030781Y009195D01*
X030611Y009025D01*
X030519Y008803D01*
X030519Y008562D01*
X030611Y008340D01*
X030723Y008227D01*
X030723Y007408D01*
X030723Y007248D01*
X030784Y007101D01*
X031826Y006060D01*
X031826Y006019D01*
X031721Y006019D01*
X031596Y006019D01*
X031542Y006073D01*
X031439Y006116D01*
X031012Y006116D01*
X030910Y006073D01*
X030885Y006049D01*
X030797Y006086D01*
X030654Y006086D01*
X030502Y006086D01*
X030461Y006126D01*
X030358Y006169D01*
X029999Y006169D01*
X029896Y006126D01*
X029817Y006048D01*
X029774Y005945D01*
X029774Y005507D01*
X029817Y005404D01*
X029896Y005325D01*
X029906Y005321D01*
X029788Y005321D01*
X029726Y005295D01*
X029663Y005321D01*
X029545Y005321D01*
X029556Y005325D01*
X029634Y005404D01*
X029677Y005507D01*
X029677Y005945D01*
X029634Y006048D01*
X029556Y006126D01*
X029453Y006169D01*
X029093Y006169D01*
X028990Y006126D01*
X028912Y006048D01*
X028869Y005945D01*
X028869Y005878D01*
X028827Y005836D01*
X028792Y005836D01*
X028747Y005881D01*
X028571Y005954D01*
X028563Y005954D01*
X027523Y006994D01*
X027523Y008227D01*
X027636Y008340D01*
X027728Y008562D01*
X027728Y008803D01*
X027636Y009025D01*
X027466Y009195D01*
X027244Y009287D01*
X027003Y009287D01*
X026781Y009195D01*
X026611Y009025D01*
X026519Y008803D01*
X026519Y008562D01*
X026611Y008340D01*
X026723Y008227D01*
X026723Y006908D01*
X026723Y006748D01*
X026784Y006601D01*
X027997Y005388D01*
X027997Y005380D01*
X028070Y005205D01*
X028149Y005126D01*
X028146Y005126D01*
X027999Y005065D01*
X027887Y004952D01*
X025060Y002126D01*
X024759Y002126D01*
X024626Y002259D01*
X024626Y003094D01*
X024699Y003167D01*
X024742Y003270D01*
X024742Y003854D01*
X024699Y003957D01*
X024681Y003976D01*
X024699Y003994D01*
X024742Y004097D01*
X024742Y004681D01*
X024699Y004784D01*
X024646Y004837D01*
X024699Y004858D01*
X024778Y004937D01*
X024821Y005040D01*
X024821Y005663D01*
X024778Y005766D01*
X024738Y005806D01*
X024741Y005817D01*
X024741Y006092D01*
X024234Y006092D01*
X024234Y006108D01*
X024741Y006108D01*
X024741Y006382D01*
X024727Y006433D01*
X024701Y006478D01*
X024663Y006516D01*
X024618Y006542D01*
X024567Y006556D01*
X024234Y006556D01*
X024234Y006108D01*
X024218Y006108D01*
X024218Y006556D01*
X023884Y006556D01*
X023834Y006542D01*
X023788Y006516D01*
X023751Y006478D01*
X023726Y006435D01*
X023701Y006478D01*
X023663Y006516D01*
X023618Y006542D01*
X023567Y006556D01*
X023234Y006556D01*
X023234Y006108D01*
X023711Y006108D01*
X024217Y006108D01*
X024217Y006092D01*
X023711Y006092D01*
X023234Y006092D01*
X023234Y006108D01*
X023218Y006108D01*
X023218Y006556D01*
X022884Y006556D01*
X022834Y006542D01*
X022788Y006516D01*
X022751Y006478D01*
X022726Y006435D01*
X022701Y006478D01*
X022663Y006516D01*
X022618Y006542D01*
X022567Y006556D01*
X022234Y006556D01*
X022234Y006108D01*
X022741Y006108D01*
X023217Y006108D01*
X023217Y006092D01*
X022711Y006092D01*
X022234Y006092D01*
X022234Y006108D01*
X022218Y006108D01*
X022218Y006556D01*
X021884Y006556D01*
X021834Y006542D01*
X021788Y006516D01*
X021751Y006478D01*
X021724Y006433D01*
X021711Y006382D01*
X021711Y006108D01*
X022217Y006108D01*
X022217Y006092D01*
X021711Y006092D01*
X021711Y005817D01*
X021714Y005806D01*
X021673Y005766D01*
X021631Y005663D01*
X021631Y005040D01*
X021673Y004937D01*
X021752Y004858D01*
X021805Y004837D01*
X021752Y004784D01*
X021709Y004681D01*
X021709Y004147D01*
X021571Y004204D01*
X021563Y004204D01*
X021452Y004315D01*
X021305Y004376D01*
X021146Y004376D01*
X020623Y004376D01*
X020593Y004449D01*
X020514Y004528D01*
X020434Y004561D01*
X020444Y004578D01*
X020457Y004628D01*
X020457Y004832D01*
X020457Y005035D01*
X020444Y005086D01*
X020417Y005132D01*
X020380Y005169D01*
X020334Y005195D01*
X020284Y005209D01*
X020100Y005209D01*
X020100Y004832D01*
X020457Y004832D01*
X020100Y004832D01*
X020100Y004832D01*
X020099Y004832D01*
X020099Y005209D01*
X019957Y005209D01*
X020042Y005244D01*
X020120Y005323D01*
X020163Y005426D01*
X020163Y005892D01*
X020120Y005994D01*
X020086Y006029D01*
X020086Y006077D01*
X020256Y006247D01*
X020321Y006247D01*
X020497Y006320D01*
X020631Y006455D01*
X020704Y006630D01*
X020704Y006821D01*
X020631Y006997D01*
X020626Y007002D01*
X020626Y007305D01*
X020565Y007452D01*
X020452Y007565D01*
X020023Y007994D01*
X020023Y008227D01*
X020136Y008340D01*
X020228Y008562D01*
X020228Y008803D01*
X020136Y009025D01*
X019966Y009195D01*
X019744Y009287D01*
X019503Y009287D01*
X019281Y009195D01*
X019111Y009025D01*
X019019Y008803D01*
X019019Y008562D01*
X019111Y008340D01*
X019223Y008227D01*
X019223Y007908D01*
X019223Y007748D01*
X019284Y007601D01*
X019826Y007060D01*
X019826Y007002D01*
X019820Y006997D01*
X019747Y006821D01*
X019747Y006756D01*
X019420Y006430D01*
X019366Y006297D01*
X019366Y006154D01*
X019366Y006029D01*
X019355Y006019D01*
X019212Y006019D01*
X019080Y005964D01*
X018977Y005861D01*
X018961Y005876D01*
X018858Y005919D01*
X018499Y005919D01*
X018396Y005876D01*
X018317Y005798D01*
X018274Y005695D01*
X018274Y005257D01*
X018306Y005181D01*
X018234Y005181D01*
X018234Y004733D01*
X018741Y004733D01*
X018741Y005007D01*
X018734Y005032D01*
X018858Y005032D01*
X018914Y005056D01*
X018914Y004599D01*
X018943Y004530D01*
X018937Y004528D01*
X018858Y004449D01*
X018828Y004377D01*
X018784Y004377D01*
X018778Y004391D01*
X018738Y004431D01*
X018741Y004442D01*
X018741Y004717D01*
X018234Y004717D01*
X018234Y004733D01*
X018218Y004733D01*
X018218Y005181D01*
X018145Y005181D01*
X018177Y005257D01*
X018177Y005695D01*
X018134Y005798D01*
X018056Y005876D01*
X017953Y005919D01*
X017593Y005919D01*
X017490Y005876D01*
X017450Y005836D01*
X017404Y005836D01*
X017272Y005781D01*
X017254Y005763D01*
X016023Y006994D01*
X016023Y008227D01*
X016136Y008340D01*
X016228Y008562D01*
X016228Y008803D01*
X016136Y009025D01*
X015966Y009195D01*
X015744Y009287D01*
X015503Y009287D01*
X015281Y009195D01*
X015111Y009025D01*
X015019Y008803D01*
X015019Y008562D01*
X015111Y008340D01*
X015223Y008227D01*
X015223Y006908D01*
X015223Y006748D01*
X015284Y006601D01*
X016747Y005138D01*
X016747Y005130D01*
X016820Y004955D01*
X016955Y004820D01*
X017130Y004747D01*
X017321Y004747D01*
X017497Y004820D01*
X017631Y004955D01*
X017663Y005032D01*
X017718Y005032D01*
X017711Y005007D01*
X017711Y004733D01*
X018217Y004733D01*
X018217Y004717D01*
X017711Y004717D01*
X017711Y004442D01*
X017714Y004431D01*
X017673Y004391D01*
X017631Y004288D01*
X017631Y003751D01*
X017266Y003751D01*
X016952Y004065D01*
X016805Y004126D01*
X016646Y004126D01*
X009123Y004126D01*
X009093Y004199D01*
X009014Y004278D01*
X008911Y004321D01*
X008288Y004321D01*
X008226Y004295D01*
X008212Y004301D01*
X008212Y004461D01*
X008246Y004496D01*
X008270Y004553D01*
X008282Y004532D01*
X008319Y004495D01*
X008365Y004468D01*
X008416Y004455D01*
X008599Y004455D01*
X008599Y004832D01*
X008600Y004832D01*
X008600Y004455D01*
X008784Y004455D01*
X008834Y004468D01*
X008880Y004495D01*
X008917Y004532D01*
X008944Y004578D01*
X008957Y004628D01*
X008957Y004819D01*
X009130Y004747D01*
X009321Y004747D01*
X009497Y004820D01*
X009631Y004955D01*
X009704Y005130D01*
X009704Y005321D01*
X009631Y005497D01*
X009626Y005502D01*
X009626Y006805D01*
X009565Y006952D01*
X009452Y007065D01*
X008586Y007931D01*
X008586Y008227D01*
X008699Y008340D01*
X008791Y008562D01*
X008791Y008803D01*
X008699Y009025D01*
X008528Y009195D01*
X008306Y009287D01*
X008066Y009287D01*
X007843Y009195D01*
X007673Y009025D01*
X007581Y008803D01*
X007581Y008562D01*
X007673Y008340D01*
X007786Y008227D01*
X007786Y007845D01*
X007786Y007686D01*
X007847Y007539D01*
X008826Y006560D01*
X008826Y006019D01*
X008721Y006019D01*
X008596Y006019D01*
X008542Y006073D01*
X008439Y006116D01*
X008012Y006116D01*
X007910Y006073D01*
X007855Y006019D01*
X007712Y006019D01*
X007580Y005964D01*
X007477Y005861D01*
X007461Y005876D01*
X007358Y005919D01*
X006999Y005919D01*
X006896Y005876D01*
X006817Y005798D01*
X006774Y005695D01*
X006774Y005257D01*
X006817Y005154D01*
X006896Y005075D01*
X006999Y005032D01*
X007358Y005032D01*
X007414Y005056D01*
X007414Y004599D01*
X007457Y004496D01*
X007492Y004461D01*
X007492Y004301D01*
X007437Y004278D01*
X007413Y004254D01*
X007389Y004278D01*
X007286Y004321D01*
X006663Y004321D01*
X006560Y004278D01*
X006520Y004238D01*
X006509Y004241D01*
X006235Y004241D01*
X006235Y003734D01*
X006219Y003734D01*
X006219Y004241D01*
X005944Y004241D01*
X005894Y004227D01*
X005848Y004201D01*
X005811Y004163D01*
X005784Y004118D01*
X005771Y004067D01*
X005771Y003734D01*
X006218Y003734D01*
X006218Y003718D01*
X005771Y003718D01*
X005771Y003384D01*
X005784Y003334D01*
X005811Y003288D01*
X005848Y003251D01*
X005894Y003224D01*
X005944Y003211D01*
X006219Y003211D01*
X006219Y003717D01*
X006235Y003717D01*
X006235Y003211D01*
X006509Y003211D01*
X006520Y003214D01*
X006560Y003173D01*
X006663Y003131D01*
X007286Y003131D01*
X007389Y003173D01*
X007413Y003197D01*
X007437Y003173D01*
X007540Y003131D01*
X008163Y003131D01*
X008226Y003157D01*
X008288Y003131D01*
X008911Y003131D01*
X009014Y003173D01*
X009093Y003252D01*
X009123Y003326D01*
X016560Y003326D01*
X016762Y003124D01*
X016874Y003012D01*
X017021Y002951D01*
X019435Y002951D01*
X019550Y002836D01*
X019550Y002836D01*
X019662Y002723D01*
X019809Y002662D01*
X021646Y002662D01*
X021805Y002662D01*
X021826Y002671D01*
X021826Y002259D01*
X021669Y002102D01*
X021668Y002104D01*
X021604Y002168D01*
X021530Y002222D01*
X021448Y002263D01*
X021361Y002291D01*
X021271Y002306D01*
X021226Y002306D01*
X021226Y001726D01*
X021225Y001726D01*
X021225Y002306D01*
X021180Y002306D01*
X021090Y002291D01*
X021003Y002263D01*
X020922Y002222D01*
X020848Y002168D01*
X020783Y002104D01*
X020782Y002102D01*
X020599Y002285D01*
X020357Y002386D01*
X020094Y002386D01*
X019852Y002285D01*
X019692Y002126D01*
X019641Y002126D01*
X019065Y002702D01*
X018952Y002815D01*
X018805Y002876D01*
X018055Y002876D01*
X017896Y002876D01*
X017749Y002815D01*
X017320Y002386D01*
X017131Y002386D01*
X016702Y002815D01*
X016555Y002876D01*
X016396Y002876D01*
X015896Y002876D01*
X015749Y002815D01*
X015637Y002702D01*
X015320Y002386D01*
X015131Y002386D01*
X014702Y002815D01*
X014555Y002876D01*
X014396Y002876D01*
X013896Y002876D01*
X013749Y002815D01*
X013637Y002702D01*
X013320Y002386D01*
X013094Y002386D01*
X012852Y002285D01*
X012666Y002099D01*
X012566Y001857D01*
X012566Y001594D01*
X012666Y001352D01*
X012852Y001166D01*
X013094Y001066D01*
X013357Y001066D01*
X013599Y001166D01*
X013726Y001292D01*
X013852Y001166D01*
X014094Y001066D01*
X014357Y001066D01*
X014599Y001166D01*
X014726Y001292D01*
X014852Y001166D01*
X015094Y001066D01*
X015357Y001066D01*
X015599Y001166D01*
X015726Y001292D01*
X015852Y001166D01*
X016094Y001066D01*
X016357Y001066D01*
X016599Y001166D01*
X016726Y001292D01*
X016852Y001166D01*
X017094Y001066D01*
X017357Y001066D01*
X017599Y001166D01*
X017726Y001292D01*
X017852Y001166D01*
X018094Y001066D01*
X018357Y001066D01*
X018599Y001166D01*
X018785Y001352D01*
X018886Y001594D01*
X018886Y001750D01*
X019249Y001387D01*
X019396Y001326D01*
X019555Y001326D01*
X019692Y001326D01*
X019852Y001166D01*
X020094Y001066D01*
X020357Y001066D01*
X020599Y001166D01*
X020782Y001349D01*
X020783Y001348D01*
X020848Y001283D01*
X020922Y001230D01*
X021003Y001188D01*
X021090Y001160D01*
X021180Y001146D01*
X021225Y001146D01*
X021225Y001725D01*
X021226Y001725D01*
X021226Y001146D01*
X021271Y001146D01*
X021361Y001160D01*
X021448Y001188D01*
X021530Y001230D01*
X021604Y001283D01*
X021668Y001348D01*
X021669Y001349D01*
X021852Y001166D01*
X022094Y001066D01*
X022357Y001066D01*
X022599Y001166D01*
X022726Y001292D01*
X022852Y001166D01*
X023094Y001066D01*
X023357Y001066D01*
X023599Y001166D01*
X023726Y001292D01*
X023852Y001166D01*
X024094Y001066D01*
X024357Y001066D01*
X024599Y001166D01*
X024759Y001326D01*
X025146Y001326D01*
X025305Y001326D01*
X025452Y001387D01*
X028391Y004326D01*
X028828Y004326D01*
X028858Y004252D01*
X028937Y004173D01*
X028943Y004171D01*
X028936Y004163D01*
X028909Y004118D01*
X028896Y004067D01*
X028896Y003734D01*
X029343Y003734D01*
X029343Y003718D01*
X028896Y003718D01*
X028896Y003384D01*
X028909Y003334D01*
X028936Y003288D01*
X028973Y003251D01*
X029019Y003224D01*
X029069Y003211D01*
X029344Y003211D01*
X029344Y003717D01*
X029360Y003717D01*
X029360Y003211D01*
X029634Y003211D01*
X029645Y003214D01*
X029685Y003173D01*
X029788Y003131D01*
X030411Y003131D01*
X030514Y003173D01*
X030593Y003252D01*
X030636Y003355D01*
X030636Y004096D01*
X030593Y004199D01*
X030566Y004226D01*
X030593Y004252D01*
X030636Y004355D01*
X030636Y004376D01*
X030638Y004375D01*
X031065Y004375D01*
X031168Y004417D01*
X031246Y004496D01*
X031270Y004553D01*
X031282Y004532D01*
X031319Y004495D01*
X031365Y004468D01*
X031416Y004455D01*
X031599Y004455D01*
X031599Y004832D01*
X031600Y004832D01*
X031600Y004455D01*
X031784Y004455D01*
X031834Y004468D01*
X031880Y004495D01*
X031917Y004532D01*
X031944Y004578D01*
X031957Y004628D01*
X031957Y004819D01*
X032130Y004747D01*
X032321Y004747D01*
X032497Y004820D01*
X032631Y004955D01*
X032704Y005130D01*
X032704Y005321D01*
X032631Y005497D01*
X032626Y005502D01*
X032626Y006305D01*
X032565Y006452D01*
X032452Y006565D01*
X031523Y007494D01*
X031523Y008227D01*
X031523Y008121D02*
X035406Y008121D01*
X035406Y008359D02*
X031644Y008359D01*
X031728Y008598D02*
X035406Y008598D01*
X035406Y008836D02*
X031714Y008836D01*
X031586Y009075D02*
X035406Y009075D01*
X035406Y009313D02*
X001046Y009313D01*
X001046Y009075D02*
X003723Y009075D01*
X003673Y009025D02*
X003581Y008803D01*
X003581Y008562D01*
X003673Y008340D01*
X003786Y008227D01*
X003786Y006845D01*
X003786Y006686D01*
X003847Y006539D01*
X005747Y004638D01*
X005747Y004630D01*
X005820Y004455D01*
X005955Y004320D01*
X006130Y004247D01*
X006321Y004247D01*
X006497Y004320D01*
X006631Y004455D01*
X006704Y004630D01*
X006704Y004821D01*
X006631Y004997D01*
X006609Y005019D01*
X006633Y005076D01*
X006633Y005152D01*
X006634Y005154D01*
X006677Y005257D01*
X006677Y005695D01*
X006634Y005798D01*
X006556Y005876D01*
X006453Y005919D01*
X006093Y005919D01*
X005990Y005876D01*
X005912Y005798D01*
X005869Y005695D01*
X005869Y005648D01*
X004586Y006931D01*
X004586Y008227D01*
X004699Y008340D01*
X004791Y008562D01*
X004791Y008803D01*
X004699Y009025D01*
X004528Y009195D01*
X004306Y009287D01*
X004066Y009287D01*
X003843Y009195D01*
X003673Y009025D01*
X003595Y008836D02*
X001046Y008836D01*
X001046Y008598D02*
X003581Y008598D01*
X003665Y008359D02*
X001046Y008359D01*
X001046Y008121D02*
X003786Y008121D01*
X003786Y007882D02*
X001046Y007882D01*
X001046Y007643D02*
X003786Y007643D01*
X003786Y007405D02*
X001046Y007405D01*
X001046Y007166D02*
X003786Y007166D01*
X003786Y006928D02*
X001046Y006928D01*
X001046Y006689D02*
X003786Y006689D01*
X003935Y006451D02*
X001046Y006451D01*
X001046Y006212D02*
X004173Y006212D01*
X004412Y005974D02*
X001046Y005974D01*
X001046Y005735D02*
X004651Y005735D01*
X004889Y005497D02*
X001046Y005497D01*
X001046Y005258D02*
X005128Y005258D01*
X005366Y005019D02*
X001046Y005019D01*
X001046Y004781D02*
X005605Y004781D01*
X005784Y004542D02*
X003144Y004542D01*
X002993Y004586D02*
X002993Y004586D01*
X002458Y004586D01*
X001945Y004436D01*
X001945Y004436D01*
X001495Y004146D01*
X001144Y003742D01*
X001046Y003526D01*
X001046Y009726D01*
X035406Y009726D01*
X035406Y003526D01*
X035307Y003742D01*
X034957Y004146D01*
X034507Y004436D01*
X034507Y004436D01*
X033993Y004586D01*
X033458Y004586D01*
X032945Y004436D01*
X032945Y004436D01*
X032495Y004146D01*
X032144Y003742D01*
X031922Y003255D01*
X031846Y002726D01*
X031846Y002726D01*
X031922Y002196D01*
X032144Y001709D01*
X032495Y001305D01*
X032898Y001046D01*
X003553Y001046D01*
X003957Y001305D01*
X004307Y001709D01*
X004529Y002196D01*
X004529Y002196D01*
X004606Y002726D01*
X004529Y003255D01*
X004529Y003255D01*
X004307Y003742D01*
X003957Y004146D01*
X003507Y004436D01*
X003507Y004436D01*
X002993Y004586D01*
X002458Y004586D02*
X002458Y004586D01*
X002308Y004542D02*
X001046Y004542D01*
X001046Y004304D02*
X001739Y004304D01*
X001495Y004146D02*
X001495Y004146D01*
X001495Y004146D01*
X001424Y004065D02*
X001046Y004065D01*
X001046Y003827D02*
X001218Y003827D01*
X001144Y003742D02*
X001144Y003742D01*
X001074Y003588D02*
X001046Y003588D01*
X003712Y004304D02*
X005994Y004304D01*
X005771Y004065D02*
X004027Y004065D01*
X003957Y004146D02*
X003957Y004146D01*
X004234Y003827D02*
X005771Y003827D01*
X005771Y003588D02*
X004377Y003588D01*
X004307Y003742D02*
X004307Y003742D01*
X004486Y003350D02*
X005780Y003350D01*
X006219Y003350D02*
X006235Y003350D01*
X006219Y003588D02*
X006235Y003588D01*
X006219Y003827D02*
X006235Y003827D01*
X006219Y004065D02*
X006235Y004065D01*
X006457Y004304D02*
X006623Y004304D01*
X006668Y004542D02*
X007438Y004542D01*
X007414Y004781D02*
X006704Y004781D01*
X006609Y005019D02*
X007414Y005019D01*
X006774Y005258D02*
X006677Y005258D01*
X006677Y005497D02*
X006774Y005497D01*
X006791Y005735D02*
X006660Y005735D01*
X005886Y005735D02*
X005782Y005735D01*
X005543Y005974D02*
X007603Y005974D01*
X008696Y006689D02*
X004828Y006689D01*
X005066Y006451D02*
X008826Y006451D01*
X008826Y006212D02*
X005305Y006212D01*
X004589Y006928D02*
X008458Y006928D01*
X008219Y007166D02*
X004586Y007166D01*
X004586Y007405D02*
X007981Y007405D01*
X007803Y007643D02*
X004586Y007643D01*
X004586Y007882D02*
X007786Y007882D01*
X007786Y008121D02*
X004586Y008121D01*
X004706Y008359D02*
X007665Y008359D01*
X007581Y008598D02*
X004791Y008598D01*
X004777Y008836D02*
X007595Y008836D01*
X007723Y009075D02*
X004649Y009075D01*
X004186Y008682D02*
X004186Y006766D01*
X006226Y004726D01*
X007327Y004304D02*
X007492Y004304D01*
X008212Y004304D02*
X008248Y004304D01*
X008266Y004542D02*
X008276Y004542D01*
X008599Y004542D02*
X008600Y004542D01*
X008599Y004781D02*
X008600Y004781D01*
X008957Y004781D02*
X009049Y004781D01*
X008923Y004542D02*
X017711Y004542D01*
X017711Y004781D02*
X017402Y004781D01*
X017658Y005019D02*
X017714Y005019D01*
X018218Y005019D02*
X018234Y005019D01*
X018218Y004781D02*
X018234Y004781D01*
X018741Y004781D02*
X018914Y004781D01*
X018914Y005019D02*
X018737Y005019D01*
X018274Y005258D02*
X018177Y005258D01*
X018177Y005497D02*
X018274Y005497D01*
X018291Y005735D02*
X018160Y005735D01*
X017226Y005226D02*
X015623Y006828D01*
X015623Y008682D01*
X015019Y008598D02*
X008791Y008598D01*
X008777Y008836D02*
X015032Y008836D01*
X015160Y009075D02*
X008649Y009075D01*
X008186Y008682D02*
X008186Y007766D01*
X009226Y006726D01*
X009226Y005226D01*
X009658Y005019D02*
X016793Y005019D01*
X016628Y005258D02*
X009704Y005258D01*
X009631Y005497D02*
X016389Y005497D01*
X016151Y005735D02*
X009626Y005735D01*
X009626Y005974D02*
X015912Y005974D01*
X015673Y006212D02*
X009626Y006212D01*
X009626Y006451D02*
X015435Y006451D01*
X015248Y006689D02*
X009626Y006689D01*
X009575Y006928D02*
X015223Y006928D01*
X015223Y007166D02*
X009351Y007166D01*
X009452Y007065D02*
X009452Y007065D01*
X009112Y007405D02*
X015223Y007405D01*
X015223Y007643D02*
X008874Y007643D01*
X008635Y007882D02*
X015223Y007882D01*
X015223Y008121D02*
X008586Y008121D01*
X008706Y008359D02*
X015103Y008359D01*
X016023Y008121D02*
X019223Y008121D01*
X019223Y007882D02*
X016023Y007882D01*
X016023Y007643D02*
X019267Y007643D01*
X019481Y007405D02*
X016023Y007405D01*
X016023Y007166D02*
X019719Y007166D01*
X019792Y006928D02*
X016089Y006928D01*
X016328Y006689D02*
X019680Y006689D01*
X019442Y006451D02*
X016566Y006451D01*
X016805Y006212D02*
X019366Y006212D01*
X019103Y005974D02*
X017043Y005974D01*
X017049Y004781D02*
X009402Y004781D01*
X008952Y004304D02*
X017637Y004304D01*
X017631Y004065D02*
X016951Y004065D01*
X017190Y003827D02*
X017631Y003827D01*
X018226Y003977D02*
X019351Y003977D01*
X019352Y003976D01*
X018938Y004542D02*
X018741Y004542D01*
X020099Y005019D02*
X020100Y005019D01*
X020056Y005258D02*
X021631Y005258D01*
X021631Y005497D02*
X020163Y005497D01*
X020163Y005735D02*
X021661Y005735D01*
X021711Y005974D02*
X020129Y005974D01*
X020221Y006212D02*
X021711Y006212D01*
X021735Y006451D02*
X020627Y006451D01*
X020704Y006689D02*
X026748Y006689D01*
X026723Y006928D02*
X020660Y006928D01*
X020626Y007166D02*
X026723Y007166D01*
X026723Y007405D02*
X020584Y007405D01*
X020374Y007643D02*
X026723Y007643D01*
X026723Y007882D02*
X020135Y007882D01*
X020023Y008121D02*
X026723Y008121D01*
X026603Y008359D02*
X020144Y008359D01*
X020228Y008598D02*
X026519Y008598D01*
X026532Y008836D02*
X020214Y008836D01*
X020086Y009075D02*
X026660Y009075D01*
X027123Y008682D02*
X027123Y006828D01*
X028476Y005476D01*
X028048Y005258D02*
X024821Y005258D01*
X024821Y005497D02*
X027889Y005497D01*
X027651Y005735D02*
X024791Y005735D01*
X024741Y005974D02*
X027412Y005974D01*
X027173Y006212D02*
X024741Y006212D01*
X024717Y006451D02*
X026935Y006451D01*
X027589Y006928D02*
X030958Y006928D01*
X030757Y007166D02*
X027523Y007166D01*
X027523Y007405D02*
X030723Y007405D01*
X030723Y007643D02*
X027523Y007643D01*
X027523Y007882D02*
X030723Y007882D01*
X030723Y008121D02*
X027523Y008121D01*
X027644Y008359D02*
X030603Y008359D01*
X030519Y008598D02*
X027728Y008598D01*
X027714Y008836D02*
X030532Y008836D01*
X030660Y009075D02*
X027586Y009075D01*
X027828Y006689D02*
X031196Y006689D01*
X031435Y006451D02*
X028066Y006451D01*
X028305Y006212D02*
X031673Y006212D01*
X032328Y006689D02*
X035406Y006689D01*
X035406Y006451D02*
X032565Y006451D01*
X032626Y006212D02*
X035406Y006212D01*
X035406Y005974D02*
X032626Y005974D01*
X032626Y005735D02*
X035406Y005735D01*
X035406Y005497D02*
X032631Y005497D01*
X032704Y005258D02*
X035406Y005258D01*
X035406Y005019D02*
X032658Y005019D01*
X032402Y004781D02*
X035406Y004781D01*
X035406Y004542D02*
X034144Y004542D01*
X033993Y004586D02*
X033993Y004586D01*
X033458Y004586D02*
X033458Y004586D01*
X033308Y004542D02*
X031923Y004542D01*
X031957Y004781D02*
X032049Y004781D01*
X031600Y004781D02*
X031599Y004781D01*
X031599Y004542D02*
X031600Y004542D01*
X031276Y004542D02*
X031266Y004542D01*
X030614Y004304D02*
X032739Y004304D01*
X032495Y004146D02*
X032495Y004146D01*
X032495Y004146D01*
X032424Y004065D02*
X030636Y004065D01*
X030636Y003827D02*
X032218Y003827D01*
X032144Y003742D02*
X032144Y003742D01*
X032074Y003588D02*
X030636Y003588D01*
X030633Y003350D02*
X031965Y003350D01*
X031922Y003255D02*
X031922Y003255D01*
X031901Y003111D02*
X027177Y003111D01*
X027415Y003350D02*
X028905Y003350D01*
X028896Y003588D02*
X027654Y003588D01*
X027892Y003827D02*
X028896Y003827D01*
X028896Y004065D02*
X028131Y004065D01*
X028369Y004304D02*
X028837Y004304D01*
X029352Y004726D02*
X028226Y004726D01*
X025226Y001726D01*
X024226Y001726D01*
X024226Y003562D01*
X024742Y003588D02*
X026523Y003588D01*
X026761Y003827D02*
X024742Y003827D01*
X024729Y004065D02*
X027000Y004065D01*
X027238Y004304D02*
X024742Y004304D01*
X024742Y004542D02*
X027477Y004542D01*
X027715Y004781D02*
X024700Y004781D01*
X024812Y005019D02*
X027954Y005019D01*
X028543Y005974D02*
X028881Y005974D01*
X029665Y005974D02*
X029786Y005974D01*
X029774Y005735D02*
X029677Y005735D01*
X029673Y005497D02*
X029779Y005497D01*
X030206Y004832D02*
X030100Y004726D01*
X030100Y003726D01*
X029360Y003588D02*
X029344Y003588D01*
X029344Y003350D02*
X029360Y003350D01*
X026938Y002873D02*
X031867Y002873D01*
X031859Y002634D02*
X026700Y002634D01*
X026461Y002395D02*
X031893Y002395D01*
X031922Y002196D02*
X031922Y002196D01*
X031940Y002157D02*
X026223Y002157D01*
X025984Y001918D02*
X032049Y001918D01*
X032144Y001709D02*
X032144Y001709D01*
X032170Y001680D02*
X025746Y001680D01*
X025507Y001441D02*
X032376Y001441D01*
X032495Y001305D02*
X032495Y001305D01*
X032653Y001203D02*
X024636Y001203D01*
X023815Y001203D02*
X023636Y001203D01*
X022815Y001203D02*
X022636Y001203D01*
X022226Y001726D02*
X022226Y003562D01*
X021726Y003062D01*
X019889Y003062D01*
X019601Y003351D01*
X017101Y003351D01*
X016726Y003726D01*
X008600Y003726D01*
X004550Y003111D02*
X016775Y003111D01*
X016762Y003124D02*
X016762Y003124D01*
X016563Y002873D02*
X017889Y002873D01*
X017568Y002634D02*
X016883Y002634D01*
X017121Y002395D02*
X017330Y002395D01*
X017976Y002476D02*
X017226Y001726D01*
X016476Y002476D01*
X015976Y002476D01*
X015226Y001726D01*
X014476Y002476D01*
X013976Y002476D01*
X013226Y001726D01*
X012629Y001441D02*
X004075Y001441D01*
X003957Y001305D02*
X003957Y001305D01*
X003798Y001203D02*
X012815Y001203D01*
X012566Y001680D02*
X004282Y001680D01*
X004403Y001918D02*
X012591Y001918D01*
X012724Y002157D02*
X004512Y002157D01*
X004558Y002395D02*
X013330Y002395D01*
X013568Y002634D02*
X004592Y002634D01*
X004585Y002873D02*
X013889Y002873D01*
X014563Y002873D02*
X015889Y002873D01*
X015568Y002634D02*
X014883Y002634D01*
X015121Y002395D02*
X015330Y002395D01*
X015636Y001203D02*
X015815Y001203D01*
X016636Y001203D02*
X016815Y001203D01*
X017636Y001203D02*
X017815Y001203D01*
X018636Y001203D02*
X019815Y001203D01*
X019194Y001441D02*
X018822Y001441D01*
X018886Y001680D02*
X018956Y001680D01*
X019476Y001726D02*
X018726Y002476D01*
X017976Y002476D01*
X018813Y002873D02*
X019513Y002873D01*
X019133Y002634D02*
X021826Y002634D01*
X021826Y002395D02*
X019371Y002395D01*
X019610Y002157D02*
X019724Y002157D01*
X019476Y001726D02*
X020226Y001726D01*
X020728Y002157D02*
X020837Y002157D01*
X021225Y002157D02*
X021226Y002157D01*
X021225Y001918D02*
X021226Y001918D01*
X021225Y001680D02*
X021226Y001680D01*
X021225Y001441D02*
X021226Y001441D01*
X021225Y001203D02*
X021226Y001203D01*
X021477Y001203D02*
X021815Y001203D01*
X020974Y001203D02*
X020636Y001203D01*
X021615Y002157D02*
X021724Y002157D01*
X023226Y001726D02*
X023226Y003562D01*
X023226Y004389D02*
X023226Y005352D01*
X023218Y006212D02*
X023234Y006212D01*
X023218Y006451D02*
X023234Y006451D01*
X022735Y006451D02*
X022717Y006451D01*
X022234Y006451D02*
X022218Y006451D01*
X022218Y006212D02*
X022234Y006212D01*
X022226Y005352D02*
X022226Y004389D01*
X021709Y004304D02*
X021463Y004304D01*
X021709Y004542D02*
X020479Y004542D01*
X020457Y004781D02*
X021751Y004781D01*
X021639Y005019D02*
X020457Y005019D01*
X020100Y003976D02*
X021226Y003976D01*
X021476Y003726D01*
X024226Y004389D02*
X024226Y005352D01*
X024218Y006212D02*
X024234Y006212D01*
X024218Y006451D02*
X024234Y006451D01*
X023735Y006451D02*
X023717Y006451D01*
X020226Y006726D02*
X020226Y007226D01*
X019623Y007828D01*
X019623Y008682D01*
X019019Y008598D02*
X016228Y008598D01*
X016214Y008836D02*
X019032Y008836D01*
X019160Y009075D02*
X016086Y009075D01*
X016144Y008359D02*
X019103Y008359D01*
X024742Y003350D02*
X026284Y003350D01*
X026045Y003111D02*
X024643Y003111D01*
X024626Y002873D02*
X025807Y002873D01*
X025568Y002634D02*
X024626Y002634D01*
X024626Y002395D02*
X025330Y002395D01*
X025091Y002157D02*
X024728Y002157D01*
X031851Y007166D02*
X035406Y007166D01*
X035406Y006928D02*
X032089Y006928D01*
X031612Y007405D02*
X035406Y007405D01*
X035406Y007643D02*
X031523Y007643D01*
X031523Y007882D02*
X035406Y007882D01*
X035406Y009552D02*
X001046Y009552D01*
X013636Y001203D02*
X013815Y001203D01*
X014636Y001203D02*
X014815Y001203D01*
X034712Y004304D02*
X035406Y004304D01*
X035406Y004065D02*
X035027Y004065D01*
X034957Y004146D02*
X034957Y004146D01*
X035234Y003827D02*
X035406Y003827D01*
X035307Y003742D02*
X035307Y003742D01*
X035377Y003588D02*
X035406Y003588D01*
D24*
X025627Y013682D02*
X025627Y019877D01*
X027726Y021976D01*
X029726Y021976D02*
X029726Y017576D01*
X032619Y014682D01*
X021119Y014682D02*
X018226Y017576D01*
X018226Y021976D01*
X016226Y021976D02*
X014127Y019877D01*
X014127Y013682D01*
X009682Y014682D02*
X007726Y016639D01*
X007726Y019226D01*
X008726Y020226D01*
X008726Y021976D01*
X006726Y021976D02*
X004476Y019726D01*
X004476Y015468D01*
X002690Y013682D01*
M02*
