G75*
G70*
%OFA0B0*%
%FSLAX24Y24*%
%IPPOS*%
%LPD*%
%AMOC8*
5,1,8,0,0,1.08239X$1,22.5*
%
%ADD10C,0.1181*%
%ADD11C,0.1210*%
%ADD12C,0.0650*%
%ADD13C,0.1300*%
%ADD14C,0.0760*%
%ADD15C,0.0240*%
%ADD16C,0.0397*%
%ADD17C,0.1500*%
D10*
X009682Y014682D03*
X009682Y017686D03*
X021119Y017686D03*
X021119Y014682D03*
X032619Y014682D03*
X032619Y017686D03*
D11*
X025627Y013682D03*
X014127Y013682D03*
X002690Y013682D03*
D12*
X004186Y008682D03*
X008186Y008682D03*
X015623Y008682D03*
X019623Y008682D03*
X027123Y008682D03*
X031123Y008682D03*
D13*
X029726Y021976D03*
X027726Y021976D03*
X018226Y021976D03*
X016226Y021976D03*
X008726Y021976D03*
X006726Y021976D03*
D14*
X013226Y001726D03*
X014226Y001726D03*
X015226Y001726D03*
X016226Y001726D03*
X017226Y001726D03*
X018226Y001726D03*
X020226Y001726D03*
X021226Y001726D03*
X022226Y001726D03*
X023226Y001726D03*
X024226Y001726D03*
D15*
X003957Y001305D02*
X003553Y001046D01*
X032898Y001046D01*
X032495Y001305D01*
X032495Y001305D01*
X032144Y001709D01*
X032144Y001709D01*
X031922Y002196D01*
X031922Y002196D01*
X031846Y002726D01*
X031846Y002726D01*
X031922Y003255D01*
X031922Y003255D01*
X032144Y003742D01*
X032144Y003742D01*
X032495Y004146D01*
X032495Y004146D01*
X032495Y004146D01*
X032945Y004436D01*
X032945Y004436D01*
X033458Y004586D01*
X033458Y004586D01*
X033993Y004586D01*
X033993Y004586D01*
X034507Y004436D01*
X034507Y004436D01*
X034957Y004146D01*
X034957Y004146D01*
X035307Y003742D01*
X035406Y003526D01*
X035406Y009726D01*
X001046Y009726D01*
X001046Y003526D01*
X001144Y003742D01*
X001144Y003742D01*
X001495Y004146D01*
X001495Y004146D01*
X001495Y004146D01*
X001945Y004436D01*
X001945Y004436D01*
X002458Y004586D01*
X002458Y004586D01*
X002993Y004586D01*
X002993Y004586D01*
X003507Y004436D01*
X003507Y004436D01*
X003957Y004146D01*
X003957Y004146D01*
X004307Y003742D01*
X004307Y003742D01*
X004529Y003255D01*
X004529Y003255D01*
X004606Y002726D01*
X004529Y002196D01*
X004529Y002196D01*
X004307Y001709D01*
X003957Y001305D01*
X003957Y001305D01*
X004075Y001441D02*
X008944Y001441D01*
X008999Y001387D02*
X009146Y001326D01*
X012692Y001326D01*
X012852Y001166D01*
X013094Y001066D01*
X013357Y001066D01*
X013599Y001166D01*
X013726Y001292D01*
X013852Y001166D01*
X014094Y001066D01*
X014357Y001066D01*
X014599Y001166D01*
X014726Y001292D01*
X014852Y001166D01*
X015094Y001066D01*
X015357Y001066D01*
X015599Y001166D01*
X015726Y001292D01*
X015852Y001166D01*
X016094Y001066D01*
X016357Y001066D01*
X016599Y001166D01*
X016726Y001292D01*
X016852Y001166D01*
X017094Y001066D01*
X017357Y001066D01*
X017599Y001166D01*
X017726Y001292D01*
X017852Y001166D01*
X018094Y001066D01*
X018357Y001066D01*
X018599Y001166D01*
X018785Y001352D01*
X018886Y001594D01*
X018886Y001820D01*
X020891Y003826D01*
X020999Y003826D01*
X020997Y003821D01*
X020997Y003630D01*
X021070Y003455D01*
X021205Y003320D01*
X021380Y003247D01*
X021571Y003247D01*
X021747Y003320D01*
X021752Y003326D01*
X022685Y003326D01*
X022826Y003185D01*
X022826Y002259D01*
X022726Y002159D01*
X022599Y002285D01*
X022357Y002386D01*
X022094Y002386D01*
X021852Y002285D01*
X021669Y002102D01*
X021668Y002104D01*
X021604Y002168D01*
X021530Y002222D01*
X021448Y002263D01*
X021361Y002291D01*
X021271Y002306D01*
X021226Y002306D01*
X021226Y001726D01*
X021225Y001726D01*
X021225Y002306D01*
X021180Y002306D01*
X021090Y002291D01*
X021003Y002263D01*
X020922Y002222D01*
X020848Y002168D01*
X020783Y002104D01*
X020782Y002102D01*
X020599Y002285D01*
X020357Y002386D01*
X020094Y002386D01*
X019852Y002285D01*
X019666Y002099D01*
X019566Y001857D01*
X019566Y001594D01*
X019666Y001352D01*
X019852Y001166D01*
X020094Y001066D01*
X020357Y001066D01*
X020599Y001166D01*
X020782Y001349D01*
X020783Y001348D01*
X020848Y001283D01*
X020922Y001230D01*
X021003Y001188D01*
X021090Y001160D01*
X021180Y001146D01*
X021225Y001146D01*
X021225Y001725D01*
X021226Y001725D01*
X021226Y001146D01*
X021271Y001146D01*
X021361Y001160D01*
X021448Y001188D01*
X021530Y001230D01*
X021604Y001283D01*
X021668Y001348D01*
X021669Y001349D01*
X021852Y001166D01*
X022094Y001066D01*
X022357Y001066D01*
X022599Y001166D01*
X022726Y001292D01*
X022852Y001166D01*
X023094Y001066D01*
X023357Y001066D01*
X023599Y001166D01*
X023726Y001292D01*
X023852Y001166D01*
X024094Y001066D01*
X024357Y001066D01*
X024599Y001166D01*
X024785Y001352D01*
X024886Y001594D01*
X024886Y001857D01*
X024785Y002099D01*
X024599Y002285D01*
X024357Y002386D01*
X024094Y002386D01*
X023852Y002285D01*
X023726Y002159D01*
X023626Y002259D01*
X023626Y003430D01*
X023565Y003577D01*
X023452Y003690D01*
X023077Y004065D01*
X022930Y004126D01*
X022771Y004126D01*
X022191Y004126D01*
X022391Y004326D01*
X031646Y004326D01*
X031805Y004326D01*
X031952Y004387D01*
X032313Y004747D01*
X032321Y004747D01*
X032497Y004820D01*
X032631Y004955D01*
X032704Y005130D01*
X032704Y005321D01*
X032631Y005497D01*
X032497Y005631D01*
X032321Y005704D01*
X032130Y005704D01*
X031955Y005631D01*
X031820Y005497D01*
X031747Y005321D01*
X031747Y005313D01*
X031560Y005126D01*
X028802Y005126D01*
X028881Y005205D01*
X028954Y005380D01*
X028954Y005571D01*
X028881Y005747D01*
X028747Y005881D01*
X028571Y005954D01*
X028380Y005954D01*
X028205Y005881D01*
X028199Y005876D01*
X022055Y005876D01*
X021896Y005876D01*
X021749Y005815D01*
X021060Y005126D01*
X020191Y005126D01*
X020565Y005499D01*
X020626Y005646D01*
X020626Y005805D01*
X020626Y006449D01*
X020631Y006455D01*
X020704Y006630D01*
X020704Y006821D01*
X020631Y006997D01*
X020497Y007131D01*
X020321Y007204D01*
X020130Y007204D01*
X019955Y007131D01*
X019820Y006997D01*
X019747Y006821D01*
X019747Y006630D01*
X019820Y006455D01*
X019826Y006449D01*
X019826Y005891D01*
X017626Y003691D01*
X017626Y003805D01*
X017626Y004949D01*
X017631Y004955D01*
X017704Y005130D01*
X017704Y005321D01*
X017631Y005497D01*
X017497Y005631D01*
X017321Y005704D01*
X017130Y005704D01*
X016955Y005631D01*
X016820Y005497D01*
X016747Y005321D01*
X016747Y005130D01*
X016820Y004955D01*
X016826Y004949D01*
X016826Y003891D01*
X015320Y002386D01*
X015094Y002386D01*
X014852Y002285D01*
X014726Y002159D01*
X014599Y002285D01*
X014357Y002386D01*
X014131Y002386D01*
X013065Y003452D01*
X012952Y003565D01*
X012805Y003626D01*
X011391Y003626D01*
X009704Y005313D01*
X009704Y005321D01*
X009631Y005497D01*
X009497Y005631D01*
X009321Y005704D01*
X009130Y005704D01*
X008955Y005631D01*
X008820Y005497D01*
X008747Y005321D01*
X008747Y005130D01*
X008820Y004955D01*
X008955Y004820D01*
X009130Y004747D01*
X009138Y004747D01*
X010999Y002887D01*
X011146Y002826D01*
X011305Y002826D01*
X012560Y002826D01*
X013028Y002358D01*
X012852Y002285D01*
X012692Y002126D01*
X009391Y002126D01*
X006704Y004813D01*
X006704Y004821D01*
X006631Y004997D01*
X006497Y005131D01*
X006321Y005204D01*
X006130Y005204D01*
X005955Y005131D01*
X005820Y004997D01*
X005747Y004821D01*
X005747Y004630D01*
X005820Y004455D01*
X005955Y004320D01*
X006130Y004247D01*
X006138Y004247D01*
X008887Y001499D01*
X008999Y001387D01*
X008706Y001680D02*
X004282Y001680D01*
X004403Y001918D02*
X008467Y001918D01*
X008229Y002157D02*
X004512Y002157D01*
X004558Y002395D02*
X007990Y002395D01*
X007752Y002634D02*
X004592Y002634D01*
X004585Y002873D02*
X007513Y002873D01*
X007275Y003111D02*
X004550Y003111D01*
X004486Y003350D02*
X007036Y003350D01*
X006797Y003588D02*
X004377Y003588D01*
X004234Y003827D02*
X006559Y003827D01*
X006320Y004065D02*
X004027Y004065D01*
X003712Y004304D02*
X005994Y004304D01*
X005784Y004542D02*
X003144Y004542D01*
X002308Y004542D02*
X001046Y004542D01*
X001046Y004304D02*
X001739Y004304D01*
X001424Y004065D02*
X001046Y004065D01*
X001046Y003827D02*
X001218Y003827D01*
X001074Y003588D02*
X001046Y003588D01*
X001046Y004781D02*
X005747Y004781D01*
X005843Y005019D02*
X001046Y005019D01*
X001046Y005258D02*
X008747Y005258D01*
X008793Y005019D02*
X006608Y005019D01*
X006736Y004781D02*
X009049Y004781D01*
X009343Y004542D02*
X006975Y004542D01*
X007213Y004304D02*
X009582Y004304D01*
X009820Y004065D02*
X007452Y004065D01*
X007690Y003827D02*
X010059Y003827D01*
X010297Y003588D02*
X007929Y003588D01*
X008167Y003350D02*
X010536Y003350D01*
X010775Y003111D02*
X008406Y003111D01*
X008644Y002873D02*
X011033Y002873D01*
X011226Y003226D02*
X009226Y005226D01*
X009631Y005497D02*
X016820Y005497D01*
X016747Y005258D02*
X009759Y005258D01*
X009998Y005019D02*
X016793Y005019D01*
X016826Y004781D02*
X010236Y004781D01*
X010475Y004542D02*
X016826Y004542D01*
X016826Y004304D02*
X010713Y004304D01*
X010952Y004065D02*
X016826Y004065D01*
X016761Y003827D02*
X011190Y003827D01*
X011226Y003226D02*
X012726Y003226D01*
X014226Y001726D01*
X014121Y002395D02*
X015330Y002395D01*
X015568Y002634D02*
X013883Y002634D01*
X013644Y002873D02*
X015807Y002873D01*
X016045Y003111D02*
X013406Y003111D01*
X013167Y003350D02*
X016284Y003350D01*
X016523Y003588D02*
X012896Y003588D01*
X012752Y002634D02*
X008883Y002634D01*
X009121Y002395D02*
X012990Y002395D01*
X012724Y002157D02*
X009360Y002157D01*
X009226Y001726D02*
X013226Y001726D01*
X013636Y001203D02*
X013815Y001203D01*
X012815Y001203D02*
X003798Y001203D01*
X006226Y004726D02*
X009226Y001726D01*
X008820Y005497D02*
X001046Y005497D01*
X001046Y005735D02*
X019669Y005735D01*
X019826Y005974D02*
X001046Y005974D01*
X001046Y006212D02*
X019826Y006212D01*
X019824Y006451D02*
X001046Y006451D01*
X001046Y006689D02*
X019747Y006689D01*
X019792Y006928D02*
X001046Y006928D01*
X001046Y007166D02*
X020039Y007166D01*
X020412Y007166D02*
X035406Y007166D01*
X035406Y006928D02*
X020660Y006928D01*
X020704Y006689D02*
X035406Y006689D01*
X035406Y006451D02*
X020627Y006451D01*
X020626Y006212D02*
X035406Y006212D01*
X035406Y005974D02*
X020626Y005974D01*
X020626Y005735D02*
X021669Y005735D01*
X021431Y005497D02*
X020562Y005497D01*
X020324Y005258D02*
X021192Y005258D01*
X021226Y004726D02*
X021976Y005476D01*
X028476Y005476D01*
X028954Y005497D02*
X031820Y005497D01*
X031692Y005258D02*
X028903Y005258D01*
X028886Y005735D02*
X035406Y005735D01*
X035406Y005497D02*
X032631Y005497D01*
X032704Y005258D02*
X035406Y005258D01*
X035406Y005019D02*
X032658Y005019D01*
X032402Y004781D02*
X035406Y004781D01*
X035406Y004542D02*
X034144Y004542D01*
X034712Y004304D02*
X035406Y004304D01*
X035406Y004065D02*
X035027Y004065D01*
X035234Y003827D02*
X035406Y003827D01*
X035307Y003742D02*
X035307Y003742D01*
X035377Y003588D02*
X035406Y003588D01*
X033308Y004542D02*
X032108Y004542D01*
X031726Y004726D02*
X032226Y005226D01*
X031726Y004726D02*
X022226Y004726D01*
X021726Y004226D01*
X020726Y004226D01*
X018226Y001726D01*
X018822Y001441D02*
X019629Y001441D01*
X019566Y001680D02*
X018886Y001680D01*
X018984Y001918D02*
X019591Y001918D01*
X019724Y002157D02*
X019223Y002157D01*
X019461Y002395D02*
X022826Y002395D01*
X022826Y002634D02*
X019700Y002634D01*
X019938Y002873D02*
X022826Y002873D01*
X022826Y003111D02*
X020177Y003111D01*
X020415Y003350D02*
X021175Y003350D01*
X021015Y003588D02*
X020654Y003588D01*
X021476Y003726D02*
X022851Y003726D01*
X023226Y003351D01*
X023226Y001726D01*
X023626Y002395D02*
X031893Y002395D01*
X031859Y002634D02*
X023626Y002634D01*
X023626Y002873D02*
X031867Y002873D01*
X031901Y003111D02*
X023626Y003111D01*
X023626Y003350D02*
X031965Y003350D01*
X032074Y003588D02*
X023554Y003588D01*
X023315Y003827D02*
X032218Y003827D01*
X032424Y004065D02*
X023076Y004065D01*
X022369Y004304D02*
X032739Y004304D01*
X031940Y002157D02*
X024728Y002157D01*
X024860Y001918D02*
X032049Y001918D01*
X032170Y001680D02*
X024886Y001680D01*
X024822Y001441D02*
X032376Y001441D01*
X032653Y001203D02*
X024636Y001203D01*
X023815Y001203D02*
X023636Y001203D01*
X022815Y001203D02*
X022636Y001203D01*
X021815Y001203D02*
X021477Y001203D01*
X021226Y001203D02*
X021225Y001203D01*
X021225Y001441D02*
X021226Y001441D01*
X021225Y001680D02*
X021226Y001680D01*
X021225Y001918D02*
X021226Y001918D01*
X021225Y002157D02*
X021226Y002157D01*
X021615Y002157D02*
X021724Y002157D01*
X020837Y002157D02*
X020728Y002157D01*
X020636Y001203D02*
X020974Y001203D01*
X019815Y001203D02*
X018636Y001203D01*
X017815Y001203D02*
X017636Y001203D01*
X016815Y001203D02*
X016636Y001203D01*
X015815Y001203D02*
X015636Y001203D01*
X014815Y001203D02*
X014636Y001203D01*
X015226Y001726D02*
X017226Y003726D01*
X017226Y005226D01*
X017658Y005019D02*
X018954Y005019D01*
X018715Y004781D02*
X017626Y004781D01*
X017626Y004542D02*
X018477Y004542D01*
X018238Y004304D02*
X017626Y004304D01*
X017626Y004065D02*
X018000Y004065D01*
X017761Y003827D02*
X017626Y003827D01*
X017704Y005258D02*
X019192Y005258D01*
X019431Y005497D02*
X017631Y005497D01*
X020226Y005726D02*
X016226Y001726D01*
X017226Y001726D02*
X020226Y004726D01*
X021226Y004726D01*
X020226Y005726D02*
X020226Y006726D01*
X019744Y008078D02*
X019503Y008078D01*
X019281Y008170D01*
X019111Y008340D01*
X019019Y008562D01*
X019019Y008803D01*
X019111Y009025D01*
X019281Y009195D01*
X019503Y009287D01*
X019744Y009287D01*
X019966Y009195D01*
X020136Y009025D01*
X020228Y008803D01*
X020228Y008562D01*
X020136Y008340D01*
X019966Y008170D01*
X019744Y008078D01*
X019847Y008121D02*
X026899Y008121D01*
X027003Y008078D02*
X026781Y008170D01*
X026611Y008340D01*
X026519Y008562D01*
X026519Y008803D01*
X026611Y009025D01*
X026781Y009195D01*
X027003Y009287D01*
X027244Y009287D01*
X027466Y009195D01*
X027636Y009025D01*
X027728Y008803D01*
X027728Y008562D01*
X027636Y008340D01*
X027466Y008170D01*
X027244Y008078D01*
X027003Y008078D01*
X027347Y008121D02*
X030899Y008121D01*
X031003Y008078D02*
X030781Y008170D01*
X030611Y008340D01*
X030519Y008562D01*
X030519Y008803D01*
X030611Y009025D01*
X030781Y009195D01*
X031003Y009287D01*
X031244Y009287D01*
X031466Y009195D01*
X031636Y009025D01*
X031728Y008803D01*
X031728Y008562D01*
X031636Y008340D01*
X031466Y008170D01*
X031244Y008078D01*
X031003Y008078D01*
X031347Y008121D02*
X035406Y008121D01*
X035406Y008359D02*
X031644Y008359D01*
X031728Y008598D02*
X035406Y008598D01*
X035406Y008836D02*
X031714Y008836D01*
X031586Y009075D02*
X035406Y009075D01*
X035406Y009313D02*
X001046Y009313D01*
X001046Y009075D02*
X003723Y009075D01*
X003673Y009025D02*
X003581Y008803D01*
X003581Y008562D01*
X003673Y008340D01*
X003843Y008170D01*
X004066Y008078D01*
X004306Y008078D01*
X004528Y008170D01*
X004699Y008340D01*
X004791Y008562D01*
X004791Y008803D01*
X004699Y009025D01*
X004528Y009195D01*
X004306Y009287D01*
X004066Y009287D01*
X003843Y009195D01*
X003673Y009025D01*
X003595Y008836D02*
X001046Y008836D01*
X001046Y008598D02*
X003581Y008598D01*
X003665Y008359D02*
X001046Y008359D01*
X001046Y008121D02*
X003962Y008121D01*
X004410Y008121D02*
X007962Y008121D01*
X008066Y008078D02*
X007843Y008170D01*
X007673Y008340D01*
X007581Y008562D01*
X007581Y008803D01*
X007673Y009025D01*
X007843Y009195D01*
X008066Y009287D01*
X008306Y009287D01*
X008528Y009195D01*
X008699Y009025D01*
X008791Y008803D01*
X008791Y008562D01*
X008699Y008340D01*
X008528Y008170D01*
X008306Y008078D01*
X008066Y008078D01*
X008410Y008121D02*
X015399Y008121D01*
X015503Y008078D02*
X015744Y008078D01*
X015966Y008170D01*
X016136Y008340D01*
X016228Y008562D01*
X016228Y008803D01*
X016136Y009025D01*
X015966Y009195D01*
X015744Y009287D01*
X015503Y009287D01*
X015281Y009195D01*
X015111Y009025D01*
X015019Y008803D01*
X015019Y008562D01*
X015111Y008340D01*
X015281Y008170D01*
X015503Y008078D01*
X015847Y008121D02*
X019399Y008121D01*
X019103Y008359D02*
X016144Y008359D01*
X016228Y008598D02*
X019019Y008598D01*
X019032Y008836D02*
X016214Y008836D01*
X016086Y009075D02*
X019160Y009075D01*
X020086Y009075D02*
X026660Y009075D01*
X026532Y008836D02*
X020214Y008836D01*
X020228Y008598D02*
X026519Y008598D01*
X026603Y008359D02*
X020144Y008359D01*
X015160Y009075D02*
X008649Y009075D01*
X008777Y008836D02*
X015032Y008836D01*
X015019Y008598D02*
X008791Y008598D01*
X008706Y008359D02*
X015103Y008359D01*
X007723Y009075D02*
X004649Y009075D01*
X004777Y008836D02*
X007595Y008836D01*
X007581Y008598D02*
X004791Y008598D01*
X004706Y008359D02*
X007665Y008359D01*
X001046Y007882D02*
X035406Y007882D01*
X035406Y007643D02*
X001046Y007643D01*
X001046Y007405D02*
X035406Y007405D01*
X035406Y009552D02*
X001046Y009552D01*
X027586Y009075D02*
X030660Y009075D01*
X030532Y008836D02*
X027714Y008836D01*
X027728Y008598D02*
X030519Y008598D01*
X030603Y008359D02*
X027644Y008359D01*
D16*
X028476Y005476D03*
X032226Y005226D03*
X021476Y003726D03*
X017226Y005226D03*
X020226Y006726D03*
X009226Y005226D03*
X006226Y004726D03*
D17*
X002690Y013682D02*
X004476Y015468D01*
X004476Y019726D01*
X006726Y021976D01*
X008726Y021976D02*
X008726Y020226D01*
X007726Y019226D01*
X007726Y016639D01*
X009682Y014682D01*
X014127Y013682D02*
X014127Y019877D01*
X016226Y021976D01*
X018226Y021976D02*
X018226Y017576D01*
X021119Y014682D01*
X025627Y013682D02*
X025627Y019877D01*
X027726Y021976D01*
X029726Y021976D02*
X029726Y017576D01*
X032619Y014682D01*
M02*
