G75*
G70*
%OFA0B0*%
%FSLAX24Y24*%
%IPPOS*%
%LPD*%
%AMOC8*
5,1,8,0,0,1.08239X$1,22.5*
%
%ADD10C,0.0060*%
%ADD11C,0.0160*%
%ADD12R,0.1716X0.0003*%
%ADD13R,0.1740X0.0003*%
%ADD14R,0.1752X0.0003*%
%ADD15R,0.1758X0.0003*%
%ADD16R,0.1770X0.0003*%
%ADD17R,0.1776X0.0003*%
%ADD18R,0.1782X0.0003*%
%ADD19R,0.1788X0.0003*%
%ADD20R,0.1794X0.0003*%
%ADD21R,0.1800X0.0003*%
%ADD22R,0.1779X0.0003*%
%ADD23R,0.1764X0.0003*%
%ADD24R,0.0111X0.0003*%
%ADD25R,0.0114X0.0003*%
%ADD26R,0.0111X0.0003*%
%ADD27R,0.0114X0.0003*%
%ADD28R,0.0006X0.0003*%
%ADD29R,0.0009X0.0003*%
%ADD30R,0.0012X0.0003*%
%ADD31R,0.0015X0.0003*%
%ADD32R,0.0018X0.0003*%
%ADD33R,0.0024X0.0003*%
%ADD34R,0.0027X0.0003*%
%ADD35R,0.0030X0.0003*%
%ADD36R,0.0033X0.0003*%
%ADD37R,0.0039X0.0003*%
%ADD38R,0.0042X0.0003*%
%ADD39R,0.0045X0.0003*%
%ADD40R,0.0048X0.0003*%
%ADD41R,0.0051X0.0003*%
%ADD42R,0.0057X0.0003*%
%ADD43R,0.0060X0.0003*%
%ADD44R,0.0063X0.0003*%
%ADD45R,0.0066X0.0003*%
%ADD46R,0.0072X0.0003*%
%ADD47R,0.0075X0.0003*%
%ADD48R,0.0078X0.0003*%
%ADD49R,0.0081X0.0003*%
%ADD50R,0.0087X0.0003*%
%ADD51R,0.0090X0.0003*%
%ADD52R,0.0093X0.0003*%
%ADD53R,0.0096X0.0003*%
%ADD54R,0.0099X0.0003*%
%ADD55R,0.0102X0.0003*%
%ADD56R,0.0105X0.0003*%
%ADD57R,0.0108X0.0003*%
%ADD58R,0.0120X0.0003*%
%ADD59R,0.0123X0.0003*%
%ADD60R,0.0126X0.0003*%
%ADD61R,0.0129X0.0003*%
%ADD62R,0.0036X0.0003*%
%ADD63R,0.0024X0.0003*%
%ADD64R,0.0021X0.0003*%
%ADD65R,0.0021X0.0003*%
%ADD66R,0.0069X0.0003*%
%ADD67R,0.0078X0.0003*%
%ADD68R,0.0084X0.0003*%
%ADD69R,0.0081X0.0003*%
%ADD70R,0.0084X0.0003*%
%ADD71R,0.0108X0.0003*%
%ADD72R,0.0087X0.0003*%
%ADD73R,0.0054X0.0003*%
%ADD74R,0.0117X0.0003*%
%ADD75R,0.0132X0.0003*%
%ADD76R,0.0138X0.0003*%
%ADD77R,0.0144X0.0003*%
%ADD78R,0.0150X0.0003*%
%ADD79R,0.0153X0.0003*%
%ADD80R,0.0159X0.0003*%
%ADD81R,0.0165X0.0003*%
%ADD82R,0.0168X0.0003*%
%ADD83R,0.0174X0.0003*%
%ADD84R,0.0180X0.0003*%
%ADD85R,0.0183X0.0003*%
%ADD86R,0.0294X0.0003*%
%ADD87R,0.0291X0.0003*%
%ADD88R,0.0294X0.0003*%
%ADD89R,0.0198X0.0003*%
%ADD90R,0.0192X0.0003*%
%ADD91R,0.0189X0.0003*%
%ADD92R,0.0186X0.0003*%
%ADD93R,0.0174X0.0003*%
%ADD94R,0.0171X0.0003*%
%ADD95R,0.0162X0.0003*%
%ADD96R,0.0156X0.0003*%
%ADD97R,0.0147X0.0003*%
%ADD98R,0.0141X0.0003*%
%ADD99R,0.0135X0.0003*%
%ADD100R,0.0054X0.0003*%
%ADD101R,0.0003X0.0003*%
%ADD102R,0.0141X0.0003*%
%ADD103R,0.0138X0.0003*%
%ADD104R,0.0144X0.0003*%
%ADD105R,0.0003X0.0114*%
%ADD106R,0.0222X0.0003*%
%ADD107R,0.0216X0.0003*%
%ADD108R,0.0210X0.0003*%
%ADD109R,0.0204X0.0003*%
%ADD110C,0.0070*%
%ADD111C,0.0110*%
%ADD112C,0.0080*%
%ADD113R,0.0079X0.0079*%
%ADD114C,0.0059*%
D10*
X001376Y002726D02*
X001378Y002799D01*
X001384Y002872D01*
X001394Y002944D01*
X001408Y003016D01*
X001425Y003087D01*
X001447Y003157D01*
X001472Y003226D01*
X001501Y003293D01*
X001533Y003358D01*
X001569Y003422D01*
X001609Y003484D01*
X001651Y003543D01*
X001697Y003600D01*
X001746Y003654D01*
X001798Y003706D01*
X001852Y003755D01*
X001909Y003801D01*
X001968Y003843D01*
X002030Y003883D01*
X002094Y003919D01*
X002159Y003951D01*
X002226Y003980D01*
X002295Y004005D01*
X002365Y004027D01*
X002436Y004044D01*
X002508Y004058D01*
X002580Y004068D01*
X002653Y004074D01*
X002726Y004076D01*
X002799Y004074D01*
X002872Y004068D01*
X002944Y004058D01*
X003016Y004044D01*
X003087Y004027D01*
X003157Y004005D01*
X003226Y003980D01*
X003293Y003951D01*
X003358Y003919D01*
X003422Y003883D01*
X003484Y003843D01*
X003543Y003801D01*
X003600Y003755D01*
X003654Y003706D01*
X003706Y003654D01*
X003755Y003600D01*
X003801Y003543D01*
X003843Y003484D01*
X003883Y003422D01*
X003919Y003358D01*
X003951Y003293D01*
X003980Y003226D01*
X004005Y003157D01*
X004027Y003087D01*
X004044Y003016D01*
X004058Y002944D01*
X004068Y002872D01*
X004074Y002799D01*
X004076Y002726D01*
X004074Y002653D01*
X004068Y002580D01*
X004058Y002508D01*
X004044Y002436D01*
X004027Y002365D01*
X004005Y002295D01*
X003980Y002226D01*
X003951Y002159D01*
X003919Y002094D01*
X003883Y002030D01*
X003843Y001968D01*
X003801Y001909D01*
X003755Y001852D01*
X003706Y001798D01*
X003654Y001746D01*
X003600Y001697D01*
X003543Y001651D01*
X003484Y001609D01*
X003422Y001569D01*
X003358Y001533D01*
X003293Y001501D01*
X003226Y001472D01*
X003157Y001447D01*
X003087Y001425D01*
X003016Y001408D01*
X002944Y001394D01*
X002872Y001384D01*
X002799Y001378D01*
X002726Y001376D01*
X002653Y001378D01*
X002580Y001384D01*
X002508Y001394D01*
X002436Y001408D01*
X002365Y001425D01*
X002295Y001447D01*
X002226Y001472D01*
X002159Y001501D01*
X002094Y001533D01*
X002030Y001569D01*
X001968Y001609D01*
X001909Y001651D01*
X001852Y001697D01*
X001798Y001746D01*
X001746Y001798D01*
X001697Y001852D01*
X001651Y001909D01*
X001609Y001968D01*
X001569Y002030D01*
X001533Y002094D01*
X001501Y002159D01*
X001472Y002226D01*
X001447Y002295D01*
X001425Y002365D01*
X001408Y002436D01*
X001394Y002508D01*
X001384Y002580D01*
X001378Y002653D01*
X001376Y002726D01*
X004381Y001873D02*
X004429Y001921D01*
X004526Y001921D01*
X004574Y001873D01*
X004574Y001824D01*
X004526Y001776D01*
X004574Y001727D01*
X004574Y001679D01*
X004526Y001631D01*
X004429Y001631D01*
X004381Y001679D01*
X004477Y001776D02*
X004526Y001776D01*
X004703Y001776D02*
X004703Y001679D01*
X004751Y001631D01*
X004896Y001631D01*
X005025Y001631D02*
X005025Y001921D01*
X005074Y001824D02*
X005170Y001824D01*
X005219Y001776D01*
X005219Y001631D01*
X005347Y001679D02*
X005396Y001727D01*
X005541Y001727D01*
X005541Y001776D02*
X005541Y001631D01*
X005396Y001631D01*
X005347Y001679D01*
X005396Y001824D02*
X005493Y001824D01*
X005541Y001776D01*
X005670Y001824D02*
X005815Y001824D01*
X005863Y001776D01*
X005863Y001631D01*
X005992Y001631D02*
X005992Y001824D01*
X006137Y001824D01*
X006185Y001776D01*
X006185Y001631D01*
X006314Y001679D02*
X006314Y001776D01*
X006362Y001824D01*
X006459Y001824D01*
X006508Y001776D01*
X006508Y001727D01*
X006314Y001727D01*
X006314Y001679D02*
X006362Y001631D01*
X006459Y001631D01*
X006636Y001631D02*
X006733Y001631D01*
X006685Y001631D02*
X006685Y001921D01*
X006636Y001921D01*
X007173Y001824D02*
X007173Y001534D01*
X007173Y001631D02*
X007319Y001631D01*
X007367Y001679D01*
X007367Y001776D01*
X007319Y001824D01*
X007173Y001824D01*
X007496Y001776D02*
X007496Y001679D01*
X007544Y001631D01*
X007641Y001631D01*
X007689Y001679D01*
X007689Y001776D01*
X007641Y001824D01*
X007544Y001824D01*
X007496Y001776D01*
X007818Y001824D02*
X007818Y001679D01*
X007866Y001631D01*
X007915Y001679D01*
X007963Y001631D01*
X008011Y001679D01*
X008011Y001824D01*
X008140Y001776D02*
X008140Y001679D01*
X008189Y001631D01*
X008285Y001631D01*
X008334Y001727D02*
X008140Y001727D01*
X008140Y001776D02*
X008189Y001824D01*
X008285Y001824D01*
X008334Y001776D01*
X008334Y001727D01*
X008462Y001727D02*
X008559Y001824D01*
X008608Y001824D01*
X008462Y001824D02*
X008462Y001631D01*
X008446Y001421D02*
X008350Y001421D01*
X008301Y001373D01*
X008446Y001421D02*
X008495Y001373D01*
X008495Y001324D01*
X008301Y001131D01*
X008495Y001131D01*
X008624Y001179D02*
X008817Y001373D01*
X008817Y001179D01*
X008769Y001131D01*
X008672Y001131D01*
X008624Y001179D01*
X008624Y001373D01*
X008672Y001421D01*
X008769Y001421D01*
X008817Y001373D01*
X008946Y001324D02*
X009043Y001421D01*
X009043Y001131D01*
X009139Y001131D02*
X008946Y001131D01*
X009268Y001131D02*
X009462Y001324D01*
X009462Y001373D01*
X009413Y001421D01*
X009316Y001421D01*
X009268Y001373D01*
X009268Y001131D02*
X009462Y001131D01*
X009467Y001631D02*
X009370Y001631D01*
X009322Y001679D01*
X009322Y001776D01*
X009370Y001824D01*
X009467Y001824D01*
X009515Y001776D01*
X009515Y001727D01*
X009322Y001727D01*
X009198Y001824D02*
X009150Y001824D01*
X009053Y001727D01*
X009053Y001631D02*
X009053Y001824D01*
X009644Y001921D02*
X009692Y001921D01*
X009692Y001631D01*
X009644Y001631D02*
X009741Y001631D01*
X009859Y001679D02*
X009907Y001727D01*
X010052Y001727D01*
X010052Y001776D02*
X010052Y001631D01*
X009907Y001631D01*
X009859Y001679D01*
X009907Y001824D02*
X010004Y001824D01*
X010052Y001776D01*
X010181Y001824D02*
X010181Y001679D01*
X010229Y001631D01*
X010375Y001631D01*
X010375Y001582D02*
X010326Y001534D01*
X010278Y001534D01*
X010375Y001582D02*
X010375Y001824D01*
X010826Y001824D02*
X010971Y001824D01*
X011019Y001776D01*
X011019Y001679D01*
X010971Y001631D01*
X010826Y001631D01*
X010826Y001921D01*
X011148Y001776D02*
X011148Y001679D01*
X011196Y001631D01*
X011293Y001631D01*
X011341Y001679D01*
X011341Y001776D01*
X011293Y001824D01*
X011196Y001824D01*
X011148Y001776D01*
X011470Y001679D02*
X011518Y001727D01*
X011664Y001727D01*
X011664Y001776D02*
X011664Y001631D01*
X011518Y001631D01*
X011470Y001679D01*
X011518Y001824D02*
X011615Y001824D01*
X011664Y001776D01*
X011792Y001824D02*
X011792Y001631D01*
X011792Y001727D02*
X011889Y001824D01*
X011937Y001824D01*
X012061Y001776D02*
X012061Y001679D01*
X012109Y001631D01*
X012254Y001631D01*
X012254Y001921D01*
X012254Y001824D02*
X012109Y001824D01*
X012061Y001776D01*
X012726Y001976D02*
X012726Y001476D01*
X012976Y001226D01*
X013476Y001226D01*
X013726Y001476D01*
X013976Y001226D01*
X014476Y001226D01*
X014726Y001476D01*
X014726Y001976D01*
X014476Y002226D01*
X013976Y002226D01*
X013726Y001976D01*
X013726Y001476D01*
X013726Y001976D02*
X013476Y002226D01*
X012976Y002226D01*
X012726Y001976D01*
X013227Y002429D02*
X013227Y002623D01*
X013131Y002526D02*
X013324Y002526D01*
X013631Y002631D02*
X013824Y002631D01*
X013727Y002631D02*
X013727Y002921D01*
X013631Y002824D01*
X014131Y002526D02*
X014324Y002526D01*
X014726Y001976D02*
X014976Y002226D01*
X015476Y002226D01*
X015726Y001976D01*
X015976Y002226D01*
X016476Y002226D01*
X016726Y001976D01*
X016976Y002226D01*
X017476Y002226D01*
X017726Y001976D01*
X017976Y002226D01*
X018476Y002226D01*
X018726Y001976D01*
X018726Y001476D01*
X018476Y001226D01*
X017976Y001226D01*
X017726Y001476D01*
X017476Y001226D01*
X016976Y001226D01*
X016726Y001476D01*
X016476Y001226D01*
X015976Y001226D01*
X015726Y001476D01*
X015476Y001226D01*
X014976Y001226D01*
X014726Y001476D01*
X015726Y001476D02*
X015726Y001976D01*
X015631Y002631D02*
X015824Y002824D01*
X015824Y002873D01*
X015776Y002921D01*
X015679Y002921D01*
X015631Y002873D01*
X015631Y002631D02*
X015824Y002631D01*
X016131Y002526D02*
X016324Y002526D01*
X016726Y001976D02*
X016726Y001476D01*
X017726Y001476D02*
X017726Y001976D01*
X017227Y002429D02*
X017227Y002623D01*
X017131Y002526D02*
X017324Y002526D01*
X017631Y002679D02*
X017679Y002631D01*
X017776Y002631D01*
X017824Y002679D01*
X017824Y002727D01*
X017776Y002776D01*
X017727Y002776D01*
X017776Y002776D02*
X017824Y002824D01*
X017824Y002873D01*
X017776Y002921D01*
X017679Y002921D01*
X017631Y002873D01*
X018131Y002526D02*
X018324Y002526D01*
X018981Y003106D02*
X019174Y003106D01*
X019077Y003106D02*
X019077Y003396D01*
X018981Y003299D01*
X019303Y003348D02*
X019351Y003396D01*
X019448Y003396D01*
X019496Y003348D01*
X019303Y003154D01*
X019351Y003106D01*
X019448Y003106D01*
X019496Y003154D01*
X019496Y003348D01*
X019303Y003348D02*
X019303Y003154D01*
X019477Y002748D02*
X019477Y002554D01*
X019381Y002651D02*
X019574Y002651D01*
X019703Y002699D02*
X019800Y002796D01*
X019800Y002506D01*
X019896Y002506D02*
X019703Y002506D01*
X020025Y002506D02*
X020219Y002699D01*
X020219Y002748D01*
X020170Y002796D01*
X020074Y002796D01*
X020025Y002748D01*
X020025Y002506D02*
X020219Y002506D01*
X020347Y002602D02*
X020444Y002506D01*
X020541Y002602D01*
X020541Y002796D01*
X020347Y002796D02*
X020347Y002602D01*
X020476Y002226D02*
X019976Y002226D01*
X019726Y001976D01*
X019726Y001476D01*
X019976Y001226D01*
X020476Y001226D01*
X020726Y001476D01*
X020976Y001226D01*
X021476Y001226D01*
X021726Y001476D01*
X021976Y001226D01*
X022476Y001226D01*
X022726Y001476D01*
X022976Y001226D01*
X023476Y001226D01*
X023726Y001476D01*
X023976Y001226D01*
X024476Y001226D01*
X024726Y001476D01*
X024726Y001976D01*
X024476Y002226D01*
X023976Y002226D01*
X023726Y001976D01*
X023476Y002226D01*
X022976Y002226D01*
X022726Y001976D01*
X022476Y002226D01*
X021976Y002226D01*
X021726Y001976D01*
X021476Y002226D01*
X020976Y002226D01*
X020726Y001976D01*
X020476Y002226D01*
X021006Y002554D02*
X021054Y002506D01*
X021151Y002506D01*
X021199Y002554D01*
X021199Y002651D01*
X021102Y002651D01*
X021006Y002748D02*
X021006Y002554D01*
X021006Y002748D02*
X021054Y002796D01*
X021151Y002796D01*
X021199Y002748D01*
X021328Y002796D02*
X021521Y002506D01*
X021521Y002796D01*
X021650Y002796D02*
X021795Y002796D01*
X021844Y002748D01*
X021844Y002554D01*
X021795Y002506D01*
X021650Y002506D01*
X021650Y002796D01*
X021328Y002796D02*
X021328Y002506D01*
X022256Y002506D02*
X022449Y002506D01*
X022352Y002506D02*
X022352Y002796D01*
X022256Y002699D01*
X023256Y002748D02*
X023304Y002796D01*
X023401Y002796D01*
X023449Y002748D01*
X023449Y002699D01*
X023256Y002506D01*
X023449Y002506D01*
X024256Y002554D02*
X024304Y002506D01*
X024401Y002506D01*
X024449Y002554D01*
X024449Y002602D01*
X024401Y002651D01*
X024352Y002651D01*
X024401Y002651D02*
X024449Y002699D01*
X024449Y002748D01*
X024401Y002796D01*
X024304Y002796D01*
X024256Y002748D01*
X025131Y002546D02*
X025131Y002401D01*
X025227Y002449D01*
X025276Y002449D01*
X025324Y002401D01*
X025324Y002304D01*
X025276Y002256D01*
X025179Y002256D01*
X025131Y002304D01*
X025131Y002546D02*
X025324Y002546D01*
X025453Y002546D02*
X025453Y002352D01*
X025550Y002256D01*
X025646Y002352D01*
X025646Y002546D01*
X026097Y002546D02*
X026291Y002546D01*
X026194Y002546D02*
X026194Y002256D01*
X026516Y002256D02*
X026516Y002546D01*
X026420Y002546D02*
X026613Y002546D01*
X026742Y002546D02*
X026742Y002256D01*
X026935Y002256D01*
X026951Y001969D02*
X026951Y001921D01*
X026951Y001824D02*
X026951Y001631D01*
X026903Y001631D02*
X027000Y001631D01*
X027118Y001679D02*
X027166Y001631D01*
X027311Y001631D01*
X027440Y001631D02*
X027440Y001824D01*
X027440Y001727D02*
X027537Y001824D01*
X027585Y001824D01*
X027709Y001776D02*
X027709Y001679D01*
X027757Y001631D01*
X027854Y001631D01*
X027902Y001679D01*
X027902Y001776D01*
X027854Y001824D01*
X027757Y001824D01*
X027709Y001776D01*
X028031Y001776D02*
X028031Y001679D01*
X028079Y001631D01*
X028224Y001631D01*
X028353Y001679D02*
X028401Y001631D01*
X028498Y001631D01*
X028547Y001679D01*
X028547Y001776D01*
X028498Y001824D01*
X028401Y001824D01*
X028353Y001776D01*
X028353Y001679D01*
X028224Y001824D02*
X028079Y001824D01*
X028031Y001776D01*
X027923Y002159D02*
X027923Y002449D01*
X028069Y002449D01*
X028117Y002401D01*
X028117Y002304D01*
X028069Y002256D01*
X027923Y002256D01*
X027795Y002256D02*
X027795Y002401D01*
X027746Y002449D01*
X027601Y002449D01*
X027601Y002256D01*
X027483Y002256D02*
X027386Y002256D01*
X027435Y002256D02*
X027435Y002449D01*
X027386Y002449D01*
X027435Y002546D02*
X027435Y002594D01*
X028246Y002449D02*
X028246Y002304D01*
X028294Y002256D01*
X028439Y002256D01*
X028439Y002449D01*
X028568Y002449D02*
X028665Y002449D01*
X028616Y002498D02*
X028616Y002304D01*
X028665Y002256D01*
X028783Y002256D02*
X028928Y002256D01*
X028976Y002304D01*
X028928Y002352D01*
X028831Y002352D01*
X028783Y002401D01*
X028831Y002449D01*
X028976Y002449D01*
X029046Y001873D02*
X029046Y001679D01*
X029094Y001631D01*
X029212Y001631D02*
X029212Y001824D01*
X029212Y001727D02*
X029309Y001824D01*
X029358Y001824D01*
X029481Y001776D02*
X029481Y001679D01*
X029529Y001631D01*
X029626Y001631D01*
X029674Y001679D01*
X029674Y001776D01*
X029626Y001824D01*
X029529Y001824D01*
X029481Y001776D01*
X029803Y001921D02*
X029852Y001921D01*
X029852Y001631D01*
X029900Y001631D02*
X029803Y001631D01*
X030018Y001631D02*
X030115Y001631D01*
X030066Y001631D02*
X030066Y001921D01*
X030018Y001921D01*
X030233Y001776D02*
X030281Y001824D01*
X030378Y001824D01*
X030426Y001776D01*
X030426Y001727D01*
X030233Y001727D01*
X030233Y001679D02*
X030233Y001776D01*
X030233Y001679D02*
X030281Y001631D01*
X030378Y001631D01*
X030555Y001631D02*
X030555Y001824D01*
X030555Y001727D02*
X030652Y001824D01*
X030700Y001824D01*
X029094Y001824D02*
X028998Y001824D01*
X028869Y001776D02*
X028869Y001631D01*
X028869Y001776D02*
X028821Y001824D01*
X028675Y001824D01*
X028675Y001631D01*
X027311Y001824D02*
X027166Y001824D01*
X027118Y001776D01*
X027118Y001679D01*
X026951Y001824D02*
X026903Y001824D01*
X026774Y001776D02*
X026774Y001631D01*
X026678Y001631D02*
X026678Y001776D01*
X026726Y001824D01*
X026774Y001776D01*
X026678Y001776D02*
X026629Y001824D01*
X026581Y001824D01*
X026581Y001631D01*
X026130Y001631D02*
X026130Y001776D01*
X026081Y001824D01*
X026033Y001776D01*
X026033Y001631D01*
X025936Y001631D02*
X025936Y001824D01*
X025985Y001824D01*
X026033Y001776D01*
X025808Y001776D02*
X025808Y001679D01*
X025759Y001631D01*
X025662Y001631D01*
X025614Y001679D01*
X025614Y001776D01*
X025662Y001824D01*
X025759Y001824D01*
X025808Y001776D01*
X025491Y001824D02*
X025442Y001824D01*
X025346Y001727D01*
X025346Y001631D02*
X025346Y001824D01*
X025227Y001776D02*
X025131Y001776D01*
X025179Y001873D02*
X025179Y001631D01*
X025179Y001873D02*
X025227Y001921D01*
X027356Y003606D02*
X027549Y003606D01*
X027452Y003606D02*
X027452Y003896D01*
X027356Y003799D01*
X027678Y003848D02*
X027726Y003896D01*
X027823Y003896D01*
X027871Y003848D01*
X027678Y003654D01*
X027726Y003606D01*
X027823Y003606D01*
X027871Y003654D01*
X027871Y003848D01*
X028000Y003848D02*
X028049Y003896D01*
X028145Y003896D01*
X028194Y003848D01*
X028000Y003654D01*
X028049Y003606D01*
X028145Y003606D01*
X028194Y003654D01*
X028194Y003848D01*
X028000Y003848D02*
X028000Y003654D01*
X027678Y003654D02*
X027678Y003848D01*
X027726Y004606D02*
X027678Y004654D01*
X027871Y004848D01*
X027871Y004654D01*
X027823Y004606D01*
X027726Y004606D01*
X027678Y004654D02*
X027678Y004848D01*
X027726Y004896D01*
X027823Y004896D01*
X027871Y004848D01*
X027549Y004606D02*
X027356Y004606D01*
X027452Y004606D02*
X027452Y004896D01*
X027356Y004799D01*
X028322Y004702D02*
X028468Y004702D01*
X028516Y004751D01*
X028516Y004848D01*
X028468Y004896D01*
X028322Y004896D01*
X028322Y004606D01*
X028419Y004702D02*
X028516Y004606D01*
X028645Y003896D02*
X028645Y003606D01*
X028645Y003702D02*
X028790Y003606D01*
X028645Y003702D02*
X028790Y003799D01*
X030731Y004181D02*
X030924Y004374D01*
X030924Y004423D01*
X030876Y004471D01*
X030779Y004471D01*
X030731Y004423D01*
X030731Y004181D02*
X030924Y004181D01*
X031053Y004181D02*
X031053Y004471D01*
X031246Y004181D01*
X031246Y004471D01*
X031375Y004471D02*
X031569Y004471D01*
X031569Y004423D01*
X031375Y004229D01*
X031375Y004181D01*
X031697Y004229D02*
X031891Y004423D01*
X031891Y004229D01*
X031843Y004181D01*
X031746Y004181D01*
X031697Y004229D01*
X031697Y004423D01*
X031746Y004471D01*
X031843Y004471D01*
X031891Y004423D01*
X032020Y004423D02*
X032068Y004471D01*
X032165Y004471D01*
X032213Y004423D01*
X032020Y004229D01*
X032068Y004181D01*
X032165Y004181D01*
X032213Y004229D01*
X032213Y004423D01*
X032342Y004423D02*
X032390Y004471D01*
X032487Y004471D01*
X032535Y004423D01*
X032535Y004374D01*
X032342Y004181D01*
X032535Y004181D01*
X032020Y004229D02*
X032020Y004423D01*
X032376Y002726D02*
X032378Y002799D01*
X032384Y002872D01*
X032394Y002944D01*
X032408Y003016D01*
X032425Y003087D01*
X032447Y003157D01*
X032472Y003226D01*
X032501Y003293D01*
X032533Y003358D01*
X032569Y003422D01*
X032609Y003484D01*
X032651Y003543D01*
X032697Y003600D01*
X032746Y003654D01*
X032798Y003706D01*
X032852Y003755D01*
X032909Y003801D01*
X032968Y003843D01*
X033030Y003883D01*
X033094Y003919D01*
X033159Y003951D01*
X033226Y003980D01*
X033295Y004005D01*
X033365Y004027D01*
X033436Y004044D01*
X033508Y004058D01*
X033580Y004068D01*
X033653Y004074D01*
X033726Y004076D01*
X033799Y004074D01*
X033872Y004068D01*
X033944Y004058D01*
X034016Y004044D01*
X034087Y004027D01*
X034157Y004005D01*
X034226Y003980D01*
X034293Y003951D01*
X034358Y003919D01*
X034422Y003883D01*
X034484Y003843D01*
X034543Y003801D01*
X034600Y003755D01*
X034654Y003706D01*
X034706Y003654D01*
X034755Y003600D01*
X034801Y003543D01*
X034843Y003484D01*
X034883Y003422D01*
X034919Y003358D01*
X034951Y003293D01*
X034980Y003226D01*
X035005Y003157D01*
X035027Y003087D01*
X035044Y003016D01*
X035058Y002944D01*
X035068Y002872D01*
X035074Y002799D01*
X035076Y002726D01*
X035074Y002653D01*
X035068Y002580D01*
X035058Y002508D01*
X035044Y002436D01*
X035027Y002365D01*
X035005Y002295D01*
X034980Y002226D01*
X034951Y002159D01*
X034919Y002094D01*
X034883Y002030D01*
X034843Y001968D01*
X034801Y001909D01*
X034755Y001852D01*
X034706Y001798D01*
X034654Y001746D01*
X034600Y001697D01*
X034543Y001651D01*
X034484Y001609D01*
X034422Y001569D01*
X034358Y001533D01*
X034293Y001501D01*
X034226Y001472D01*
X034157Y001447D01*
X034087Y001425D01*
X034016Y001408D01*
X033944Y001394D01*
X033872Y001384D01*
X033799Y001378D01*
X033726Y001376D01*
X033653Y001378D01*
X033580Y001384D01*
X033508Y001394D01*
X033436Y001408D01*
X033365Y001425D01*
X033295Y001447D01*
X033226Y001472D01*
X033159Y001501D01*
X033094Y001533D01*
X033030Y001569D01*
X032968Y001609D01*
X032909Y001651D01*
X032852Y001697D01*
X032798Y001746D01*
X032746Y001798D01*
X032697Y001852D01*
X032651Y001909D01*
X032609Y001968D01*
X032569Y002030D01*
X032533Y002094D01*
X032501Y002159D01*
X032472Y002226D01*
X032447Y002295D01*
X032425Y002365D01*
X032408Y002436D01*
X032394Y002508D01*
X032384Y002580D01*
X032378Y002653D01*
X032376Y002726D01*
X028910Y005879D02*
X028862Y005831D01*
X028765Y005831D01*
X028717Y005879D01*
X028717Y005927D01*
X028765Y005976D01*
X028862Y005976D01*
X028910Y005927D01*
X028910Y005879D01*
X028862Y005976D02*
X028910Y006024D01*
X028910Y006073D01*
X028862Y006121D01*
X028765Y006121D01*
X028717Y006073D01*
X028717Y006024D01*
X028765Y005976D01*
X028588Y005976D02*
X028395Y005976D01*
X028540Y006121D01*
X028540Y005831D01*
X028266Y005831D02*
X028072Y005831D01*
X028169Y005831D02*
X028169Y006121D01*
X028072Y006024D01*
X027944Y005976D02*
X027750Y005976D01*
X027895Y006121D01*
X027895Y005831D01*
X027621Y005831D02*
X027621Y006121D01*
X027428Y006121D02*
X027621Y005831D01*
X027428Y005831D02*
X027428Y006121D01*
X027202Y006121D02*
X027106Y006024D01*
X027202Y006121D02*
X027202Y005831D01*
X027106Y005831D02*
X027299Y005831D01*
X024448Y006731D02*
X024303Y006827D01*
X024448Y006924D01*
X024303Y007021D02*
X024303Y006731D01*
X024174Y006731D02*
X023981Y006731D01*
X024077Y006731D02*
X024077Y007021D01*
X023981Y006924D01*
X023448Y006924D02*
X023303Y006827D01*
X023448Y006731D01*
X023303Y006731D02*
X023303Y007021D01*
X023077Y007021D02*
X023077Y006731D01*
X022981Y006731D02*
X023174Y006731D01*
X022981Y006924D02*
X023077Y007021D01*
X022448Y006924D02*
X022303Y006827D01*
X022448Y006731D01*
X022303Y006731D02*
X022303Y007021D01*
X022077Y007021D02*
X022077Y006731D01*
X021981Y006731D02*
X022174Y006731D01*
X021981Y006924D02*
X022077Y007021D01*
X021905Y007756D02*
X021905Y007949D01*
X021905Y007852D02*
X022196Y007852D01*
X022147Y008078D02*
X022196Y008126D01*
X022196Y008223D01*
X022147Y008271D01*
X021954Y008271D01*
X021905Y008223D01*
X021905Y008126D01*
X021954Y008078D01*
X022002Y008078D01*
X022051Y008126D01*
X022051Y008271D01*
X022051Y008400D02*
X022051Y008594D01*
X022002Y008594D02*
X022196Y008594D01*
X022147Y008722D02*
X022196Y008771D01*
X022196Y008868D01*
X022147Y008916D01*
X022099Y008916D01*
X022051Y008868D01*
X022051Y008771D01*
X022002Y008722D01*
X021954Y008722D01*
X021905Y008771D01*
X021905Y008868D01*
X021954Y008916D01*
X021905Y009045D02*
X022051Y009045D01*
X022002Y009141D01*
X022002Y009190D01*
X022051Y009238D01*
X022147Y009238D01*
X022196Y009190D01*
X022196Y009093D01*
X022147Y009045D01*
X021905Y009045D02*
X021905Y009238D01*
X021905Y009367D02*
X021905Y009512D01*
X021954Y009560D01*
X022147Y009560D01*
X022196Y009512D01*
X022196Y009367D01*
X021905Y009367D01*
X022002Y009689D02*
X021905Y009786D01*
X022196Y009786D01*
X022196Y009689D02*
X022196Y009883D01*
X022196Y010011D02*
X022002Y010205D01*
X021954Y010205D01*
X021905Y010156D01*
X021905Y010060D01*
X021954Y010011D01*
X022196Y010011D02*
X022196Y010205D01*
X022051Y010334D02*
X022051Y010527D01*
X022002Y010656D02*
X021905Y010753D01*
X022196Y010753D01*
X022196Y010849D02*
X022196Y010656D01*
X022196Y010978D02*
X022002Y011172D01*
X021954Y011172D01*
X021905Y011123D01*
X021905Y011026D01*
X021954Y010978D01*
X022196Y010978D02*
X022196Y011172D01*
X022002Y008594D02*
X021905Y008497D01*
X022002Y008400D01*
X022196Y008400D01*
X020896Y006160D02*
X020896Y005967D01*
X020702Y006160D01*
X020654Y006160D01*
X020605Y006112D01*
X020605Y006015D01*
X020654Y005967D01*
X020654Y005838D02*
X020847Y005645D01*
X020896Y005693D01*
X020896Y005790D01*
X020847Y005838D01*
X020654Y005838D01*
X020605Y005790D01*
X020605Y005693D01*
X020654Y005645D01*
X020847Y005645D01*
X020847Y005516D02*
X020654Y005516D01*
X020847Y005322D01*
X020896Y005371D01*
X020896Y005468D01*
X020847Y005516D01*
X020654Y005516D02*
X020605Y005468D01*
X020605Y005371D01*
X020654Y005322D01*
X020847Y005322D01*
X020654Y005194D02*
X020847Y005000D01*
X020896Y005000D01*
X020896Y004871D02*
X020605Y004871D01*
X020605Y005000D02*
X020605Y005194D01*
X020654Y005194D01*
X020896Y004871D02*
X020605Y004678D01*
X020896Y004678D01*
X020896Y004549D02*
X020896Y004356D01*
X020702Y004549D01*
X020654Y004549D01*
X020605Y004501D01*
X020605Y004404D01*
X020654Y004356D01*
X020093Y003396D02*
X019947Y003396D01*
X019947Y003106D01*
X019947Y003202D02*
X020093Y003202D01*
X020141Y003251D01*
X020141Y003348D01*
X020093Y003396D01*
X020044Y003202D02*
X020141Y003106D01*
X017646Y003598D02*
X017646Y003791D01*
X017646Y003695D02*
X017355Y003695D01*
X017452Y003598D01*
X016940Y003574D02*
X016795Y003574D01*
X016747Y003526D01*
X016795Y003477D01*
X016892Y003477D01*
X016940Y003429D01*
X016892Y003381D01*
X016747Y003381D01*
X016629Y003381D02*
X016580Y003429D01*
X016580Y003623D01*
X016532Y003574D02*
X016629Y003574D01*
X016403Y003574D02*
X016403Y003381D01*
X016258Y003381D01*
X016210Y003429D01*
X016210Y003574D01*
X016081Y003526D02*
X016081Y003429D01*
X016032Y003381D01*
X015887Y003381D01*
X015887Y003284D02*
X015887Y003574D01*
X016032Y003574D01*
X016081Y003526D01*
X015769Y003574D02*
X015673Y003574D01*
X015721Y003623D02*
X015721Y003429D01*
X015769Y003381D01*
X015544Y003381D02*
X015544Y003574D01*
X015544Y003381D02*
X015399Y003381D01*
X015350Y003429D01*
X015350Y003574D01*
X015221Y003526D02*
X015173Y003574D01*
X015076Y003574D01*
X015028Y003526D01*
X015028Y003429D01*
X015076Y003381D01*
X015173Y003381D01*
X015221Y003429D01*
X015221Y003526D01*
X015135Y003881D02*
X015329Y003881D01*
X015458Y003929D02*
X015506Y003881D01*
X015603Y003881D01*
X015651Y003929D01*
X015651Y004026D01*
X015554Y004026D01*
X015458Y004123D02*
X015458Y003929D01*
X015458Y004123D02*
X015506Y004171D01*
X015603Y004171D01*
X015651Y004123D01*
X015780Y004074D02*
X015780Y003881D01*
X015877Y003881D02*
X015877Y004026D01*
X015925Y004074D01*
X015973Y004026D01*
X015973Y003881D01*
X016102Y003929D02*
X016102Y004026D01*
X016151Y004074D01*
X016247Y004074D01*
X016296Y004026D01*
X016296Y003977D01*
X016102Y003977D01*
X016102Y003929D02*
X016151Y003881D01*
X016247Y003881D01*
X016473Y003929D02*
X016521Y003881D01*
X016473Y003929D02*
X016473Y004123D01*
X016521Y004074D02*
X016424Y004074D01*
X016639Y004026D02*
X016688Y004074D01*
X016784Y004074D01*
X016833Y004026D01*
X016833Y003977D01*
X016639Y003977D01*
X016639Y003929D02*
X016639Y004026D01*
X016639Y003929D02*
X016688Y003881D01*
X016784Y003881D01*
X016961Y003881D02*
X016961Y004074D01*
X016961Y003977D02*
X017058Y004074D01*
X017107Y004074D01*
X017355Y004065D02*
X017404Y004114D01*
X017597Y003920D01*
X017646Y003969D01*
X017646Y004065D01*
X017597Y004114D01*
X017404Y004114D01*
X017355Y004065D02*
X017355Y003969D01*
X017404Y003920D01*
X017597Y003920D01*
X017597Y004243D02*
X017404Y004243D01*
X017355Y004291D01*
X017355Y004388D01*
X017404Y004436D01*
X017597Y004243D01*
X017646Y004291D01*
X017646Y004388D01*
X017597Y004436D01*
X017404Y004436D01*
X017355Y004887D02*
X017646Y004887D01*
X017549Y004887D02*
X017452Y005032D01*
X017549Y004887D02*
X017646Y005032D01*
X017362Y005581D02*
X017265Y005581D01*
X017217Y005629D01*
X017217Y005677D01*
X017265Y005726D01*
X017362Y005726D01*
X017410Y005677D01*
X017410Y005629D01*
X017362Y005581D01*
X017362Y005726D02*
X017410Y005774D01*
X017410Y005823D01*
X017362Y005871D01*
X017265Y005871D01*
X017217Y005823D01*
X017217Y005774D01*
X017265Y005726D01*
X017088Y005726D02*
X016895Y005726D01*
X017040Y005871D01*
X017040Y005581D01*
X016766Y005581D02*
X016572Y005581D01*
X016669Y005581D02*
X016669Y005871D01*
X016572Y005774D01*
X016444Y005726D02*
X016250Y005726D01*
X016395Y005871D01*
X016395Y005581D01*
X016121Y005581D02*
X016121Y005871D01*
X015928Y005871D02*
X016121Y005581D01*
X015928Y005581D02*
X015928Y005871D01*
X015702Y005871D02*
X015702Y005581D01*
X015606Y005581D02*
X015799Y005581D01*
X015606Y005774D02*
X015702Y005871D01*
X015329Y004171D02*
X015135Y004171D01*
X015135Y003881D01*
X015007Y003929D02*
X014958Y003881D01*
X014862Y003881D01*
X014813Y003929D01*
X014862Y004026D02*
X014958Y004026D01*
X015007Y003977D01*
X015007Y003929D01*
X015135Y004026D02*
X015232Y004026D01*
X015007Y004123D02*
X014958Y004171D01*
X014862Y004171D01*
X014813Y004123D01*
X014813Y004074D01*
X014862Y004026D01*
X014362Y004026D02*
X014362Y003881D01*
X014265Y003881D02*
X014265Y004026D01*
X014314Y004074D01*
X014362Y004026D01*
X014265Y004026D02*
X014217Y004074D01*
X014169Y004074D01*
X014169Y003881D01*
X014040Y003929D02*
X013992Y003881D01*
X013895Y003881D01*
X013846Y003929D01*
X013846Y004026D01*
X013895Y004074D01*
X013992Y004074D01*
X014040Y004026D01*
X014040Y003929D01*
X013895Y003671D02*
X013846Y003671D01*
X013895Y003671D02*
X013895Y003381D01*
X013943Y003381D02*
X013846Y003381D01*
X013718Y003477D02*
X013524Y003477D01*
X013524Y003429D02*
X013524Y003526D01*
X013573Y003574D01*
X013669Y003574D01*
X013718Y003526D01*
X013718Y003477D01*
X013669Y003381D02*
X013573Y003381D01*
X013524Y003429D01*
X013401Y003574D02*
X013352Y003574D01*
X013256Y003477D01*
X013256Y003381D02*
X013256Y003574D01*
X013256Y003881D02*
X013256Y004171D01*
X013449Y004171D01*
X013578Y004074D02*
X013578Y003881D01*
X013578Y003977D02*
X013675Y004074D01*
X013723Y004074D01*
X013352Y004026D02*
X013256Y004026D01*
X014110Y003574D02*
X014206Y003574D01*
X014255Y003526D01*
X014255Y003381D01*
X014110Y003381D01*
X014061Y003429D01*
X014110Y003477D01*
X014255Y003477D01*
X014384Y003429D02*
X014432Y003381D01*
X014577Y003381D01*
X014577Y003332D02*
X014529Y003284D01*
X014480Y003284D01*
X014577Y003332D02*
X014577Y003574D01*
X014384Y003574D02*
X014384Y003429D01*
X015227Y002623D02*
X015227Y002429D01*
X015131Y002526D02*
X015324Y002526D01*
X015877Y004026D02*
X015828Y004074D01*
X015780Y004074D01*
X010785Y004556D02*
X010592Y004556D01*
X010785Y004749D01*
X010785Y004798D01*
X010737Y004846D01*
X010640Y004846D01*
X010592Y004798D01*
X010463Y004798D02*
X010270Y004604D01*
X010318Y004556D01*
X010415Y004556D01*
X010463Y004604D01*
X010463Y004798D01*
X010415Y004846D01*
X010318Y004846D01*
X010270Y004798D01*
X010270Y004604D01*
X010141Y004604D02*
X010141Y004798D01*
X009947Y004604D01*
X009996Y004556D01*
X010093Y004556D01*
X010141Y004604D01*
X010141Y004798D02*
X010093Y004846D01*
X009996Y004846D01*
X009947Y004798D01*
X009947Y004604D01*
X009819Y004798D02*
X009625Y004604D01*
X009625Y004556D01*
X009496Y004556D02*
X009496Y004846D01*
X009625Y004846D02*
X009819Y004846D01*
X009819Y004798D01*
X009496Y004556D02*
X009303Y004846D01*
X009303Y004556D01*
X009174Y004556D02*
X008981Y004556D01*
X009174Y004749D01*
X009174Y004798D01*
X009126Y004846D01*
X009029Y004846D01*
X008981Y004798D01*
X008718Y003146D02*
X008766Y003098D01*
X008766Y003001D01*
X008718Y002952D01*
X008572Y002952D01*
X008572Y002856D02*
X008572Y003146D01*
X008718Y003146D01*
X008669Y002952D02*
X008766Y002856D01*
X008121Y002904D02*
X008073Y002856D01*
X007976Y002856D01*
X007928Y002904D01*
X008121Y003098D01*
X008121Y002904D01*
X007928Y002904D02*
X007928Y003098D01*
X007976Y003146D01*
X008073Y003146D01*
X008121Y003098D01*
X007799Y002856D02*
X007606Y002856D01*
X007702Y002856D02*
X007702Y003146D01*
X007606Y003049D01*
X007165Y003049D02*
X007020Y002952D01*
X007165Y002856D01*
X007020Y002856D02*
X007020Y003146D01*
X006569Y003098D02*
X006569Y002904D01*
X006520Y002856D01*
X006424Y002856D01*
X006375Y002904D01*
X006569Y003098D01*
X006520Y003146D01*
X006424Y003146D01*
X006375Y003098D01*
X006375Y002904D01*
X006246Y002904D02*
X006198Y002856D01*
X006101Y002856D01*
X006053Y002904D01*
X006246Y003098D01*
X006246Y002904D01*
X006053Y002904D02*
X006053Y003098D01*
X006101Y003146D01*
X006198Y003146D01*
X006246Y003098D01*
X005924Y002856D02*
X005731Y002856D01*
X005827Y002856D02*
X005827Y003146D01*
X005731Y003049D01*
X005670Y001824D02*
X005670Y001631D01*
X005938Y001421D02*
X005938Y001131D01*
X006035Y001227D01*
X006132Y001131D01*
X006132Y001421D01*
X006260Y001276D02*
X006260Y001179D01*
X006309Y001131D01*
X006406Y001131D01*
X006454Y001227D02*
X006260Y001227D01*
X006260Y001276D02*
X006309Y001324D01*
X006406Y001324D01*
X006454Y001276D01*
X006454Y001227D01*
X006583Y001276D02*
X006631Y001324D01*
X006776Y001324D01*
X006728Y001227D02*
X006631Y001227D01*
X006583Y001276D01*
X006583Y001131D02*
X006728Y001131D01*
X006776Y001179D01*
X006728Y001227D01*
X006905Y001324D02*
X007002Y001324D01*
X006953Y001373D02*
X006953Y001179D01*
X007002Y001131D01*
X007120Y001179D02*
X007168Y001131D01*
X007265Y001131D01*
X007313Y001179D01*
X007313Y001276D01*
X007265Y001324D01*
X007168Y001324D01*
X007120Y001276D01*
X007120Y001179D01*
X007442Y001131D02*
X007442Y001324D01*
X007587Y001324D01*
X007635Y001276D01*
X007635Y001131D01*
X007764Y001034D02*
X007861Y001131D01*
X007813Y001131D01*
X007813Y001179D01*
X007861Y001179D01*
X007861Y001131D01*
X005487Y001227D02*
X005294Y001227D01*
X005294Y001179D02*
X005294Y001276D01*
X005342Y001324D01*
X005439Y001324D01*
X005487Y001276D01*
X005487Y001227D01*
X005439Y001131D02*
X005342Y001131D01*
X005294Y001179D01*
X005170Y001131D02*
X005025Y001227D01*
X005170Y001324D01*
X005025Y001421D02*
X005025Y001131D01*
X004896Y001131D02*
X004896Y001324D01*
X004703Y001324D02*
X004703Y001179D01*
X004751Y001131D01*
X004896Y001131D01*
X004574Y001131D02*
X004381Y001131D01*
X004381Y001421D01*
X004703Y001776D02*
X004751Y001824D01*
X004896Y001824D01*
X005025Y001776D02*
X005074Y001824D01*
X005072Y005331D02*
X005266Y005331D01*
X005169Y005331D02*
X005169Y005621D01*
X005072Y005524D01*
X004944Y005476D02*
X004750Y005476D01*
X004895Y005621D01*
X004895Y005331D01*
X004621Y005331D02*
X004621Y005621D01*
X004428Y005621D02*
X004621Y005331D01*
X004428Y005331D02*
X004428Y005621D01*
X004202Y005621D02*
X004106Y005524D01*
X004202Y005621D02*
X004202Y005331D01*
X004106Y005331D02*
X004299Y005331D01*
X005395Y005476D02*
X005588Y005476D01*
X005717Y005524D02*
X005717Y005573D01*
X005765Y005621D01*
X005862Y005621D01*
X005910Y005573D01*
X005910Y005524D01*
X005862Y005476D01*
X005765Y005476D01*
X005717Y005524D01*
X005765Y005476D02*
X005717Y005427D01*
X005717Y005379D01*
X005765Y005331D01*
X005862Y005331D01*
X005910Y005379D01*
X005910Y005427D01*
X005862Y005476D01*
X005540Y005331D02*
X005540Y005621D01*
X005395Y005476D01*
X010405Y007756D02*
X010405Y007949D01*
X010405Y007852D02*
X010696Y007852D01*
X010647Y008078D02*
X010696Y008126D01*
X010696Y008223D01*
X010647Y008271D01*
X010454Y008271D01*
X010405Y008223D01*
X010405Y008126D01*
X010454Y008078D01*
X010502Y008078D01*
X010551Y008126D01*
X010551Y008271D01*
X010551Y008400D02*
X010551Y008594D01*
X010502Y008594D02*
X010696Y008594D01*
X010647Y008722D02*
X010696Y008771D01*
X010696Y008868D01*
X010647Y008916D01*
X010599Y008916D01*
X010551Y008868D01*
X010551Y008771D01*
X010502Y008722D01*
X010454Y008722D01*
X010405Y008771D01*
X010405Y008868D01*
X010454Y008916D01*
X010405Y009045D02*
X010551Y009045D01*
X010502Y009141D01*
X010502Y009190D01*
X010551Y009238D01*
X010647Y009238D01*
X010696Y009190D01*
X010696Y009093D01*
X010647Y009045D01*
X010405Y009045D02*
X010405Y009238D01*
X010405Y009367D02*
X010405Y009512D01*
X010454Y009560D01*
X010647Y009560D01*
X010696Y009512D01*
X010696Y009367D01*
X010405Y009367D01*
X010502Y009689D02*
X010405Y009786D01*
X010696Y009786D01*
X010696Y009689D02*
X010696Y009883D01*
X010696Y010011D02*
X010502Y010205D01*
X010454Y010205D01*
X010405Y010156D01*
X010405Y010060D01*
X010454Y010011D01*
X010696Y010011D02*
X010696Y010205D01*
X010551Y010334D02*
X010551Y010527D01*
X010502Y010656D02*
X010405Y010753D01*
X010696Y010753D01*
X010696Y010849D02*
X010696Y010656D01*
X010696Y010978D02*
X010502Y011172D01*
X010454Y011172D01*
X010405Y011123D01*
X010405Y011026D01*
X010454Y010978D01*
X010696Y010978D02*
X010696Y011172D01*
X010502Y008594D02*
X010405Y008497D01*
X010502Y008400D01*
X010696Y008400D01*
X010756Y017256D02*
X010756Y017546D01*
X010949Y017256D01*
X010949Y017546D01*
X011078Y017498D02*
X011126Y017546D01*
X011223Y017546D01*
X011271Y017498D01*
X011078Y017498D02*
X011078Y017304D01*
X011126Y017256D01*
X011223Y017256D01*
X011271Y017304D01*
X009726Y020076D02*
X009726Y022676D01*
X009726Y023626D01*
X005726Y023626D01*
X005726Y022676D01*
X005726Y020076D01*
X009726Y020076D01*
X009726Y022676D02*
X009076Y022676D01*
X008376Y022676D02*
X007076Y022676D01*
X006376Y022676D02*
X005726Y022676D01*
X001376Y022226D02*
X001378Y022299D01*
X001384Y022372D01*
X001394Y022444D01*
X001408Y022516D01*
X001425Y022587D01*
X001447Y022657D01*
X001472Y022726D01*
X001501Y022793D01*
X001533Y022858D01*
X001569Y022922D01*
X001609Y022984D01*
X001651Y023043D01*
X001697Y023100D01*
X001746Y023154D01*
X001798Y023206D01*
X001852Y023255D01*
X001909Y023301D01*
X001968Y023343D01*
X002030Y023383D01*
X002094Y023419D01*
X002159Y023451D01*
X002226Y023480D01*
X002295Y023505D01*
X002365Y023527D01*
X002436Y023544D01*
X002508Y023558D01*
X002580Y023568D01*
X002653Y023574D01*
X002726Y023576D01*
X002799Y023574D01*
X002872Y023568D01*
X002944Y023558D01*
X003016Y023544D01*
X003087Y023527D01*
X003157Y023505D01*
X003226Y023480D01*
X003293Y023451D01*
X003358Y023419D01*
X003422Y023383D01*
X003484Y023343D01*
X003543Y023301D01*
X003600Y023255D01*
X003654Y023206D01*
X003706Y023154D01*
X003755Y023100D01*
X003801Y023043D01*
X003843Y022984D01*
X003883Y022922D01*
X003919Y022858D01*
X003951Y022793D01*
X003980Y022726D01*
X004005Y022657D01*
X004027Y022587D01*
X004044Y022516D01*
X004058Y022444D01*
X004068Y022372D01*
X004074Y022299D01*
X004076Y022226D01*
X004074Y022153D01*
X004068Y022080D01*
X004058Y022008D01*
X004044Y021936D01*
X004027Y021865D01*
X004005Y021795D01*
X003980Y021726D01*
X003951Y021659D01*
X003919Y021594D01*
X003883Y021530D01*
X003843Y021468D01*
X003801Y021409D01*
X003755Y021352D01*
X003706Y021298D01*
X003654Y021246D01*
X003600Y021197D01*
X003543Y021151D01*
X003484Y021109D01*
X003422Y021069D01*
X003358Y021033D01*
X003293Y021001D01*
X003226Y020972D01*
X003157Y020947D01*
X003087Y020925D01*
X003016Y020908D01*
X002944Y020894D01*
X002872Y020884D01*
X002799Y020878D01*
X002726Y020876D01*
X002653Y020878D01*
X002580Y020884D01*
X002508Y020894D01*
X002436Y020908D01*
X002365Y020925D01*
X002295Y020947D01*
X002226Y020972D01*
X002159Y021001D01*
X002094Y021033D01*
X002030Y021069D01*
X001968Y021109D01*
X001909Y021151D01*
X001852Y021197D01*
X001798Y021246D01*
X001746Y021298D01*
X001697Y021352D01*
X001651Y021409D01*
X001609Y021468D01*
X001569Y021530D01*
X001533Y021594D01*
X001501Y021659D01*
X001472Y021726D01*
X001447Y021795D01*
X001425Y021865D01*
X001408Y021936D01*
X001394Y022008D01*
X001384Y022080D01*
X001378Y022153D01*
X001376Y022226D01*
X015226Y022676D02*
X015226Y020076D01*
X019226Y020076D01*
X019226Y022676D01*
X019226Y023626D01*
X015226Y023626D01*
X015226Y022676D01*
X015876Y022676D01*
X016576Y022676D02*
X017876Y022676D01*
X018576Y022676D02*
X019226Y022676D01*
X022256Y017546D02*
X022449Y017256D01*
X022449Y017546D01*
X022578Y017498D02*
X022578Y017304D01*
X022626Y017256D01*
X022723Y017256D01*
X022771Y017304D01*
X022771Y017498D02*
X022723Y017546D01*
X022626Y017546D01*
X022578Y017498D01*
X022256Y017546D02*
X022256Y017256D01*
X026726Y020076D02*
X026726Y022676D01*
X027376Y022676D01*
X026726Y022676D02*
X026726Y023626D01*
X030726Y023626D01*
X030726Y022676D01*
X030076Y022676D01*
X030726Y022676D02*
X030726Y020076D01*
X026726Y020076D01*
X028076Y022676D02*
X029376Y022676D01*
X032376Y022226D02*
X032378Y022299D01*
X032384Y022372D01*
X032394Y022444D01*
X032408Y022516D01*
X032425Y022587D01*
X032447Y022657D01*
X032472Y022726D01*
X032501Y022793D01*
X032533Y022858D01*
X032569Y022922D01*
X032609Y022984D01*
X032651Y023043D01*
X032697Y023100D01*
X032746Y023154D01*
X032798Y023206D01*
X032852Y023255D01*
X032909Y023301D01*
X032968Y023343D01*
X033030Y023383D01*
X033094Y023419D01*
X033159Y023451D01*
X033226Y023480D01*
X033295Y023505D01*
X033365Y023527D01*
X033436Y023544D01*
X033508Y023558D01*
X033580Y023568D01*
X033653Y023574D01*
X033726Y023576D01*
X033799Y023574D01*
X033872Y023568D01*
X033944Y023558D01*
X034016Y023544D01*
X034087Y023527D01*
X034157Y023505D01*
X034226Y023480D01*
X034293Y023451D01*
X034358Y023419D01*
X034422Y023383D01*
X034484Y023343D01*
X034543Y023301D01*
X034600Y023255D01*
X034654Y023206D01*
X034706Y023154D01*
X034755Y023100D01*
X034801Y023043D01*
X034843Y022984D01*
X034883Y022922D01*
X034919Y022858D01*
X034951Y022793D01*
X034980Y022726D01*
X035005Y022657D01*
X035027Y022587D01*
X035044Y022516D01*
X035058Y022444D01*
X035068Y022372D01*
X035074Y022299D01*
X035076Y022226D01*
X035074Y022153D01*
X035068Y022080D01*
X035058Y022008D01*
X035044Y021936D01*
X035027Y021865D01*
X035005Y021795D01*
X034980Y021726D01*
X034951Y021659D01*
X034919Y021594D01*
X034883Y021530D01*
X034843Y021468D01*
X034801Y021409D01*
X034755Y021352D01*
X034706Y021298D01*
X034654Y021246D01*
X034600Y021197D01*
X034543Y021151D01*
X034484Y021109D01*
X034422Y021069D01*
X034358Y021033D01*
X034293Y021001D01*
X034226Y020972D01*
X034157Y020947D01*
X034087Y020925D01*
X034016Y020908D01*
X033944Y020894D01*
X033872Y020884D01*
X033799Y020878D01*
X033726Y020876D01*
X033653Y020878D01*
X033580Y020884D01*
X033508Y020894D01*
X033436Y020908D01*
X033365Y020925D01*
X033295Y020947D01*
X033226Y020972D01*
X033159Y021001D01*
X033094Y021033D01*
X033030Y021069D01*
X032968Y021109D01*
X032909Y021151D01*
X032852Y021197D01*
X032798Y021246D01*
X032746Y021298D01*
X032697Y021352D01*
X032651Y021409D01*
X032609Y021468D01*
X032569Y021530D01*
X032533Y021594D01*
X032501Y021659D01*
X032472Y021726D01*
X032447Y021795D01*
X032425Y021865D01*
X032408Y021936D01*
X032394Y022008D01*
X032384Y022080D01*
X032378Y022153D01*
X032376Y022226D01*
X033756Y017546D02*
X033949Y017256D01*
X033949Y017546D01*
X034078Y017498D02*
X034126Y017546D01*
X034223Y017546D01*
X034271Y017498D01*
X034078Y017498D02*
X034078Y017304D01*
X034126Y017256D01*
X034223Y017256D01*
X034271Y017304D01*
X033756Y017256D02*
X033756Y017546D01*
X033696Y011172D02*
X033696Y010978D01*
X033502Y011172D01*
X033454Y011172D01*
X033405Y011123D01*
X033405Y011026D01*
X033454Y010978D01*
X033405Y010753D02*
X033696Y010753D01*
X033696Y010849D02*
X033696Y010656D01*
X033502Y010656D02*
X033405Y010753D01*
X033551Y010527D02*
X033551Y010334D01*
X033502Y010205D02*
X033454Y010205D01*
X033405Y010156D01*
X033405Y010060D01*
X033454Y010011D01*
X033502Y010205D02*
X033696Y010011D01*
X033696Y010205D01*
X033696Y009883D02*
X033696Y009689D01*
X033696Y009786D02*
X033405Y009786D01*
X033502Y009689D01*
X033454Y009560D02*
X033405Y009512D01*
X033405Y009367D01*
X033696Y009367D01*
X033696Y009512D01*
X033647Y009560D01*
X033454Y009560D01*
X033405Y009238D02*
X033405Y009045D01*
X033551Y009045D01*
X033502Y009141D01*
X033502Y009190D01*
X033551Y009238D01*
X033647Y009238D01*
X033696Y009190D01*
X033696Y009093D01*
X033647Y009045D01*
X033647Y008916D02*
X033696Y008868D01*
X033696Y008771D01*
X033647Y008722D01*
X033551Y008771D02*
X033551Y008868D01*
X033599Y008916D01*
X033647Y008916D01*
X033551Y008771D02*
X033502Y008722D01*
X033454Y008722D01*
X033405Y008771D01*
X033405Y008868D01*
X033454Y008916D01*
X033502Y008594D02*
X033696Y008594D01*
X033551Y008594D02*
X033551Y008400D01*
X033502Y008400D02*
X033696Y008400D01*
X033647Y008271D02*
X033454Y008271D01*
X033405Y008223D01*
X033405Y008126D01*
X033454Y008078D01*
X033502Y008078D01*
X033551Y008126D01*
X033551Y008271D01*
X033647Y008271D02*
X033696Y008223D01*
X033696Y008126D01*
X033647Y008078D01*
X033696Y007852D02*
X033405Y007852D01*
X033405Y007756D02*
X033405Y007949D01*
X033502Y008400D02*
X033405Y008497D01*
X033502Y008594D01*
D11*
X024851Y002851D02*
X024851Y002351D01*
X024726Y002226D01*
X024851Y002851D02*
X024601Y003101D01*
X024113Y003101D01*
X023719Y003101D02*
X023232Y003101D01*
X022838Y003101D02*
X022351Y003101D01*
X022226Y002976D01*
X018726Y002851D02*
X018476Y003101D01*
X018475Y003101D02*
X018027Y003101D01*
X017634Y003101D02*
X017185Y003101D01*
X016792Y003101D02*
X016343Y003101D01*
X015950Y003101D02*
X015501Y003101D01*
X015108Y003101D02*
X014660Y003101D01*
X014266Y003101D02*
X013818Y003101D01*
X013424Y003101D02*
X012976Y003101D01*
X012726Y002851D01*
D12*
X020548Y021534D03*
D13*
X020548Y021537D03*
D14*
X020548Y021540D03*
D15*
X020548Y021543D03*
X020548Y021630D03*
D16*
X020548Y021621D03*
X020548Y021618D03*
X020548Y021546D03*
D17*
X020548Y021549D03*
X020548Y021552D03*
X020548Y021615D03*
D18*
X020548Y021609D03*
X020548Y021555D03*
D19*
X020548Y021558D03*
X020548Y021561D03*
X020548Y021603D03*
X020548Y021606D03*
D20*
X020548Y021600D03*
X020548Y021597D03*
X020548Y021594D03*
X020548Y021570D03*
X020548Y021567D03*
X020548Y021564D03*
D21*
X020548Y021573D03*
X020548Y021576D03*
X020548Y021579D03*
X020548Y021582D03*
X020548Y021585D03*
X020548Y021588D03*
X020548Y021591D03*
D22*
X020550Y021612D03*
D23*
X020548Y021624D03*
X020548Y021627D03*
D24*
X020535Y021834D03*
X021087Y022122D03*
X021087Y022125D03*
X021090Y022119D03*
X021093Y022113D03*
X021102Y022098D03*
X021105Y022092D03*
X021108Y022089D03*
X021108Y022086D03*
X021117Y022074D03*
X021117Y022071D03*
X021120Y022068D03*
X021120Y022065D03*
X021123Y022062D03*
X021123Y022059D03*
X021132Y022047D03*
X021132Y022044D03*
X021135Y022041D03*
X021138Y022035D03*
X021147Y022020D03*
X021150Y022014D03*
X021153Y022011D03*
X021153Y022008D03*
X021162Y021996D03*
X021162Y021993D03*
X021165Y021990D03*
X021165Y021987D03*
X021168Y021984D03*
X021177Y021969D03*
X021177Y021966D03*
X021180Y021963D03*
X021183Y021957D03*
X021192Y021942D03*
X021195Y021936D03*
X021198Y021933D03*
X021198Y021930D03*
X021207Y021918D03*
X021207Y021915D03*
X021210Y021912D03*
X021210Y021909D03*
X021213Y021906D03*
X021222Y021891D03*
X021222Y021888D03*
X021225Y021885D03*
X021228Y021879D03*
X021237Y021864D03*
X021240Y021861D03*
X021240Y021858D03*
X021243Y021855D03*
X021243Y021852D03*
X021252Y021840D03*
X021252Y021837D03*
X021255Y021834D03*
X021255Y021831D03*
X021258Y021828D03*
X021267Y021813D03*
X021267Y021810D03*
X021270Y021807D03*
X021273Y021801D03*
X021282Y021786D03*
X021285Y021783D03*
X021285Y021780D03*
X021288Y021777D03*
X021288Y021774D03*
X021297Y021762D03*
X021297Y021759D03*
X021300Y021756D03*
X021300Y021753D03*
X021303Y021750D03*
X021312Y021735D03*
X021312Y021732D03*
X021315Y021729D03*
X021318Y021723D03*
X021327Y021708D03*
X021330Y021705D03*
X021330Y021702D03*
X021333Y021699D03*
X021333Y021696D03*
X021342Y021684D03*
X021342Y021681D03*
X021345Y021678D03*
X021345Y021675D03*
X021348Y021672D03*
X021357Y021657D03*
X021357Y021654D03*
X021360Y021651D03*
X021363Y021648D03*
X021363Y021645D03*
X021078Y022140D03*
X021075Y022143D03*
X021075Y022146D03*
X021072Y022149D03*
X021063Y022164D03*
X021063Y022167D03*
X021060Y022170D03*
X021057Y022176D03*
X021048Y022191D03*
X021045Y022197D03*
X021042Y022200D03*
X021042Y022203D03*
X021033Y022218D03*
X021030Y022221D03*
X021030Y022224D03*
X021027Y022227D03*
X021018Y022242D03*
X021018Y022245D03*
X021015Y022248D03*
X021012Y022254D03*
X021003Y022269D03*
X021000Y022275D03*
X020997Y022278D03*
X020997Y022281D03*
X020988Y022296D03*
X020985Y022299D03*
X020985Y022302D03*
X020982Y022305D03*
X020973Y022320D03*
X020973Y022323D03*
X020970Y022326D03*
X020967Y022332D03*
X020958Y022347D03*
X020955Y022353D03*
X020952Y022356D03*
X020952Y022359D03*
X020943Y022374D03*
X020940Y022377D03*
X020940Y022380D03*
X020937Y022383D03*
X020928Y022398D03*
X020928Y022401D03*
X020925Y022404D03*
X020922Y022410D03*
X020913Y022425D03*
X020910Y022431D03*
X020907Y022434D03*
X020907Y022437D03*
X020898Y022449D03*
X020898Y022452D03*
X020895Y022455D03*
X020895Y022458D03*
X020892Y022461D03*
X020883Y022476D03*
X020883Y022479D03*
X020880Y022482D03*
X020877Y022488D03*
X020868Y022503D03*
X020865Y022509D03*
X020862Y022512D03*
X020862Y022515D03*
X020853Y022527D03*
X020853Y022530D03*
X020850Y022533D03*
X020850Y022536D03*
X020847Y022539D03*
X020838Y022554D03*
X020838Y022557D03*
X020835Y022560D03*
X020832Y022566D03*
X020823Y022581D03*
X020820Y022587D03*
X020817Y022590D03*
X020817Y022593D03*
X020808Y022605D03*
X020808Y022608D03*
X020805Y022611D03*
X020805Y022614D03*
X020802Y022617D03*
X020793Y022632D03*
X020793Y022635D03*
X020790Y022638D03*
X020787Y022644D03*
X020778Y022659D03*
X020775Y022665D03*
X020772Y022668D03*
X020772Y022671D03*
X020763Y022683D03*
X020763Y022686D03*
X020760Y022689D03*
X020760Y022692D03*
X020757Y022695D03*
X020748Y022710D03*
X020748Y022713D03*
X020745Y022716D03*
X020742Y022722D03*
X020733Y022737D03*
X020730Y022740D03*
X020730Y022743D03*
X020727Y022746D03*
X020727Y022749D03*
X020718Y022761D03*
X020718Y022764D03*
X020715Y022767D03*
X020715Y022770D03*
X020712Y022773D03*
X020703Y022788D03*
X020700Y022794D03*
X020697Y022800D03*
X020688Y022815D03*
X020685Y022818D03*
X020685Y022821D03*
X020682Y022824D03*
X020682Y022827D03*
X020673Y022839D03*
X020673Y022842D03*
X020670Y022845D03*
X020670Y022848D03*
X020667Y022851D03*
X020658Y022866D03*
X020655Y022872D03*
X020652Y022878D03*
X020643Y022893D03*
X020640Y022896D03*
X020640Y022899D03*
X020637Y022902D03*
X020637Y022905D03*
X020628Y022917D03*
X020628Y022920D03*
X020625Y022923D03*
X020625Y022926D03*
X020622Y022929D03*
X020613Y022944D03*
X020610Y022950D03*
X020607Y022956D03*
X020490Y022956D03*
X020490Y022953D03*
X020487Y022950D03*
X020478Y022935D03*
X020478Y022932D03*
X020475Y022929D03*
X020472Y022923D03*
X020463Y022908D03*
X020460Y022902D03*
X020457Y022899D03*
X020457Y022896D03*
X020448Y022881D03*
X020445Y022878D03*
X020445Y022875D03*
X020442Y022872D03*
X020433Y022857D03*
X020433Y022854D03*
X020430Y022851D03*
X020427Y022845D03*
X020418Y022830D03*
X020415Y022824D03*
X020412Y022821D03*
X020412Y022818D03*
X020403Y022806D03*
X020403Y022803D03*
X020400Y022800D03*
X020400Y022797D03*
X020397Y022794D03*
X020388Y022779D03*
X020388Y022776D03*
X020385Y022773D03*
X020382Y022767D03*
X020373Y022752D03*
X020370Y022746D03*
X020367Y022743D03*
X020367Y022740D03*
X020358Y022728D03*
X020358Y022725D03*
X020355Y022722D03*
X020355Y022719D03*
X020352Y022716D03*
X020343Y022701D03*
X020343Y022698D03*
X020340Y022695D03*
X020337Y022689D03*
X020328Y022674D03*
X020325Y022668D03*
X020322Y022665D03*
X020322Y022662D03*
X020313Y022650D03*
X020313Y022647D03*
X020310Y022644D03*
X020310Y022641D03*
X020307Y022638D03*
X020298Y022623D03*
X020298Y022620D03*
X020295Y022617D03*
X020292Y022611D03*
X020283Y022596D03*
X020280Y022593D03*
X020280Y022590D03*
X020277Y022587D03*
X020277Y022584D03*
X020268Y022572D03*
X020268Y022569D03*
X020265Y022566D03*
X020265Y022563D03*
X020262Y022560D03*
X020253Y022545D03*
X020250Y022539D03*
X020247Y022533D03*
X020238Y022518D03*
X020235Y022515D03*
X020235Y022512D03*
X020232Y022509D03*
X020232Y022506D03*
X020223Y022494D03*
X020223Y022491D03*
X020220Y022488D03*
X020220Y022485D03*
X020217Y022482D03*
X020208Y022467D03*
X020205Y022461D03*
X020202Y022455D03*
X020193Y022440D03*
X020190Y022437D03*
X020190Y022434D03*
X020187Y022431D03*
X020187Y022428D03*
X020178Y022416D03*
X020178Y022413D03*
X020175Y022410D03*
X020175Y022407D03*
X020172Y022404D03*
X020163Y022389D03*
X020160Y022383D03*
X020157Y022380D03*
X020157Y022377D03*
X020148Y022362D03*
X020145Y022359D03*
X020145Y022356D03*
X020142Y022353D03*
X020142Y022350D03*
X020133Y022338D03*
X020133Y022335D03*
X020130Y022332D03*
X020130Y022329D03*
X020127Y022326D03*
X020118Y022311D03*
X020115Y022305D03*
X020112Y022302D03*
X020112Y022299D03*
X020103Y022284D03*
X020100Y022281D03*
X020100Y022278D03*
X020097Y022275D03*
X020097Y022272D03*
X020088Y022260D03*
X020088Y022257D03*
X020085Y022254D03*
X020082Y022248D03*
X020073Y022233D03*
X020070Y022227D03*
X020067Y022224D03*
X020067Y022221D03*
X020058Y022206D03*
X020055Y022203D03*
X020055Y022200D03*
X020052Y022197D03*
X020052Y022194D03*
X020043Y022182D03*
X020043Y022179D03*
X020040Y022176D03*
X020037Y022170D03*
X020028Y022155D03*
X020025Y022149D03*
X020022Y022146D03*
X020022Y022143D03*
X020013Y022128D03*
X020010Y022125D03*
X020010Y022122D03*
X020007Y022119D03*
X020007Y022116D03*
X019998Y022104D03*
X019998Y022101D03*
X019995Y022098D03*
X019992Y022092D03*
X019983Y022077D03*
X019980Y022071D03*
X019977Y022068D03*
X019977Y022065D03*
X019968Y022050D03*
X019965Y022047D03*
X019965Y022044D03*
X019962Y022041D03*
X019962Y022038D03*
X019953Y022026D03*
X019953Y022023D03*
X019950Y022020D03*
X019947Y022014D03*
X019938Y021999D03*
X019935Y021993D03*
X019932Y021990D03*
X019932Y021987D03*
X019923Y021972D03*
X019920Y021969D03*
X019920Y021966D03*
X019917Y021963D03*
X019908Y021948D03*
X019908Y021945D03*
X019905Y021942D03*
X019902Y021936D03*
X019893Y021921D03*
X019890Y021915D03*
X019887Y021912D03*
X019887Y021909D03*
X019878Y021894D03*
X019875Y021891D03*
X019875Y021888D03*
X019872Y021885D03*
X019863Y021870D03*
X019863Y021867D03*
X019860Y021864D03*
X019857Y021858D03*
X019848Y021843D03*
X019845Y021837D03*
X019842Y021834D03*
X019842Y021831D03*
X019833Y021819D03*
X019833Y021816D03*
X019830Y021813D03*
X019830Y021810D03*
X019827Y021807D03*
X019818Y021792D03*
X019818Y021789D03*
X019815Y021786D03*
X019812Y021780D03*
X019803Y021765D03*
X019800Y021759D03*
X019797Y021756D03*
X019797Y021753D03*
X019788Y021741D03*
X019788Y021738D03*
X019785Y021735D03*
X019785Y021732D03*
X019782Y021729D03*
X019773Y021714D03*
X019773Y021711D03*
X019770Y021708D03*
X019767Y021702D03*
X019758Y021687D03*
X019755Y021681D03*
X019752Y021678D03*
X019752Y021675D03*
X019743Y021663D03*
X019743Y021660D03*
X019740Y021657D03*
X019740Y021654D03*
X019737Y021651D03*
X019728Y021636D03*
X019728Y021633D03*
X020463Y022341D03*
X020472Y022365D03*
X020625Y022275D03*
D25*
X020470Y022362D03*
X020479Y022386D03*
X020227Y022500D03*
X020215Y022479D03*
X020194Y022443D03*
X020182Y022422D03*
X020170Y022401D03*
X020149Y022365D03*
X020137Y022344D03*
X020125Y022323D03*
X020104Y022287D03*
X020092Y022266D03*
X020080Y022245D03*
X020059Y022209D03*
X020047Y022188D03*
X020014Y022131D03*
X020002Y022110D03*
X019969Y022053D03*
X019957Y022032D03*
X019924Y021975D03*
X019915Y021960D03*
X019879Y021897D03*
X019870Y021882D03*
X019825Y021804D03*
X019780Y021726D03*
X019735Y021648D03*
X020947Y022365D03*
X020944Y022371D03*
X020935Y022386D03*
X020902Y022443D03*
X020890Y022464D03*
X020857Y022521D03*
X020845Y022542D03*
X020824Y022578D03*
X020812Y022599D03*
X020800Y022620D03*
X020779Y022656D03*
X020767Y022677D03*
X020755Y022698D03*
X020734Y022734D03*
X020722Y022755D03*
X020710Y022776D03*
X020689Y022812D03*
X020677Y022833D03*
X020665Y022854D03*
X020644Y022890D03*
X020632Y022911D03*
X020620Y022932D03*
X020485Y022947D03*
X020452Y022890D03*
X020449Y022884D03*
X020440Y022869D03*
X020419Y022833D03*
X020407Y022812D03*
X020395Y022791D03*
X020374Y022755D03*
X020362Y022734D03*
X020350Y022713D03*
X020329Y022677D03*
X020317Y022656D03*
X020305Y022635D03*
X020284Y022599D03*
X020272Y022578D03*
X020260Y022557D03*
X020980Y022308D03*
X020989Y022293D03*
X021025Y022230D03*
X021034Y022215D03*
X021070Y022152D03*
X021079Y022137D03*
X021112Y022080D03*
X021157Y022002D03*
X021169Y021981D03*
X021202Y021924D03*
X021214Y021903D03*
X021247Y021846D03*
X021259Y021825D03*
X021292Y021768D03*
X021304Y021747D03*
X021325Y021711D03*
X021337Y021690D03*
X021349Y021669D03*
X021370Y021633D03*
D26*
X021369Y021636D03*
X021366Y021639D03*
X021366Y021642D03*
X021354Y021660D03*
X021354Y021663D03*
X021351Y021666D03*
X021339Y021687D03*
X021336Y021693D03*
X021324Y021714D03*
X021321Y021717D03*
X021321Y021720D03*
X021309Y021738D03*
X021309Y021741D03*
X021306Y021744D03*
X021294Y021765D03*
X021291Y021771D03*
X021279Y021789D03*
X021279Y021792D03*
X021276Y021795D03*
X021276Y021798D03*
X021264Y021816D03*
X021264Y021819D03*
X021261Y021822D03*
X021249Y021843D03*
X021246Y021849D03*
X021234Y021867D03*
X021234Y021870D03*
X021231Y021873D03*
X021231Y021876D03*
X021219Y021894D03*
X021219Y021897D03*
X021216Y021900D03*
X021204Y021921D03*
X021201Y021927D03*
X021189Y021945D03*
X021189Y021948D03*
X021186Y021951D03*
X021186Y021954D03*
X021174Y021972D03*
X021174Y021975D03*
X021171Y021978D03*
X021159Y021999D03*
X021156Y022005D03*
X021144Y022023D03*
X021144Y022026D03*
X021141Y022029D03*
X021141Y022032D03*
X021129Y022050D03*
X021126Y022056D03*
X021114Y022077D03*
X021111Y022083D03*
X021099Y022101D03*
X021099Y022104D03*
X021096Y022107D03*
X021096Y022110D03*
X021084Y022128D03*
X021084Y022131D03*
X021081Y022134D03*
X021069Y022155D03*
X021066Y022158D03*
X021066Y022161D03*
X021054Y022179D03*
X021054Y022182D03*
X021051Y022185D03*
X021051Y022188D03*
X021039Y022206D03*
X021039Y022209D03*
X021036Y022212D03*
X021024Y022233D03*
X021021Y022236D03*
X021021Y022239D03*
X021009Y022257D03*
X021009Y022260D03*
X021006Y022263D03*
X021006Y022266D03*
X020994Y022284D03*
X020994Y022287D03*
X020991Y022290D03*
X020979Y022311D03*
X020976Y022314D03*
X020976Y022317D03*
X020964Y022335D03*
X020964Y022338D03*
X020961Y022341D03*
X020961Y022344D03*
X020949Y022362D03*
X020946Y022368D03*
X020934Y022389D03*
X020931Y022392D03*
X020931Y022395D03*
X020919Y022413D03*
X020919Y022416D03*
X020916Y022419D03*
X020916Y022422D03*
X020904Y022440D03*
X020901Y022446D03*
X020889Y022467D03*
X020886Y022470D03*
X020886Y022473D03*
X020874Y022491D03*
X020874Y022494D03*
X020871Y022497D03*
X020871Y022500D03*
X020859Y022518D03*
X020856Y022524D03*
X020844Y022545D03*
X020841Y022548D03*
X020841Y022551D03*
X020829Y022569D03*
X020829Y022572D03*
X020826Y022575D03*
X020814Y022596D03*
X020811Y022602D03*
X020799Y022623D03*
X020796Y022626D03*
X020796Y022629D03*
X020784Y022647D03*
X020784Y022650D03*
X020781Y022653D03*
X020769Y022674D03*
X020766Y022680D03*
X020754Y022701D03*
X020751Y022704D03*
X020751Y022707D03*
X020739Y022725D03*
X020739Y022728D03*
X020736Y022731D03*
X020724Y022752D03*
X020721Y022758D03*
X020709Y022779D03*
X020706Y022782D03*
X020706Y022785D03*
X020694Y022803D03*
X020694Y022806D03*
X020691Y022809D03*
X020679Y022830D03*
X020676Y022836D03*
X020664Y022857D03*
X020661Y022860D03*
X020661Y022863D03*
X020649Y022881D03*
X020649Y022884D03*
X020646Y022887D03*
X020634Y022908D03*
X020631Y022914D03*
X020619Y022935D03*
X020616Y022938D03*
X020616Y022941D03*
X020484Y022944D03*
X020481Y022941D03*
X020481Y022938D03*
X020469Y022920D03*
X020469Y022917D03*
X020466Y022914D03*
X020466Y022911D03*
X020454Y022893D03*
X020451Y022887D03*
X020439Y022866D03*
X020436Y022863D03*
X020436Y022860D03*
X020424Y022842D03*
X020424Y022839D03*
X020421Y022836D03*
X020409Y022815D03*
X020406Y022809D03*
X020394Y022788D03*
X020391Y022785D03*
X020391Y022782D03*
X020379Y022764D03*
X020379Y022761D03*
X020376Y022758D03*
X020364Y022737D03*
X020361Y022731D03*
X020349Y022710D03*
X020346Y022707D03*
X020346Y022704D03*
X020334Y022686D03*
X020334Y022683D03*
X020331Y022680D03*
X020319Y022659D03*
X020316Y022653D03*
X020304Y022632D03*
X020301Y022629D03*
X020301Y022626D03*
X020289Y022608D03*
X020289Y022605D03*
X020286Y022602D03*
X020274Y022581D03*
X020271Y022575D03*
X020259Y022554D03*
X020256Y022551D03*
X020256Y022548D03*
X020244Y022530D03*
X020244Y022527D03*
X020241Y022524D03*
X020229Y022503D03*
X020226Y022497D03*
X020214Y022476D03*
X020211Y022473D03*
X020211Y022470D03*
X020199Y022452D03*
X020199Y022449D03*
X020196Y022446D03*
X020184Y022425D03*
X020181Y022419D03*
X020169Y022398D03*
X020166Y022395D03*
X020166Y022392D03*
X020154Y022374D03*
X020154Y022371D03*
X020151Y022368D03*
X020139Y022347D03*
X020136Y022341D03*
X020124Y022320D03*
X020121Y022317D03*
X020121Y022314D03*
X020109Y022296D03*
X020109Y022293D03*
X020106Y022290D03*
X020094Y022269D03*
X020091Y022263D03*
X020079Y022242D03*
X020076Y022239D03*
X020076Y022236D03*
X020064Y022218D03*
X020064Y022215D03*
X020061Y022212D03*
X020049Y022191D03*
X020046Y022185D03*
X020034Y022167D03*
X020034Y022164D03*
X020031Y022161D03*
X020031Y022158D03*
X020019Y022140D03*
X020019Y022137D03*
X020016Y022134D03*
X020004Y022113D03*
X020001Y022107D03*
X019989Y022089D03*
X019989Y022086D03*
X019986Y022083D03*
X019986Y022080D03*
X019974Y022062D03*
X019974Y022059D03*
X019971Y022056D03*
X019959Y022035D03*
X019956Y022029D03*
X019944Y022011D03*
X019944Y022008D03*
X019941Y022005D03*
X019941Y022002D03*
X019929Y021984D03*
X019929Y021981D03*
X019926Y021978D03*
X019914Y021957D03*
X019911Y021954D03*
X019911Y021951D03*
X019899Y021933D03*
X019899Y021930D03*
X019896Y021927D03*
X019896Y021924D03*
X019884Y021906D03*
X019884Y021903D03*
X019881Y021900D03*
X019869Y021879D03*
X019866Y021876D03*
X019866Y021873D03*
X019854Y021855D03*
X019854Y021852D03*
X019851Y021849D03*
X019851Y021846D03*
X019839Y021828D03*
X019839Y021825D03*
X019836Y021822D03*
X019824Y021801D03*
X019821Y021798D03*
X019821Y021795D03*
X019809Y021777D03*
X019809Y021774D03*
X019806Y021771D03*
X019806Y021768D03*
X019794Y021750D03*
X019794Y021747D03*
X019791Y021744D03*
X019779Y021723D03*
X019776Y021720D03*
X019776Y021717D03*
X019764Y021699D03*
X019764Y021696D03*
X019761Y021693D03*
X019761Y021690D03*
X019749Y021672D03*
X019749Y021669D03*
X019746Y021666D03*
X019734Y021645D03*
X019731Y021642D03*
X019731Y021639D03*
X020409Y022155D03*
X020466Y022347D03*
X020466Y022350D03*
X020469Y022356D03*
X020469Y022359D03*
D27*
X020473Y022368D03*
X020473Y022371D03*
X020476Y022374D03*
X020476Y022377D03*
X020476Y022380D03*
X020248Y022536D03*
X020251Y022542D03*
X020293Y022614D03*
X020326Y022671D03*
X020338Y022692D03*
X020371Y022749D03*
X020383Y022770D03*
X020416Y022827D03*
X020428Y022848D03*
X020461Y022905D03*
X020473Y022926D03*
X020608Y022953D03*
X020611Y022947D03*
X020653Y022875D03*
X020656Y022869D03*
X020698Y022797D03*
X020701Y022791D03*
X020743Y022719D03*
X020788Y022641D03*
X020821Y022584D03*
X020833Y022563D03*
X020866Y022506D03*
X020878Y022485D03*
X020911Y022428D03*
X020923Y022407D03*
X020956Y022350D03*
X020968Y022329D03*
X021001Y022272D03*
X021013Y022251D03*
X021046Y022194D03*
X021058Y022173D03*
X021091Y022116D03*
X021103Y022095D03*
X021136Y022038D03*
X021148Y022017D03*
X021181Y021960D03*
X021193Y021939D03*
X021226Y021882D03*
X021271Y021804D03*
X021316Y021726D03*
X020536Y021837D03*
X020536Y021840D03*
X020026Y022152D03*
X020038Y022173D03*
X020071Y022230D03*
X020083Y022251D03*
X020116Y022308D03*
X020161Y022386D03*
X020203Y022458D03*
X020206Y022464D03*
X019993Y022095D03*
X019981Y022074D03*
X019948Y022017D03*
X019936Y021996D03*
X019903Y021939D03*
X019891Y021918D03*
X019858Y021861D03*
X019846Y021840D03*
X019813Y021783D03*
X019801Y021762D03*
X019768Y021705D03*
X019756Y021684D03*
X020548Y023052D03*
X020548Y023055D03*
D28*
X020338Y022092D03*
X020467Y021924D03*
X020467Y021921D03*
X020626Y021891D03*
X020500Y021708D03*
D29*
X020502Y021711D03*
X020502Y021714D03*
X020472Y021912D03*
X020469Y021918D03*
X020625Y021888D03*
X020694Y022341D03*
D30*
X020341Y022095D03*
X020470Y021915D03*
X020473Y021909D03*
X020617Y021882D03*
X020620Y021885D03*
X020503Y021717D03*
D31*
X020505Y021720D03*
X020505Y021723D03*
X020475Y021903D03*
X020475Y021906D03*
X020613Y021879D03*
X020346Y022098D03*
X020691Y022338D03*
D32*
X020689Y022335D03*
X020476Y021900D03*
X020479Y021894D03*
X020506Y021726D03*
D33*
X020506Y021729D03*
X020548Y023103D03*
D34*
X020682Y022329D03*
X020352Y022104D03*
X020484Y021882D03*
X020487Y021876D03*
X020601Y021867D03*
X020508Y021735D03*
X020508Y021732D03*
D35*
X020509Y021738D03*
X020488Y021873D03*
X020485Y021879D03*
X020596Y021864D03*
D36*
X020592Y021861D03*
X020490Y021870D03*
X020511Y021744D03*
X020511Y021741D03*
X020355Y022107D03*
X020679Y022326D03*
D37*
X020673Y022320D03*
X020361Y022113D03*
X020511Y021747D03*
D38*
X020512Y021750D03*
X020512Y021753D03*
X020548Y023100D03*
D39*
X020670Y022317D03*
X020364Y022116D03*
X020514Y021756D03*
D40*
X020515Y021759D03*
X020515Y021762D03*
X020368Y022119D03*
D41*
X020667Y022314D03*
X020517Y021765D03*
X020550Y023097D03*
D42*
X020541Y021870D03*
X020517Y021768D03*
D43*
X020518Y021771D03*
X020518Y021774D03*
X020542Y021873D03*
X020542Y021876D03*
X020542Y021879D03*
X020542Y021882D03*
X020545Y021891D03*
X020374Y022125D03*
X020659Y022308D03*
X020548Y023094D03*
D44*
X020379Y022128D03*
X020550Y021915D03*
X020547Y021903D03*
X020547Y021900D03*
X020547Y021897D03*
X020547Y021894D03*
X020544Y021888D03*
X020544Y021885D03*
X020520Y021777D03*
D45*
X020521Y021780D03*
X020521Y021783D03*
X020548Y021906D03*
X020548Y021909D03*
X020548Y021912D03*
X020551Y021918D03*
X020551Y021921D03*
X020551Y021924D03*
X020554Y021936D03*
X020656Y022305D03*
X020548Y023091D03*
D46*
X020548Y023088D03*
X020650Y022299D03*
X020563Y021981D03*
X020560Y021969D03*
X020560Y021966D03*
X020560Y021963D03*
X020560Y021960D03*
X020557Y021954D03*
X020557Y021951D03*
X020521Y021786D03*
D47*
X020523Y021789D03*
X020523Y021792D03*
X020562Y021972D03*
X020562Y021975D03*
X020562Y021978D03*
X020565Y021984D03*
X020565Y021987D03*
X020565Y021990D03*
X020568Y022002D03*
X020385Y022134D03*
D48*
X020569Y022014D03*
X020569Y022011D03*
X020569Y022008D03*
X020569Y022005D03*
X020566Y021999D03*
X020566Y021996D03*
X020566Y021993D03*
X020524Y021795D03*
X020548Y023085D03*
D49*
X020574Y022035D03*
X020574Y022032D03*
X020574Y022029D03*
X020574Y022026D03*
X020571Y022020D03*
X020571Y022017D03*
X020526Y021801D03*
X020526Y021798D03*
D50*
X020526Y021804D03*
X020583Y022071D03*
X020583Y022074D03*
X020583Y022077D03*
X020583Y022080D03*
X020586Y022089D03*
X020586Y022092D03*
D51*
X020587Y022095D03*
X020587Y022098D03*
X020587Y022101D03*
X020590Y022113D03*
X020584Y022086D03*
X020584Y022083D03*
X020395Y022143D03*
X020419Y022221D03*
X020419Y022224D03*
X020638Y022287D03*
X020521Y021858D03*
X020527Y021807D03*
X020548Y023073D03*
X020548Y023076D03*
D52*
X020430Y022251D03*
X020427Y022242D03*
X020424Y022236D03*
X020424Y022233D03*
X020421Y022230D03*
X020421Y022227D03*
X020418Y022218D03*
X020595Y022134D03*
X020592Y022125D03*
X020592Y022122D03*
X020592Y022119D03*
X020592Y022116D03*
X020589Y022110D03*
X020589Y022107D03*
X020589Y022104D03*
X020529Y021813D03*
X020529Y021810D03*
D53*
X020530Y021816D03*
X020521Y021861D03*
X020521Y021864D03*
X020521Y021867D03*
X020593Y022128D03*
X020593Y022131D03*
X020596Y022137D03*
X020596Y022140D03*
X020596Y022143D03*
X020596Y022146D03*
X020599Y022155D03*
X020599Y022158D03*
X020635Y022284D03*
X020434Y022263D03*
X020431Y022257D03*
X020431Y022254D03*
X020428Y022248D03*
X020428Y022245D03*
X020425Y022239D03*
X020398Y022146D03*
X020548Y023070D03*
D54*
X020550Y023067D03*
X020442Y022284D03*
X020439Y022278D03*
X020439Y022275D03*
X020439Y022272D03*
X020436Y022269D03*
X020436Y022266D03*
X020433Y022260D03*
X020403Y022149D03*
X020598Y022152D03*
X020598Y022149D03*
X020601Y022161D03*
X020601Y022164D03*
X020601Y022167D03*
X020604Y022179D03*
X020532Y021819D03*
D55*
X020530Y021822D03*
X020602Y022170D03*
X020602Y022173D03*
X020602Y022176D03*
X020605Y022182D03*
X020605Y022185D03*
X020605Y022188D03*
X020605Y022191D03*
X020608Y022200D03*
X020632Y022281D03*
X020449Y022302D03*
X020449Y022305D03*
X020446Y022299D03*
X020446Y022296D03*
X020446Y022293D03*
X020443Y022290D03*
X020443Y022287D03*
X020440Y022281D03*
X020548Y023064D03*
D56*
X020457Y022326D03*
X020457Y022323D03*
X020454Y022317D03*
X020454Y022314D03*
X020451Y022311D03*
X020451Y022308D03*
X020406Y022152D03*
X020607Y022194D03*
X020607Y022197D03*
X020628Y022278D03*
X020532Y021825D03*
D57*
X020533Y021828D03*
X020533Y021831D03*
X020455Y022320D03*
X020458Y022329D03*
X020458Y022332D03*
X020461Y022335D03*
X020461Y022338D03*
X020464Y022344D03*
X020548Y023058D03*
X020548Y023061D03*
D58*
X020548Y023049D03*
X020494Y022428D03*
X020494Y022425D03*
X020491Y022419D03*
X020491Y022416D03*
X020488Y022413D03*
X020488Y022410D03*
X020620Y022269D03*
X020416Y022161D03*
X020536Y021843D03*
D59*
X020538Y021846D03*
X020418Y022164D03*
X020616Y022266D03*
X020493Y022422D03*
X020496Y022431D03*
X020496Y022434D03*
X020499Y022437D03*
X020499Y022440D03*
X020502Y022446D03*
X020505Y022455D03*
D60*
X020506Y022458D03*
X020506Y022461D03*
X020509Y022467D03*
X020503Y022452D03*
X020503Y022449D03*
X020500Y022443D03*
X020548Y023043D03*
X020548Y023046D03*
X020539Y021852D03*
X020539Y021849D03*
D61*
X020541Y021855D03*
X020421Y022167D03*
X020613Y022263D03*
X020508Y022464D03*
X020511Y022470D03*
X020511Y022473D03*
X020514Y022476D03*
X020514Y022479D03*
X020514Y022482D03*
X020517Y022488D03*
D62*
X020674Y022323D03*
X020359Y022110D03*
X020590Y021858D03*
D63*
X020602Y021870D03*
X020482Y021885D03*
X020482Y021888D03*
D64*
X020478Y021897D03*
X020607Y021873D03*
X020610Y021876D03*
X020685Y022332D03*
D65*
X020349Y022101D03*
X020481Y021891D03*
D66*
X020553Y021927D03*
X020553Y021930D03*
X020553Y021933D03*
X020556Y021939D03*
X020556Y021942D03*
X020556Y021945D03*
X020556Y021948D03*
X020559Y021957D03*
X020382Y022131D03*
X020655Y022302D03*
D67*
X020647Y022296D03*
X020572Y022023D03*
D68*
X020575Y022038D03*
X020575Y022041D03*
X020575Y022044D03*
X020392Y022140D03*
X020644Y022293D03*
D69*
X020577Y022047D03*
X020388Y022137D03*
D70*
X020581Y022068D03*
X020578Y022056D03*
X020578Y022053D03*
X020578Y022050D03*
X020548Y023079D03*
X020548Y023082D03*
D71*
X020467Y022353D03*
X021127Y022053D03*
D72*
X020640Y022290D03*
X020580Y022065D03*
X020580Y022062D03*
X020580Y022059D03*
D73*
X020371Y022122D03*
D74*
X020412Y022158D03*
X020478Y022383D03*
X020481Y022389D03*
X020481Y022392D03*
X020484Y022395D03*
X020484Y022398D03*
X020484Y022401D03*
X020487Y022404D03*
X020487Y022407D03*
X020622Y022272D03*
D75*
X020425Y022170D03*
X020515Y022485D03*
X020518Y022491D03*
X020518Y022494D03*
X020521Y022497D03*
X020521Y022500D03*
X020521Y022503D03*
X020524Y022506D03*
X020524Y022509D03*
X020548Y023037D03*
X020548Y023040D03*
D76*
X020548Y023034D03*
X020548Y023031D03*
X020539Y022548D03*
X020536Y022542D03*
X020536Y022539D03*
X020533Y022536D03*
X020533Y022533D03*
X020530Y022524D03*
X020605Y022257D03*
X020428Y022173D03*
D77*
X020431Y022176D03*
X020548Y022572D03*
X020548Y022575D03*
X020551Y022578D03*
X020551Y022581D03*
X020551Y022584D03*
X020548Y023028D03*
D78*
X020548Y023025D03*
X020548Y023022D03*
X020560Y022605D03*
X020434Y022179D03*
D79*
X020439Y022182D03*
X020598Y022248D03*
D80*
X020442Y022185D03*
D81*
X020445Y022188D03*
X020589Y022239D03*
X020550Y023010D03*
D82*
X020548Y023007D03*
X020449Y022191D03*
D83*
X020452Y022194D03*
D84*
X020455Y022197D03*
X020578Y022230D03*
X020548Y022995D03*
X020548Y022998D03*
D85*
X020460Y022200D03*
D86*
X020515Y022203D03*
X020515Y022206D03*
X020515Y022209D03*
D87*
X020517Y022212D03*
D88*
X020518Y022215D03*
D89*
X020566Y022218D03*
X020548Y022980D03*
X020548Y022983D03*
D90*
X020548Y022986D03*
X020569Y022221D03*
D91*
X020571Y022224D03*
X020550Y022989D03*
D92*
X020548Y022992D03*
X020575Y022227D03*
D93*
X020581Y022233D03*
X020548Y023001D03*
X020548Y023004D03*
D94*
X020586Y022236D03*
D95*
X020590Y022242D03*
X020548Y023013D03*
D96*
X020548Y023016D03*
X020548Y023019D03*
X020593Y022245D03*
D97*
X020601Y022251D03*
X020553Y022587D03*
X020556Y022593D03*
X020556Y022596D03*
X020559Y022599D03*
X020559Y022602D03*
X020562Y022608D03*
D98*
X020544Y022563D03*
X020544Y022560D03*
X020541Y022554D03*
X020541Y022551D03*
X020604Y022254D03*
D99*
X020610Y022260D03*
X020526Y022512D03*
X020526Y022515D03*
X020529Y022518D03*
X020529Y022521D03*
X020532Y022527D03*
X020532Y022530D03*
D100*
X020662Y022311D03*
D101*
X020697Y022344D03*
D102*
X020538Y022545D03*
X020547Y022569D03*
D103*
X020542Y022557D03*
D104*
X020545Y022566D03*
X020554Y022590D03*
D105*
X020776Y022662D03*
D106*
X020548Y022959D03*
X020548Y022962D03*
D107*
X020548Y022965D03*
X020548Y022968D03*
D108*
X020548Y022971D03*
D109*
X020548Y022974D03*
X020548Y022977D03*
D110*
X021636Y022703D02*
X021699Y022766D01*
X021826Y022766D01*
X021889Y022703D01*
X021889Y022639D01*
X021636Y022386D01*
X021889Y022386D01*
X022050Y022576D02*
X022304Y022576D01*
X022240Y022386D02*
X022240Y022766D01*
X022050Y022576D01*
X022464Y022703D02*
X022528Y022766D01*
X022654Y022766D01*
X022718Y022703D01*
X022464Y022449D01*
X022528Y022386D01*
X022654Y022386D01*
X022718Y022449D01*
X022718Y022703D01*
X022879Y022766D02*
X022879Y022512D01*
X023005Y022386D01*
X023132Y022512D01*
X023132Y022766D01*
X023707Y022639D02*
X023707Y022386D01*
X023707Y022576D02*
X023961Y022576D01*
X023961Y022639D02*
X023961Y022386D01*
X024122Y022449D02*
X024122Y022703D01*
X024185Y022766D01*
X024312Y022766D01*
X024375Y022703D01*
X024375Y022449D02*
X024312Y022386D01*
X024185Y022386D01*
X024122Y022449D01*
X023961Y022639D02*
X023834Y022766D01*
X023707Y022639D01*
X023505Y022141D02*
X023632Y022014D01*
X023632Y021761D01*
X023632Y021951D02*
X023379Y021951D01*
X023379Y022014D02*
X023505Y022141D01*
X023379Y022014D02*
X023379Y021761D01*
X022804Y021824D02*
X022740Y021761D01*
X022613Y021761D01*
X022550Y021824D01*
X022804Y022078D01*
X022804Y021824D01*
X022804Y022078D02*
X022740Y022141D01*
X022613Y022141D01*
X022550Y022078D01*
X022550Y021824D01*
X022389Y021761D02*
X022136Y021761D01*
X022389Y022014D01*
X022389Y022078D01*
X022326Y022141D01*
X022199Y022141D01*
X022136Y022078D01*
X022464Y022449D02*
X022464Y022703D01*
X024207Y022141D02*
X024207Y021761D01*
X024461Y021761D02*
X024461Y022141D01*
X024334Y022014D01*
X024207Y022141D01*
X024622Y022014D02*
X024748Y022141D01*
X024875Y022014D01*
X024875Y021761D01*
X025036Y021761D02*
X025290Y022141D01*
X025036Y022141D02*
X025290Y021761D01*
X025450Y021761D02*
X025514Y021761D01*
X025514Y021824D01*
X025450Y021824D01*
X025450Y021761D01*
X024875Y021951D02*
X024622Y021951D01*
X024622Y022014D02*
X024622Y021761D01*
X024950Y022386D02*
X024950Y022766D01*
X025077Y022639D01*
X025204Y022766D01*
X025204Y022386D01*
X025365Y022386D02*
X025365Y022639D01*
X025491Y022766D01*
X025618Y022639D01*
X025618Y022386D01*
X025779Y022386D02*
X026033Y022766D01*
X025779Y022766D02*
X026033Y022386D01*
X026193Y022386D02*
X026257Y022386D01*
X026257Y022449D01*
X026193Y022449D01*
X026193Y022386D01*
X025618Y022576D02*
X025365Y022576D01*
D111*
X025879Y020871D02*
X026076Y020871D01*
X026174Y020773D01*
X026174Y020674D01*
X026076Y020576D01*
X026174Y020477D01*
X026174Y020379D01*
X026076Y020281D01*
X025879Y020281D01*
X025781Y020379D01*
X025977Y020576D02*
X026076Y020576D01*
X025781Y020773D02*
X025879Y020871D01*
X014674Y020773D02*
X014674Y020674D01*
X014281Y020281D01*
X014674Y020281D01*
X014674Y020773D02*
X014576Y020871D01*
X014379Y020871D01*
X014281Y020773D01*
X005174Y020281D02*
X004781Y020281D01*
X004977Y020281D02*
X004977Y020871D01*
X004781Y020674D01*
D112*
X002096Y002726D02*
X002098Y002776D01*
X002104Y002826D01*
X002114Y002875D01*
X002128Y002923D01*
X002145Y002970D01*
X002166Y003015D01*
X002191Y003059D01*
X002219Y003100D01*
X002251Y003139D01*
X002285Y003176D01*
X002322Y003210D01*
X002362Y003240D01*
X002404Y003267D01*
X002448Y003291D01*
X002494Y003312D01*
X002541Y003328D01*
X002589Y003341D01*
X002639Y003350D01*
X002688Y003355D01*
X002739Y003356D01*
X002789Y003353D01*
X002838Y003346D01*
X002887Y003335D01*
X002935Y003320D01*
X002981Y003302D01*
X003026Y003280D01*
X003069Y003254D01*
X003110Y003225D01*
X003149Y003193D01*
X003185Y003158D01*
X003217Y003120D01*
X003247Y003080D01*
X003274Y003037D01*
X003297Y002993D01*
X003316Y002947D01*
X003332Y002899D01*
X003344Y002850D01*
X003352Y002801D01*
X003356Y002751D01*
X003356Y002701D01*
X003352Y002651D01*
X003344Y002602D01*
X003332Y002553D01*
X003316Y002505D01*
X003297Y002459D01*
X003274Y002415D01*
X003247Y002372D01*
X003217Y002332D01*
X003185Y002294D01*
X003149Y002259D01*
X003110Y002227D01*
X003069Y002198D01*
X003026Y002172D01*
X002981Y002150D01*
X002935Y002132D01*
X002887Y002117D01*
X002838Y002106D01*
X002789Y002099D01*
X002739Y002096D01*
X002688Y002097D01*
X002639Y002102D01*
X002589Y002111D01*
X002541Y002124D01*
X002494Y002140D01*
X002448Y002161D01*
X002404Y002185D01*
X002362Y002212D01*
X002322Y002242D01*
X002285Y002276D01*
X002251Y002313D01*
X002219Y002352D01*
X002191Y002393D01*
X002166Y002437D01*
X002145Y002482D01*
X002128Y002529D01*
X002114Y002577D01*
X002104Y002626D01*
X002098Y002676D01*
X002096Y002726D01*
X006371Y005220D02*
X006529Y005220D01*
X006529Y005732D01*
X007080Y005732D01*
X007080Y005220D02*
X006529Y005220D01*
X006529Y005732D02*
X006371Y005732D01*
X007674Y005501D02*
X007674Y005186D01*
X007674Y005501D02*
X007911Y005501D01*
X008541Y005501D02*
X008777Y005501D01*
X008777Y005186D01*
X009741Y006367D02*
X002457Y006367D01*
X002457Y006368D02*
X002424Y006373D01*
X002392Y006382D01*
X002360Y006394D01*
X002331Y006410D01*
X002303Y006428D01*
X002277Y006450D01*
X002254Y006474D01*
X002233Y006500D01*
X002215Y006529D01*
X002201Y006559D01*
X002190Y006591D01*
X002182Y006623D01*
X002182Y011860D01*
X002182Y011859D02*
X002179Y011893D01*
X002173Y011927D01*
X002163Y011959D01*
X002149Y011990D01*
X002132Y012019D01*
X002111Y012047D01*
X002088Y012072D01*
X002063Y012094D01*
X002034Y012113D01*
X002004Y012129D01*
X001973Y012141D01*
X001940Y012150D01*
X001906Y012155D01*
X001670Y012155D01*
X001638Y012158D01*
X001606Y012164D01*
X001576Y012173D01*
X001546Y012187D01*
X001519Y012203D01*
X001493Y012222D01*
X001470Y012245D01*
X001449Y012269D01*
X001432Y012296D01*
X001417Y012325D01*
X001406Y012355D01*
X001399Y012386D01*
X001395Y012418D01*
X001394Y012450D01*
X001394Y018726D01*
X001394Y018725D02*
X001400Y018764D01*
X001410Y018801D01*
X001423Y018838D01*
X001440Y018873D01*
X001460Y018906D01*
X001483Y018937D01*
X001509Y018966D01*
X001538Y018992D01*
X001569Y019016D01*
X001602Y019036D01*
X001637Y019052D01*
X001674Y019066D01*
X001711Y019076D01*
X001750Y019082D01*
X001788Y019084D01*
X011788Y019084D01*
X011822Y019089D01*
X011857Y019090D01*
X011891Y019088D01*
X011925Y019082D01*
X011958Y019072D01*
X011990Y019060D01*
X012020Y019044D01*
X012049Y019025D01*
X012075Y019003D01*
X012099Y018979D01*
X012121Y018952D01*
X012139Y018923D01*
X012155Y018893D01*
X012167Y018861D01*
X012176Y018828D01*
X012182Y018794D01*
X012184Y018760D01*
X012183Y018725D01*
X012182Y018726D02*
X012182Y014340D01*
X012179Y014306D01*
X012173Y014272D01*
X012163Y014240D01*
X012149Y014209D01*
X012132Y014180D01*
X012111Y014152D01*
X012088Y014127D01*
X012063Y014105D01*
X012034Y014086D01*
X012004Y014070D01*
X011973Y014058D01*
X011940Y014049D01*
X011906Y014044D01*
X011906Y014045D02*
X010292Y014045D01*
X010258Y014040D01*
X010225Y014031D01*
X010194Y014019D01*
X010164Y014003D01*
X010135Y013984D01*
X010110Y013962D01*
X010087Y013937D01*
X010066Y013909D01*
X010049Y013880D01*
X010035Y013849D01*
X010025Y013817D01*
X010019Y013783D01*
X010016Y013749D01*
X010017Y013749D02*
X010017Y006663D01*
X010014Y006629D01*
X010008Y006595D01*
X009998Y006563D01*
X009984Y006532D01*
X009967Y006503D01*
X009946Y006475D01*
X009923Y006450D01*
X009898Y006428D01*
X009869Y006409D01*
X009839Y006393D01*
X009808Y006381D01*
X009775Y006372D01*
X009741Y006367D01*
X013619Y006623D02*
X013619Y011860D01*
X013619Y011859D02*
X013616Y011893D01*
X013610Y011927D01*
X013600Y011959D01*
X013586Y011990D01*
X013569Y012019D01*
X013548Y012047D01*
X013525Y012072D01*
X013500Y012094D01*
X013471Y012113D01*
X013441Y012129D01*
X013410Y012141D01*
X013377Y012150D01*
X013343Y012155D01*
X013344Y012155D02*
X013108Y012155D01*
X013076Y012158D01*
X013044Y012164D01*
X013014Y012173D01*
X012984Y012187D01*
X012957Y012203D01*
X012931Y012222D01*
X012908Y012245D01*
X012887Y012269D01*
X012870Y012296D01*
X012855Y012325D01*
X012844Y012355D01*
X012837Y012386D01*
X012833Y012418D01*
X012832Y012450D01*
X012832Y018726D01*
X012831Y018725D02*
X012837Y018764D01*
X012847Y018801D01*
X012860Y018838D01*
X012877Y018873D01*
X012897Y018906D01*
X012920Y018937D01*
X012946Y018966D01*
X012975Y018992D01*
X013006Y019016D01*
X013039Y019036D01*
X013074Y019052D01*
X013111Y019066D01*
X013148Y019076D01*
X013187Y019082D01*
X013225Y019084D01*
X013226Y019084D02*
X023226Y019084D01*
X023225Y019084D02*
X023259Y019089D01*
X023294Y019090D01*
X023328Y019088D01*
X023362Y019082D01*
X023395Y019072D01*
X023427Y019060D01*
X023457Y019044D01*
X023486Y019025D01*
X023512Y019003D01*
X023536Y018979D01*
X023558Y018952D01*
X023576Y018923D01*
X023592Y018893D01*
X023604Y018861D01*
X023613Y018828D01*
X023619Y018794D01*
X023621Y018760D01*
X023620Y018725D01*
X023619Y018726D02*
X023619Y014340D01*
X023616Y014306D01*
X023610Y014272D01*
X023600Y014240D01*
X023586Y014209D01*
X023569Y014180D01*
X023548Y014152D01*
X023525Y014127D01*
X023500Y014105D01*
X023471Y014086D01*
X023441Y014070D01*
X023410Y014058D01*
X023377Y014049D01*
X023343Y014044D01*
X023344Y014045D02*
X021730Y014045D01*
X021696Y014040D01*
X021663Y014031D01*
X021632Y014019D01*
X021602Y014003D01*
X021573Y013984D01*
X021548Y013962D01*
X021525Y013937D01*
X021504Y013909D01*
X021487Y013880D01*
X021473Y013849D01*
X021463Y013817D01*
X021457Y013783D01*
X021454Y013749D01*
X021454Y006663D01*
X021451Y006629D01*
X021445Y006595D01*
X021435Y006563D01*
X021421Y006532D01*
X021404Y006503D01*
X021383Y006475D01*
X021360Y006450D01*
X021335Y006428D01*
X021306Y006409D01*
X021276Y006393D01*
X021245Y006381D01*
X021212Y006372D01*
X021178Y006367D01*
X013895Y006367D01*
X013895Y006368D02*
X013862Y006373D01*
X013830Y006382D01*
X013798Y006394D01*
X013769Y006410D01*
X013741Y006428D01*
X013715Y006450D01*
X013692Y006474D01*
X013671Y006500D01*
X013653Y006529D01*
X013639Y006559D01*
X013628Y006591D01*
X013620Y006623D01*
X017871Y005732D02*
X018029Y005732D01*
X018029Y005220D01*
X018580Y005220D01*
X018029Y005220D02*
X017871Y005220D01*
X018029Y005732D02*
X018580Y005732D01*
X019174Y005501D02*
X019174Y005186D01*
X019174Y005501D02*
X019411Y005501D01*
X020041Y005501D02*
X020277Y005501D01*
X020277Y005186D01*
X025119Y006623D02*
X025119Y011860D01*
X025119Y011859D02*
X025116Y011893D01*
X025110Y011927D01*
X025100Y011959D01*
X025086Y011990D01*
X025069Y012019D01*
X025048Y012047D01*
X025025Y012072D01*
X025000Y012094D01*
X024971Y012113D01*
X024941Y012129D01*
X024910Y012141D01*
X024877Y012150D01*
X024843Y012155D01*
X024844Y012155D02*
X024608Y012155D01*
X024576Y012158D01*
X024544Y012164D01*
X024514Y012173D01*
X024484Y012187D01*
X024457Y012203D01*
X024431Y012222D01*
X024408Y012245D01*
X024387Y012269D01*
X024370Y012296D01*
X024355Y012325D01*
X024344Y012355D01*
X024337Y012386D01*
X024333Y012418D01*
X024332Y012450D01*
X024332Y018726D01*
X024331Y018725D02*
X024337Y018764D01*
X024347Y018801D01*
X024360Y018838D01*
X024377Y018873D01*
X024397Y018906D01*
X024420Y018937D01*
X024446Y018966D01*
X024475Y018992D01*
X024506Y019016D01*
X024539Y019036D01*
X024574Y019052D01*
X024611Y019066D01*
X024648Y019076D01*
X024687Y019082D01*
X024725Y019084D01*
X024726Y019084D02*
X034726Y019084D01*
X034725Y019084D02*
X034759Y019089D01*
X034794Y019090D01*
X034828Y019088D01*
X034862Y019082D01*
X034895Y019072D01*
X034927Y019060D01*
X034957Y019044D01*
X034986Y019025D01*
X035012Y019003D01*
X035036Y018979D01*
X035058Y018952D01*
X035076Y018923D01*
X035092Y018893D01*
X035104Y018861D01*
X035113Y018828D01*
X035119Y018794D01*
X035121Y018760D01*
X035120Y018725D01*
X035119Y018726D02*
X035119Y014340D01*
X035116Y014306D01*
X035110Y014272D01*
X035100Y014240D01*
X035086Y014209D01*
X035069Y014180D01*
X035048Y014152D01*
X035025Y014127D01*
X035000Y014105D01*
X034971Y014086D01*
X034941Y014070D01*
X034910Y014058D01*
X034877Y014049D01*
X034843Y014044D01*
X034844Y014045D02*
X033230Y014045D01*
X033196Y014040D01*
X033163Y014031D01*
X033132Y014019D01*
X033102Y014003D01*
X033073Y013984D01*
X033048Y013962D01*
X033025Y013937D01*
X033004Y013909D01*
X032987Y013880D01*
X032973Y013849D01*
X032963Y013817D01*
X032957Y013783D01*
X032954Y013749D01*
X032954Y006663D01*
X032951Y006629D01*
X032945Y006595D01*
X032935Y006563D01*
X032921Y006532D01*
X032904Y006503D01*
X032883Y006475D01*
X032860Y006450D01*
X032835Y006428D01*
X032806Y006409D01*
X032776Y006393D01*
X032745Y006381D01*
X032712Y006372D01*
X032678Y006367D01*
X025395Y006367D01*
X025395Y006368D02*
X025362Y006373D01*
X025330Y006382D01*
X025298Y006394D01*
X025269Y006410D01*
X025241Y006428D01*
X025215Y006450D01*
X025192Y006474D01*
X025171Y006500D01*
X025153Y006529D01*
X025139Y006559D01*
X025128Y006591D01*
X025120Y006623D01*
X029371Y005982D02*
X029529Y005982D01*
X029529Y005470D01*
X030080Y005470D01*
X029529Y005470D02*
X029371Y005470D01*
X029529Y005982D02*
X030080Y005982D01*
X030674Y005501D02*
X030674Y005186D01*
X030674Y005501D02*
X030911Y005501D01*
X031541Y005501D02*
X031777Y005501D01*
X031777Y005186D01*
X033096Y002726D02*
X033098Y002776D01*
X033104Y002826D01*
X033114Y002875D01*
X033128Y002923D01*
X033145Y002970D01*
X033166Y003015D01*
X033191Y003059D01*
X033219Y003100D01*
X033251Y003139D01*
X033285Y003176D01*
X033322Y003210D01*
X033362Y003240D01*
X033404Y003267D01*
X033448Y003291D01*
X033494Y003312D01*
X033541Y003328D01*
X033589Y003341D01*
X033639Y003350D01*
X033688Y003355D01*
X033739Y003356D01*
X033789Y003353D01*
X033838Y003346D01*
X033887Y003335D01*
X033935Y003320D01*
X033981Y003302D01*
X034026Y003280D01*
X034069Y003254D01*
X034110Y003225D01*
X034149Y003193D01*
X034185Y003158D01*
X034217Y003120D01*
X034247Y003080D01*
X034274Y003037D01*
X034297Y002993D01*
X034316Y002947D01*
X034332Y002899D01*
X034344Y002850D01*
X034352Y002801D01*
X034356Y002751D01*
X034356Y002701D01*
X034352Y002651D01*
X034344Y002602D01*
X034332Y002553D01*
X034316Y002505D01*
X034297Y002459D01*
X034274Y002415D01*
X034247Y002372D01*
X034217Y002332D01*
X034185Y002294D01*
X034149Y002259D01*
X034110Y002227D01*
X034069Y002198D01*
X034026Y002172D01*
X033981Y002150D01*
X033935Y002132D01*
X033887Y002117D01*
X033838Y002106D01*
X033789Y002099D01*
X033739Y002096D01*
X033688Y002097D01*
X033639Y002102D01*
X033589Y002111D01*
X033541Y002124D01*
X033494Y002140D01*
X033448Y002161D01*
X033404Y002185D01*
X033362Y002212D01*
X033322Y002242D01*
X033285Y002276D01*
X033251Y002313D01*
X033219Y002352D01*
X033191Y002393D01*
X033166Y002437D01*
X033145Y002482D01*
X033128Y002529D01*
X033114Y002577D01*
X033104Y002626D01*
X033098Y002676D01*
X033096Y002726D01*
X033096Y022226D02*
X033098Y022276D01*
X033104Y022326D01*
X033114Y022375D01*
X033128Y022423D01*
X033145Y022470D01*
X033166Y022515D01*
X033191Y022559D01*
X033219Y022600D01*
X033251Y022639D01*
X033285Y022676D01*
X033322Y022710D01*
X033362Y022740D01*
X033404Y022767D01*
X033448Y022791D01*
X033494Y022812D01*
X033541Y022828D01*
X033589Y022841D01*
X033639Y022850D01*
X033688Y022855D01*
X033739Y022856D01*
X033789Y022853D01*
X033838Y022846D01*
X033887Y022835D01*
X033935Y022820D01*
X033981Y022802D01*
X034026Y022780D01*
X034069Y022754D01*
X034110Y022725D01*
X034149Y022693D01*
X034185Y022658D01*
X034217Y022620D01*
X034247Y022580D01*
X034274Y022537D01*
X034297Y022493D01*
X034316Y022447D01*
X034332Y022399D01*
X034344Y022350D01*
X034352Y022301D01*
X034356Y022251D01*
X034356Y022201D01*
X034352Y022151D01*
X034344Y022102D01*
X034332Y022053D01*
X034316Y022005D01*
X034297Y021959D01*
X034274Y021915D01*
X034247Y021872D01*
X034217Y021832D01*
X034185Y021794D01*
X034149Y021759D01*
X034110Y021727D01*
X034069Y021698D01*
X034026Y021672D01*
X033981Y021650D01*
X033935Y021632D01*
X033887Y021617D01*
X033838Y021606D01*
X033789Y021599D01*
X033739Y021596D01*
X033688Y021597D01*
X033639Y021602D01*
X033589Y021611D01*
X033541Y021624D01*
X033494Y021640D01*
X033448Y021661D01*
X033404Y021685D01*
X033362Y021712D01*
X033322Y021742D01*
X033285Y021776D01*
X033251Y021813D01*
X033219Y021852D01*
X033191Y021893D01*
X033166Y021937D01*
X033145Y021982D01*
X033128Y022029D01*
X033114Y022077D01*
X033104Y022126D01*
X033098Y022176D01*
X033096Y022226D01*
X002096Y022226D02*
X002098Y022276D01*
X002104Y022326D01*
X002114Y022375D01*
X002128Y022423D01*
X002145Y022470D01*
X002166Y022515D01*
X002191Y022559D01*
X002219Y022600D01*
X002251Y022639D01*
X002285Y022676D01*
X002322Y022710D01*
X002362Y022740D01*
X002404Y022767D01*
X002448Y022791D01*
X002494Y022812D01*
X002541Y022828D01*
X002589Y022841D01*
X002639Y022850D01*
X002688Y022855D01*
X002739Y022856D01*
X002789Y022853D01*
X002838Y022846D01*
X002887Y022835D01*
X002935Y022820D01*
X002981Y022802D01*
X003026Y022780D01*
X003069Y022754D01*
X003110Y022725D01*
X003149Y022693D01*
X003185Y022658D01*
X003217Y022620D01*
X003247Y022580D01*
X003274Y022537D01*
X003297Y022493D01*
X003316Y022447D01*
X003332Y022399D01*
X003344Y022350D01*
X003352Y022301D01*
X003356Y022251D01*
X003356Y022201D01*
X003352Y022151D01*
X003344Y022102D01*
X003332Y022053D01*
X003316Y022005D01*
X003297Y021959D01*
X003274Y021915D01*
X003247Y021872D01*
X003217Y021832D01*
X003185Y021794D01*
X003149Y021759D01*
X003110Y021727D01*
X003069Y021698D01*
X003026Y021672D01*
X002981Y021650D01*
X002935Y021632D01*
X002887Y021617D01*
X002838Y021606D01*
X002789Y021599D01*
X002739Y021596D01*
X002688Y021597D01*
X002639Y021602D01*
X002589Y021611D01*
X002541Y021624D01*
X002494Y021640D01*
X002448Y021661D01*
X002404Y021685D01*
X002362Y021712D01*
X002322Y021742D01*
X002285Y021776D01*
X002251Y021813D01*
X002219Y021852D01*
X002191Y021893D01*
X002166Y021937D01*
X002145Y021982D01*
X002128Y022029D01*
X002114Y022077D01*
X002104Y022126D01*
X002098Y022176D01*
X002096Y022226D01*
D113*
X022226Y004015D03*
X023226Y004015D03*
X024226Y004015D03*
D114*
X010812Y002798D02*
X010812Y002654D01*
X010621Y002634D01*
X010601Y002570D01*
X010570Y002511D01*
X010314Y002511D01*
X010296Y002555D02*
X010381Y002351D01*
X010441Y002381D01*
X010589Y002260D01*
X010691Y002362D01*
X010570Y002511D01*
X010600Y002569D02*
X010321Y002569D01*
X010335Y002577D02*
X010296Y002555D01*
X010335Y002577D02*
X010367Y002607D01*
X010391Y002644D01*
X010406Y002686D01*
X010410Y002730D01*
X010404Y002773D01*
X010387Y002814D01*
X010362Y002850D01*
X010328Y002879D01*
X010289Y002899D01*
X010246Y002909D01*
X010202Y002909D01*
X010159Y002898D01*
X010120Y002877D01*
X010087Y002847D01*
X010062Y002811D01*
X010046Y002770D01*
X010041Y002726D01*
X010046Y002683D01*
X010061Y002642D01*
X010085Y002606D01*
X010117Y002576D01*
X010155Y002555D01*
X010070Y002351D01*
X010011Y002381D01*
X009862Y002260D01*
X009760Y002362D01*
X009881Y002511D01*
X010137Y002511D01*
X010131Y002569D02*
X009851Y002569D01*
X009851Y002570D02*
X009881Y002511D01*
X009851Y002570D02*
X009830Y002634D01*
X009640Y002654D01*
X009640Y002798D01*
X009830Y002817D01*
X009851Y002881D01*
X009881Y002941D01*
X009760Y003089D01*
X009862Y003191D01*
X010011Y003070D01*
X010070Y003101D01*
X010134Y003121D01*
X010154Y003312D01*
X010298Y003312D01*
X010317Y003121D01*
X010381Y003101D01*
X010441Y003070D01*
X010589Y003191D01*
X010691Y003089D01*
X010570Y002941D01*
X010601Y002881D01*
X010621Y002817D01*
X010812Y002798D01*
X010796Y002799D02*
X010393Y002799D01*
X010408Y002742D02*
X010812Y002742D01*
X010812Y002684D02*
X010405Y002684D01*
X010380Y002626D02*
X010619Y002626D01*
X010616Y002454D02*
X010338Y002454D01*
X010362Y002396D02*
X010663Y002396D01*
X010667Y002338D02*
X010493Y002338D01*
X010564Y002281D02*
X010610Y002281D01*
X010113Y002454D02*
X009835Y002454D01*
X009788Y002396D02*
X010089Y002396D01*
X009958Y002338D02*
X009784Y002338D01*
X009842Y002281D02*
X009887Y002281D01*
X009833Y002626D02*
X010072Y002626D01*
X010046Y002684D02*
X009640Y002684D01*
X009640Y002742D02*
X010043Y002742D01*
X010058Y002799D02*
X009655Y002799D01*
X009843Y002857D02*
X010097Y002857D01*
X010044Y003087D02*
X010407Y003087D01*
X010462Y003087D02*
X010689Y003087D01*
X010642Y003030D02*
X009809Y003030D01*
X009762Y003087D02*
X009989Y003087D01*
X009919Y003145D02*
X009816Y003145D01*
X009856Y002972D02*
X010595Y002972D01*
X010584Y002914D02*
X009868Y002914D01*
X010137Y003145D02*
X010315Y003145D01*
X010309Y003202D02*
X010143Y003202D01*
X010148Y003260D02*
X010303Y003260D01*
X010533Y003145D02*
X010635Y003145D01*
X010609Y002857D02*
X010354Y002857D01*
M02*
