%
M48
M72
T01C0.0197
T02C0.0394
T03C0.0400
T04C0.0433
T05C0.0470
T06C0.0787
T07C0.0810
T08C0.1181
%
T01
X6226Y4726
X9226Y5226
X17226Y5226
X20226Y6726
X21476Y3726
X28476Y5476
X32226Y5226
T02
X18226Y1726
X17226Y1726
X16226Y1726
X15226Y1726
X14226Y1726
X13226Y1726
T03
X20226Y1726
X21226Y1726
X22226Y1726
X23226Y1726
X24226Y1726
T04
X27123Y8682
X31123Y8682
X19623Y8682
X15623Y8682
X8186Y8682
X4186Y8682
T05
X6726Y21976
X8726Y21976
X16226Y21976
X18226Y21976
X27726Y21976
X29726Y21976
T06
X32619Y17686
X32619Y14682
X21119Y14682
X21119Y17686
X9682Y17686
X9682Y14682
T07
X14127Y13682
X2690Y13682
X25627Y13682
T08
X2726Y2726
X2726Y22226
X33726Y22226
X33726Y2726
M30
